<?xml version="1.0" encoding="utf-8"?>
<!-- Generator: Adobe Illustrator 25.2.0, SVG Export Plug-In . SVG Version: 6.00 Build 0)  -->
<svg version="1.1" id="图层_1" xmlns="http://www.w3.org/2000/svg" xmlns:xlink="http://www.w3.org/1999/xlink" x="0px" y="0px"
	 viewBox="0 0 595.3 841.9" style="enable-background:new 0 0 595.3 841.9" xml:space="preserve">
<style type="text/css">
	.st0{fill:#131414;}
</style>
<g>
	<path class="st0" d="M551.8,301.9H135.1l78.4-78.4c15-15,15-39.3,0-54.3c-15-15-39.3-15-54.3,0L15.3,313.1
		c-3.2,3.2-5.7,6.7-7.5,10.5c0,0,0,0,0,0c-0.3,0.5-0.5,1.1-0.7,1.6c0,0,0,0.1-0.1,0.1c-0.2,0.5-0.4,1-0.6,1.5c0,0.1-0.1,0.2-0.1,0.3
		c-0.2,0.5-0.3,1-0.5,1.4c0,0.1-0.1,0.3-0.1,0.4c-0.1,0.5-0.3,0.9-0.4,1.4c0,0.2-0.1,0.3-0.1,0.5c-0.1,0.5-0.2,0.9-0.3,1.4
		c0,0.2-0.1,0.3-0.1,0.5c-0.1,0.5-0.2,1-0.3,1.4c0,0.1-0.1,0.3-0.1,0.4c-0.1,0.5-0.1,1.1-0.2,1.6c0,0.1,0,0.2,0,0.3
		C4,338.3,4,340.2,4,342.1c0,0.5,0.1,0.9,0.1,1.4c0,0.1,0,0.3,0,0.4c1.2,12.5,8.4,23.3,18.7,29.4c0,0,0.1,0.1,0.1,0.1
		c0.5,0.3,0.9,0.5,1.4,0.8c0.1,0.1,0.3,0.1,0.4,0.2c0.4,0.2,0.8,0.4,1.2,0.6c0.2,0.1,0.4,0.2,0.5,0.2c0.4,0.2,0.8,0.3,1.2,0.5
		c0.2,0.1,0.4,0.2,0.6,0.2c0.4,0.2,0.8,0.3,1.2,0.4c0.2,0.1,0.4,0.1,0.6,0.2c0.4,0.1,0.8,0.3,1.2,0.4c0.2,0.1,0.4,0.1,0.6,0.2
		c0.4,0.1,0.8,0.2,1.2,0.3c0.2,0,0.4,0.1,0.6,0.1c0.4,0.1,0.8,0.2,1.3,0.3c0.2,0,0.4,0.1,0.6,0.1c0.4,0.1,0.8,0.1,1.2,0.2
		c0.2,0,0.5,0.1,0.7,0.1c0.4,0,0.8,0.1,1.1,0.1c0.3,0,0.6,0.1,1,0.1c0.3,0,0.6,0.1,0.9,0.1c0.6,0,1.3,0,1.9,0h509.4
		c21.2,0,38.4-17.2,38.4-38.4C590.2,319.1,573,301.9,551.8,301.9z"/>
	<path class="st0" d="M582.9,526.3C582.9,526.2,582.9,526.2,582.9,526.3c0.4-0.5,0.7-0.9,0.9-1.3c0.3-0.4,0.5-0.8,0.8-1.3
		c0,0,0-0.1,0.1-0.1c9.1-14.8,7.2-34.3-5.7-47.2c-8.4-8.4-19.7-12.1-30.6-11.1H42.4C21.2,465.2,4,482.4,4,503.7
		C4,524.9,21.2,542,42.4,542H459l-78.2,78.2c-15,15-15,39.3,0,54.3c7.4,7.5,17.3,11.3,27.1,11.3c9.8,0,19.6-3.7,27.1-11.2L577.7,532
		C579.6,530.3,581.3,528.3,582.9,526.3z"/>
</g>
</svg>
