<?xml version="1.0" encoding="utf-8"?>
<!-- Generator: Adobe Illustrator 23.0.1, SVG Export Plug-In . SVG Version: 6.00 Build 0)  -->
<svg version="1.1" id="图层_1" xmlns="http://www.w3.org/2000/svg" xmlns:xlink="http://www.w3.org/1999/xlink" x="0px" y="0px"
	 viewBox="0 0 16 16" enable-background="new 0 0 16 16" xml:space="preserve">
<g>
	<path fill="#FFFFFF" d="M11.6,7.3h-3v-3C8.6,4,8.3,3.7,8,3.7S7.4,4,7.3,4.4v3h-3C4,7.4,3.7,7.7,3.7,8S4,8.6,4.4,8.6h3v3
		c0,0.3,0.3,0.6,0.6,0.6s0.6-0.3,0.6-0.6v-3h3c0.4,0,0.7-0.3,0.6-0.7C12.2,7.6,11.9,7.3,11.6,7.3z"/>
	<path fill="#56A3F2" d="M8,0.1C3.6,0.1,0.1,3.6,0.1,8s3.5,7.9,7.9,7.9s7.9-3.5,7.9-7.9S12.4,0.1,8,0.1z M11.6,8.6h-3v3
		c0,0.3-0.3,0.6-0.6,0.6s-0.6-0.3-0.6-0.6v-3h-3C4,8.6,3.7,8.3,3.7,8S4,7.4,4.3,7.4h3v-3C7.4,4,7.7,3.7,8,3.7S8.6,4,8.6,4.3v3h3
		c0.3,0,0.6,0.3,0.6,0.6C12.3,8.3,12,8.6,11.6,8.6z"/>
</g>
</svg>
