<?xml version="1.0" encoding="utf-8"?>
<!-- Generator: Adobe Illustrator 23.0.1, SVG Export Plug-In . SVG Version: 6.00 Build 0)  -->
<svg version="1.1" id="图层_1" xmlns="http://www.w3.org/2000/svg" xmlns:xlink="http://www.w3.org/1999/xlink" x="0px" y="0px"
     viewBox="0 0 16 16" enable-background="new 0 0 16 16" xml:space="preserve">
<g>
	<path fill="#505D75" d="M6.3,13.5c0.1,0.1,0.2,0.2,0.3,0.2c0.1,0,0.2,0,0.2,0c0.2,0,0.3-0.1,0.4-0.2l5.2-5.5c0.2-0.2,0.2-0.7,0-0.9
		C12.3,7,12.2,7,12,7h0c-0.2,0-0.3,0.1-0.4,0.2l-4.8,5L4.5,9.8C4.3,9.6,4.2,9.6,4,9.6h0c-0.2,0-0.3,0.1-0.4,0.2
		c-0.2,0.3-0.2,0.7,0,0.9L6.3,13.5z"/>
    <path fill="#505D75" d="M15.9,5.5c0-0.1,0-0.2-0.1-0.2l-1.4-4.4c0-0.2-0.1-0.5-0.3-0.6C14.1,0.1,13.8,0,13.6,0H2.4
		C2,0,1.6,0.4,1.6,0.9L0.1,5.2c0,0,0,0.1,0,0.1l-0.1,0.5H0v9C0,15.4,0.5,16,1.2,16h13.6c0.7,0,1.2-0.6,1.2-1.2v-9l0,0L15.9,5.5z
		 M14.7,5.8v8.9H1.3V5.8H14.7z M1.7,4.5l1.1-3.2h10.6l1,3.2H1.7z"/>
</g>
</svg>