<?xml version="1.0" encoding="utf-8"?>
<!-- Generator: Adobe Illustrator 23.0.1, SVG Export Plug-In . SVG Version: 6.00 Build 0)  -->
<svg version="1.1" id="图层_1" xmlns="http://www.w3.org/2000/svg" xmlns:xlink="http://www.w3.org/1999/xlink" x="0px" y="0px"
	 viewBox="0 0 16 16" style="enable-background:new 0 0 16 16;" xml:space="preserve">
<g>
	<path class="st0" d="M14.2,0.1c0.3,0,0.6,0.2,0.6,0.6v14.6c0,0.3-0.2,0.5-0.4,0.6c-0.3,0.1-0.6,0-0.7-0.2l-1-1.1l0,0
		c-0.3-0.2-0.6-0.2-0.9,0l-0.1,0.1l-1,1.1c-0.1,0.1-0.3,0.2-0.5,0.2c-0.2,0-0.4-0.1-0.5-0.2l0,0l-1.1-1.2l0,0
		c-0.3-0.2-0.6-0.2-0.9,0l-0.1,0.1l-1,1.1C6.3,15.9,6.1,15.9,6,16c-0.2,0-0.4-0.1-0.5-0.2l0,0l-1.1-1.2l0,0c-0.3-0.2-0.6-0.2-0.9,0
		l-0.1,0.1l-1,1.1c-0.2,0.2-0.5,0.3-0.7,0.2c-0.3-0.1-0.4-0.4-0.4-0.6V0.6c0-0.3,0.2-0.6,0.6-0.6H14.2z M13.5,1.1H2.4
		c-0.1,0-0.2,0.1-0.2,0.2v13.1l0.4-0.5l0,0c0.7-0.6,1.7-0.6,2.3-0.1l0,0l0.1,0.1l0.8,0.9l0.8-0.9c0,0,0,0,0,0l0,0
		c0.6-0.6,1.6-0.6,2.3-0.1l0,0l0.1,0.1l0.8,0.9l0.8-0.9c0,0,0,0,0,0l0,0c0.6-0.6,1.6-0.6,2.3-0.1l0,0l0.1,0.1l0.4,0.5V1.3
		C13.7,1.2,13.6,1.1,13.5,1.1z M13.7,1.1"/>
	<path class="st0" d="M9.1,3.1c0.1-0.2,0.4-0.3,0.7-0.2c0.2,0.1,0.3,0.4,0.2,0.7L9.4,4.5h0.1c0.2,0,0.3,0.1,0.4,0.3
		c0.1,0.2,0.1,0.3,0,0.5C9.8,5.4,9.7,5.5,9.5,5.5h-1v0.7h1c0.2,0,0.3,0.1,0.4,0.3C10,6.6,10,6.8,9.9,7C9.8,7.1,9.7,7.2,9.5,7.2h-1
		v1.5C8.5,9,8.3,9.2,8,9.2C7.7,9.2,7.5,9,7.5,8.7V7.2h-1C6.2,7.2,6,7,6,6.7c0-0.3,0.2-0.5,0.5-0.5h1V5.5h-1C6.2,5.5,6,5.3,6,5
		c0-0.3,0.2-0.5,0.5-0.5h0.1L6,3.6C5.9,3.4,6,3.1,6.2,2.9c0.2-0.1,0.5-0.1,0.7,0.2l0.8,1.4h0.6L9.1,3.1z M9.1,3.1"/>
	<path class="st0" d="M6.1,11h3.7c0.3,0,0.5,0.2,0.5,0.5c0,0.3-0.2,0.5-0.5,0.5H6.1c-0.3,0-0.5-0.2-0.5-0.5C5.6,11.2,5.8,11,6.1,11
		L6.1,11z M6.1,11"/>
</g>
</svg>
