<svg xmlns="http://www.w3.org/2000/svg" viewBox="0 0 18 18"><title>计算机-icon_画板 1</title><path d="M13.7,13l1,1c.2.2.2.5,0,.6s-.5.2-.6,0l-1-1-1,1c-.2.2-.5.2-.6,0s-.2-.5,0-.6l1-1-1-1c-.2-.2-.2-.5,0-.6s.5-.2.6,0l1,1,1-1c.2-.2.5-.2.6,0s.2.5,0,.6l-1,1ZM4.5,8.88V7.75a.4.4,0,1,1,.8,0V8.88H6.43a.34.34,0,0,1,.32.32.38.38,0,0,1-.4.4h-1v1a.44.44,0,0,1-.16.33.36.36,0,0,1-.4,0,.44.44,0,0,1-.16-.33v-1H3.45a.4.4,0,1,1,0-.8h1ZM.7,4.4H17.3v1H.7ZM12.8,7.3a.48.48,0,0,1,0,.7L6.4,14.4a.42.42,0,1,1-.6-.6l6.4-6.4a1.19,1.19,0,0,1,.22-.16.33.33,0,0,1,.38.06ZM1.6,2.05v13.8A1.09,1.09,0,0,0,2.69,17H15.41a1.09,1.09,0,0,0,1.09-1.1V2.05A1.09,1.09,0,0,0,15.41,1H2.69A1.09,1.09,0,0,0,1.6,2.05Zm.7-2H15.7a1.77,1.77,0,0,1,1.7,1.8V16.2A1.77,1.77,0,0,1,15.7,18H2.3C1.4,18,.6,16.2.6,16.2V1.8A1.77,1.77,0,0,1,2.3,0Z" /></svg>