<?xml version="1.0" encoding="utf-8"?>
<!-- Generator: Adobe Illustrator 23.0.1, SVG Export Plug-In . SVG Version: 6.00 Build 0)  -->
<svg version="1.1" id="图层_1" xmlns="http://www.w3.org/2000/svg" xmlns:xlink="http://www.w3.org/1999/xlink" x="0px" y="0px"
	 viewBox="0 0 14 14" style="enable-background:new 0 0 14 14;" xml:space="preserve">
<g>
	<path class="st0" d="M13.4,4.3c-0.3-0.8-0.8-1.6-1.5-2.2C11.3,1.5,10.5,1,9.7,0.6C8.8,0.2,7.9,0.1,7,0.1S5.2,0.3,4.3,0.6
		C3.5,1,2.7,1.5,2.1,2.1S1,3.5,0.6,4.3C0.2,5.2,0.1,6.1,0.1,7s0.2,1.8,0.5,2.7c0.3,0.8,0.8,1.6,1.5,2.2c0.6,0.6,1.4,1.1,2.2,1.5
		c0.9,0.4,1.8,0.5,2.7,0.5s1.8-0.2,2.7-0.5c0.8-0.3,1.6-0.8,2.2-1.5c0.6-0.6,1.1-1.4,1.5-2.2c0.4-0.9,0.5-1.8,0.5-2.7
		S13.8,5.2,13.4,4.3L13.4,4.3z M11.3,11.3C10.1,12.4,8.6,13,7,13s-3.1-0.6-4.3-1.8C1.6,10.1,1,8.6,1,7s0.6-3.1,1.8-4.3
		C3.9,1.6,5.4,1,7,1s3.1,0.6,4.3,1.8C12.4,3.9,13,5.4,13,7S12.4,10.1,11.3,11.3L11.3,11.3z"/>
</g>
<path class="st0" d="M9.4,8.5H7.6V7.6h1.8c0.3,0,0.5-0.2,0.5-0.5S9.7,6.6,9.4,6.6H7.6V6.1L9.7,4c0.2-0.2,0.2-0.5,0-0.8
	C9.5,3,9.2,3,8.9,3.2L7,5.2L5.1,3.3c-0.2-0.2-0.5-0.2-0.8,0C4.1,3.5,4.1,3.8,4.3,4l2.2,2.2v0.3h-2C4.2,6.5,4,6.8,4,7.1
	c0,0.3,0.2,0.5,0.5,0.5h2v0.9h-2C4.2,8.5,4,8.7,4,9s0.2,0.5,0.5,0.5h2v1.2c0,0.3,0.2,0.5,0.5,0.5c0.2,0,0.4-0.2,0.5-0.5V9.6h1.8
	C9.8,9.6,10,9.4,10,9C10,8.7,9.8,8.5,9.4,8.5z"/>
</svg>
