<?xml version="1.0" encoding="utf-8"?>
<!-- Generator: Adobe Illustrator 23.0.1, SVG Export Plug-In . SVG Version: 6.00 Build 0)  -->
<svg version="1.1" id="图层_1" xmlns="http://www.w3.org/2000/svg" xmlns:xlink="http://www.w3.org/1999/xlink" x="0px" y="0px"
	 viewBox="0 0 16 16" style="enable-background:new 0 0 16 16;" xml:space="preserve">
<g>
	<g>
		<path class="st0" d="M12.4,4.1c0-0.3-0.3-0.6-0.6-0.6H4.6C4.3,3.5,4,3.8,4,4.1s0.3,0.6,0.6,0.6h7.2C12.2,4.6,12.4,4.4,12.4,4.1
			L12.4,4.1z M4.6,6.9C4.3,6.9,4,7.2,4,7.5C4.1,7.8,4.3,8,4.6,8H8c0.3,0,0.6-0.3,0.6-0.6c0-0.3-0.3-0.6-0.6-0.6L4.6,6.9L4.6,6.9z"/>
		<path class="st0" d="M9.4,14.8H3.1c-0.6,0-1.1-0.5-1.1-1.1V2.4c0-0.6,0.5-1.1,1.1-1.1h9.7c0.6,0,1.1,0.5,1.1,1.1V8l0,0l0,0
			c0,0.3,0.3,0.6,0.6,0.6s0.6-0.3,0.6-0.6c0,0,0,0,0-0.1V2.4c0-1.2-0.5-2.3-1.7-2.3H3.2c-1.2,0-2.3,1-2.3,2.3v11.3
			c0,1.2,1,2.3,2.3,2.3h6.2c0.3,0,0.6-0.3,0.6-0.6C10,15,9.7,14.8,9.4,14.8L9.4,14.8z"/>
	</g>
</g>
<path class="st1" d="M14.2,10.1l-3,3c-0.1,0.1-0.4,0.1-0.6,0L9.5,12c-0.1-0.1-0.4-0.1-0.6,0l0,0c-0.1,0.1-0.1,0.4,0,0.6l1.7,1.7
	c0.1,0.1,0.4,0.1,0.6,0l0.3-0.3l3.2-3.2c0.1-0.1,0.1-0.4,0-0.6l0,0C14.6,10,14.3,10,14.2,10.1z"/>
</svg>
