<?xml version="1.0" encoding="utf-8"?>
<!-- Generator: Adobe Illustrator 23.0.1, SVG Export Plug-In . SVG Version: 6.00 Build 0)  -->
<svg version="1.1" id="图层_1" xmlns="http://www.w3.org/2000/svg" xmlns:xlink="http://www.w3.org/1999/xlink" x="0px" y="0px"
	 viewBox="0 0 16 16" style="enable-background:new 0 0 16 16;" xml:space="preserve">
<g>
	<g>
		<path class="st0" d="M12.3,4c0-0.3-0.3-0.6-0.6-0.6H4.5C4.2,3.4,3.9,3.7,3.9,4s0.3,0.6,0.6,0.6h7.2C12.1,4.5,12.3,4.3,12.3,4
			L12.3,4z M4.5,6.8c-0.3,0-0.6,0.3-0.6,0.6C4,7.7,4.2,7.9,4.5,7.9h3.4c0.3,0,0.6-0.3,0.6-0.6c0-0.3-0.3-0.6-0.6-0.6L4.5,6.8
			L4.5,6.8z"/>
		<path class="st0" d="M9.3,14.7H3c-0.6,0-1.1-0.5-1.1-1.1V2.3c0-0.6,0.5-1.1,1.1-1.1h9.7c0.6,0,1.1,0.5,1.1,1.1v5.6l0,0l0,0
			c0,0.3,0.3,0.6,0.6,0.6S15,8.2,15,7.9c0,0,0,0,0-0.1V2.3C15,1.1,14.5,0,13.3,0H3.1C1.9,0,0.8,1,0.8,2.3v11.3c0,1.2,1,2.3,2.3,2.3
			h6.2c0.3,0,0.6-0.3,0.6-0.6C9.9,14.9,9.6,14.7,9.3,14.7L9.3,14.7z"/>
	</g>
</g>
<g>
	<path class="st0" d="M11.8,8.1c1.7,0,3.2,0.7,3.2,1.7c0,0.3-0.1,0.6-0.4,0.8c0.2,0.2,0.4,0.5,0.4,0.8c0,0.3-0.1,0.6-0.4,0.8
		c0.2,0.2,0.4,0.5,0.4,0.8c0,1-1.4,1.7-3.2,1.7s-3.2-0.7-3.2-1.7c0-0.3,0.1-0.6,0.4-0.8c-0.2-0.2-0.4-0.5-0.4-0.8
		c0-0.3,0.1-0.6,0.4-0.8c-0.2-0.2-0.4-0.5-0.4-0.8C8.7,8.8,10.1,8.1,11.8,8.1L11.8,8.1z M14,12.8L14,12.8c-0.6,0.3-1.3,0.5-2.2,0.5
		c-0.8,0-1.6-0.2-2.2-0.5c-0.1,0.1-0.2,0.3-0.2,0.4c0,0.5,1,1,2.4,1s2.4-0.5,2.4-1C14.2,13,14.2,12.9,14,12.8L14,12.8z M9.8,11.2
		c-0.1,0.1-0.2,0.3-0.2,0.4c0,0.5,1,1,2.2,1s2.2-0.5,2.2-1c0-0.1-0.1-0.3-0.2-0.4c-0.5,0.3-1.2,0.5-2,0.5
		C11,11.6,10.3,11.5,9.8,11.2L9.8,11.2z M11.8,8.8c-1.3,0-2.4,0.5-2.4,1.1c0,0.5,1.1,1.1,2.4,1.1s2.4-0.5,2.4-1.1
		C14.2,9.3,13.2,8.8,11.8,8.8L11.8,8.8z M11.8,8.7"/>
</g>
</svg>
