<?xml version="1.0" encoding="utf-8"?>
<!-- Generator: Adobe Illustrator 23.0.1, SVG Export Plug-In . SVG Version: 6.00 Build 0)  -->
<svg version="1.1" id="图层_1" xmlns="http://www.w3.org/2000/svg" xmlns:xlink="http://www.w3.org/1999/xlink" x="0px" y="0px"
	 viewBox="0 0 14 10" style="enable-background:new 0 0 14 10;" xml:space="preserve">
<path class="st0" d="M13.2,0.8L13.2,0.8c-0.4-0.4-1-0.3-1.4,0L5.5,7.2L2.2,4.1c-0.4-0.4-1-0.4-1.4,0C0.6,4.3,0.5,4.5,0.5,4.8
	s0.1,0.5,0.3,0.7l3.9,3.7l0.1,0.1C4.9,9.3,5,9.3,5,9.4l0.1,0.1c0.1,0,0.2,0.1,0.4,0.1c0.1,0,0.3,0,0.4-0.1L6,9.4
	c0,0,0.1-0.1,0.2-0.1l7.1-7.1c0.2-0.2,0.3-0.4,0.3-0.7C13.5,1.2,13.4,0.9,13.2,0.8z"/>
</svg>
