<?xml version="1.0" standalone="no"?><!DOCTYPE svg PUBLIC "-//W3C//DTD SVG 1.1//EN" "http://www.w3.org/Graphics/SVG/1.1/DTD/svg11.dtd"><svg t="1571638092427" class="icon" viewBox="0 0 1024 1024" version="1.1" xmlns="http://www.w3.org/2000/svg" p-id="18203" xmlns:xlink="http://www.w3.org/1999/xlink" width="200" height="200"><defs><style type="text/css"></style></defs><path d="M163.2 640.64c24.96 0 44.8-19.84 44.8-44.8V128c0-24.96-19.84-44.8-44.8-44.8s-44.8 19.84-44.8 44.8v467.84c0 24.96 19.84 44.8 44.8 44.8zM280.96 681.6H45.44c-24.96 0-44.8 19.84-44.8 44.8s19.84 44.8 44.8 44.8h72.96v133.12c0 24.96 19.84 44.8 44.8 44.8s44.8-19.84 44.8-44.8v-133.12h72.96c24.96 0 44.8-19.84 44.8-44.8s-19.84-44.8-44.8-44.8zM861.44 640.64c24.96 0 44.8-19.84 44.8-44.8V128c0-24.96-19.84-44.8-44.8-44.8s-44.8 19.84-44.8 44.8v467.84c0 24.96 19.84 44.8 44.8 44.8zM979.2 681.6h-235.52c-24.96 0-44.8 19.84-44.8 44.8s19.84 44.8 44.8 44.8h72.96v133.12c0 24.96 19.84 44.8 44.8 44.8s44.8-19.84 44.8-44.8v-133.12H979.2c24.96 0 44.8-19.84 44.8-44.8s-19.84-44.8-44.8-44.8zM512 391.68c-24.96 0-44.8 19.84-44.8 44.8v467.84c0 24.96 19.84 44.8 44.8 44.8s44.8-19.84 44.8-44.8V436.48c0-24.96-19.84-44.8-44.8-44.8zM630.4 261.12H556.8V128c0-24.96-19.84-44.8-44.8-44.8s-44.8 19.84-44.8 44.8v133.12H394.24c-24.96 0-44.8 19.84-44.8 44.8s19.84 44.8 44.8 44.8h235.52c24.96 0 44.8-19.84 44.8-44.8s-19.84-44.8-44.16-44.8z" p-id="18204"></path></svg>