<?xml version="1.0" encoding="utf-8"?>
<!-- Generator: Adobe Illustrator 23.0.1, SVG Export Plug-In . SVG Version: 6.00 Build 0)  -->
<svg version="1.1" id="图层_1" xmlns="http://www.w3.org/2000/svg" xmlns:xlink="http://www.w3.org/1999/xlink" x="0px" y="0px"
	 viewBox="0 0 16 16" enable-background="new 0 0 16 16" xml:space="preserve">
<g>
	<path d="M2.3,2.9h8.9c1.1,0,1.9,0.9,1.9,1.9v7h0.6c0.3,0,0.6-0.3,0.6-0.6V2.3c0-0.3-0.3-0.6-0.6-0.6H4.8
		c-0.3,0-0.6,0.3-0.6,0.6v0.6H2.9V2.3c0-1.1,0.9-1.9,1.9-1.9h8.9c1.1,0,1.9,0.9,1.9,1.9v8.9c0,1.1-0.9,1.9-1.9,1.9h-0.6v0.6
		c0,1.1-0.9,1.9-1.9,1.9H2.3c-1.1,0-1.9-0.9-1.9-1.9V4.8C0.3,3.8,1.2,2.9,2.3,2.9z M1.6,13.7c0,0.3,0.3,0.6,0.6,0.6h8.9
		c0.3,0,0.6-0.3,0.6-0.6V4.8c0-0.3-0.3-0.6-0.6-0.6H2.3c-0.3,0-0.6,0.3-0.6,0.6V13.7z"/>
	<path d="M4.2,8.6h1.9V6.7c0-0.4,0.3-0.6,0.6-0.6c0.4,0,0.6,0.3,0.6,0.6v1.9h1.9c0.4,0,0.6,0.3,0.6,0.6
		S9.6,9.9,9.3,9.9H7.4v1.9c0,0.4-0.3,0.6-0.6,0.6c-0.4,0-0.6-0.3-0.6-0.6V9.9H4.2c-0.4,0-0.6-0.3-0.6-0.6S3.8,8.6,4.2,8.6z"/>
</g>
</svg>
