<?xml version="1.0" encoding="utf-8"?>
<!-- Generator: Adobe Illustrator 24.0.0, SVG Export Plug-In . SVG Version: 6.00 Build 0)  -->
<svg version="1.1" id="图层_1" xmlns="http://www.w3.org/2000/svg" xmlns:xlink="http://www.w3.org/1999/xlink" x="0px" y="0px"
	 viewBox="0 0 40 40" style="enable-background:new 0 0 40 40;" xml:space="preserve">
<style type="text/css">
	.st0{fill-rule:evenodd;clip-rule:evenodd;}
	.st1{fill:#FFFFFF;}
</style>
<title>icon_mem01备份</title>
<g id="数据看板高保真">
	<g id="切图" transform="translate(-453.000000, -130.000000)">
		<g id="icon_mem01" transform="translate(453.000000, 130.000000)">
			<path id="矩形" class="st0" d="M20,0L20,0c11,0,20,9,20,20l0,0c0,11-9,20-20,20l0,0C9,40,0,31,0,20l0,0C0,9,9,0,20,0z"/>
			<g id="供应商" transform="translate(11.666667, 8.333333)">
				<path id="形状" class="st1" d="M8.5,0c2.6,0,4.8,2.1,4.8,4.8c0,2.6-2.1,4.8-4.8,4.8c-2.6,0-4.8-2.1-4.8-4.8
					C3.8,2.1,5.9,0,8.5,0z M17,19c-0.2,0.6-0.7,1-1.3,1H1.4c-0.6,0-1.1-0.4-1.3-1c0,0-0.1-0.2,0-0.8c0.3-3.8,3.1-6.8,6.8-7.6l1,1
					c-0.3,1.5-0.7,3.9-0.7,4.5c0,0.5,1,1.9,1.4,1.9c0.4,0,1.4-1.4,1.4-1.9c0-0.7-0.4-3-0.7-4.5l1-1c3.7,0.7,6.5,3.8,6.8,7.6
					C17.1,18.8,17,19,17,19L17,19z"/>
			</g>
		</g>
	</g>
</g>
</svg>
