<?xml version="1.0" encoding="utf-8"?>
<!-- Generator: Adobe Illustrator 24.0.0, SVG Export Plug-In . SVG Version: 6.00 Build 0)  -->
<svg version="1.1" id="图层_1" xmlns="http://www.w3.org/2000/svg" xmlns:xlink="http://www.w3.org/1999/xlink" x="0px" y="0px"
	 viewBox="0 0 40 40" style="enable-background:new 0 0 40 40;" xml:space="preserve">
<style type="text/css">
	.st0{fill-rule:evenodd;clip-rule:evenodd;}
	.st1{fill:#FFFFFF;}
</style>
<title>icon_rate01备份</title>
<g id="数据看板高保真">
	<g id="切图" transform="translate(-528.000000, -130.000000)">
		<g id="icon_rate01" transform="translate(528.000000, 130.000000)">
			<circle id="椭圆形" class="st0" cx="20" cy="20" r="20"/>
			<g id="百分号" transform="translate(11.666667, 12.500000)">
				<path id="形状" class="st1" d="M16.3,0.4c0.5,0.5,0.5,1.4,0,2L2.4,16.3c-0.5,0.5-1.4,0.5-2,0c-0.5-0.5-0.5-1.4,0-2L14.3,0.4
					C14.8-0.1,15.7-0.1,16.3,0.4L16.3,0.4z M13.1,10.4c1.5,0,2.7,1.2,2.7,2.7s-1.2,2.7-2.7,2.7s-2.7-1.2-2.7-2.7
					S11.6,10.4,13.1,10.4z M3.6,0.9c1.5,0,2.7,1.2,2.7,2.7S5.1,6.2,3.6,6.2S1,5,1,3.6S2.1,0.9,3.6,0.9z"/>
			</g>
		</g>
	</g>
</g>
</svg>
