<?xml version="1.0" encoding="utf-8"?>
<!-- Generator: Adobe Illustrator 24.0.0, SVG Export Plug-In . SVG Version: 6.00 Build 0)  -->
<svg version="1.1" id="图层_1" xmlns="http://www.w3.org/2000/svg" xmlns:xlink="http://www.w3.org/1999/xlink" x="0px" y="0px"
	 viewBox="0 0 40 40" style="enable-background:new 0 0 40 40;" xml:space="preserve">
<style type="text/css">
	.st0{fill-rule:evenodd;clip-rule:evenodd;}
</style>
<title>icon_money10备份</title>
<g id="数据看板高保真">
	<g id="切图" transform="translate(-523.000000, -44.000000)">
		<g id="icon_money10" transform="translate(523.000000, 44.000000)">
			<path id="形状结合" class="st0" d="M20,0c11,0,20,9,20,20s-9,20-20,20S0,31,0,20S9,0,20,0z M22.8,14.8h-5.7
				c0,0-4.4,2.9-6.8,8.7c-0.6,1.4-0.2,3.2,0.6,4.1c1.3,1.6,3,1.5,3.3,1.5l11.7,0c0.4,0,2.5-0.2,3.4-1.9c0.6-1,0.9-2.4-0.1-4.5
				C26.9,17.5,22.8,14.8,22.8,14.8z M18,18.2l1.7,2.8h0.6l1.7-2.8c0.2-0.3,0.6-0.4,0.9-0.2c0.3,0.2,0.4,0.6,0.2,0.8L21.7,21h1.4
				c0.4,0,0.6,0.2,0.6,0.6s-0.2,0.6-0.6,0.6h-2.5v1.2h2.5c0.4,0,0.6,0.2,0.6,0.6s-0.2,0.6-0.6,0.6h-2.5v1.9c0,0.4-0.2,0.6-0.6,0.6
				s-0.6-0.2-0.6-0.6v-1.9h-2.5c-0.4,0-0.6-0.2-0.6-0.6s0.2-0.6,0.6-0.6h2.5v-1.2h-2.5c-0.4,0-0.6-0.2-0.6-0.6s0.2-0.6,0.6-0.6h1.4
				l-1.3-2.2c-0.2-0.3-0.1-0.7,0.2-0.8C17.5,17.8,17.9,17.9,18,18.2z M23.5,9.2h-7.2c-0.9,0-0.9,0.7-0.8,1.1l0,0l1.4,3.3h6.2
				l1.4-3.2C24.5,10.1,24.6,9.2,23.5,9.2L23.5,9.2z"/>
		</g>
	</g>
</g>
</svg>
