<?xml version="1.0" encoding="utf-8"?>
<!-- Generator: Adobe Illustrator 24.0.0, SVG Export Plug-In . SVG Version: 6.00 Build 0)  -->
<svg version="1.1" id="图层_1" xmlns="http://www.w3.org/2000/svg" xmlns:xlink="http://www.w3.org/1999/xlink" x="0px" y="0px"
	 viewBox="0 0 40 40" style="enable-background:new 0 0 40 40;" xml:space="preserve">
<style type="text/css">
	.st0{fill-rule:evenodd;clip-rule:evenodd;}
</style>
<title>icon_money01备份</title>
<g id="数据看板高保真">
	<g id="切图" transform="translate(-378.000000, -44.000000)">
		<g id="icon_money01备份" transform="translate(378.000000, 44.000000)">
			<path id="形状结合" class="st0" d="M20,0c11,0,20,9,20,20s-9,20-20,20S0,31,0,20S9,0,20,0z M26.8,11.9
				c-0.6-0.4-1.4-0.3-1.9,0.2l0,0l-4.4,5.1l-4.4-5.1c-0.5-0.6-1.4-0.7-2-0.2l0,0L14,12.1c-0.5,0.5-0.5,1.4-0.1,1.9l0,0l4,4.8h-3.6
				c-0.8,0-1,0.7-1,1.5c0,0.4,0.2,1,1,1l0,0H19v2.6h-4.6c-0.8,0-1,0.5-1,1c0,1.2,0.5,1.5,1.3,1.5l0,0l4.4,0v3.6
				c0,0.8,0.7,1.6,1.5,1.6c0.8,0,1.5-0.8,1.5-1.6l0,0v-3.6l4.4,0c0.8,0,1.3-0.5,1.3-1c0-1.4-0.8-1.5-1-1.5l-4.6,0v-2.6h4.6
				c0.8,0,1-0.7,1-1.5c0-0.4-0.2-1-1-1l0,0h-3.6l4-4.8c0.5-0.6,0.4-1.5-0.2-2l0,0L26.8,11.9z"/>
		</g>
	</g>
</g>
</svg>
