<?xml version="1.0" encoding="utf-8"?>
<!-- Generator: Adobe Illustrator 24.0.0, SVG Export Plug-In . SVG Version: 6.00 Build 0)  -->
<svg version="1.1" id="图层_1" xmlns="http://www.w3.org/2000/svg" xmlns:xlink="http://www.w3.org/1999/xlink" x="0px" y="0px"
	 viewBox="0 0 40 40" style="enable-background:new 0 0 40 40;" xml:space="preserve">
<style type="text/css">
	.st0{fill-rule:evenodd;clip-rule:evenodd;}
	.st1{fill:#FFFFFF;}
</style>
<title>icon_task01备份</title>
<g id="数据看板高保真">
	<g id="切图" transform="translate(-678.000000, -130.000000)">
		<g id="icon_task01" transform="translate(678.000000, 130.000000)">
			<circle id="椭圆形" class="st0" cx="20" cy="20" r="20"/>
			<g id="任务" transform="translate(11.000000, 10.000000)">
				<path id="形状" class="st1" d="M17.4,3.3c-0.3-0.4-0.8-0.6-1.3-0.6h-1.7V0.9C14.4,0.4,14,0,13.6,0h-0.1
					c-0.5,0.1-0.8,0.4-0.8,0.9v1.8H5.5V0.9C5.5,0.4,5.1,0,4.6,0H4.5C4.1,0.1,3.7,0.5,3.7,0.9v1.8h-2c-0.5,0-0.9,0.2-1.2,0.6
					C0.2,3.6,0,4.1,0,4.7V18c0,0.5,0.2,1,0.5,1.4S1.3,20,1.8,20h14.4c0.5,0,0.9-0.2,1.3-0.6S18,18.5,18,18V4.6
					C17.9,4.1,17.7,3.6,17.4,3.3z M13.3,10.1l-4.7,4.7c-0.3,0.3-0.9,0.3-1.3,0l-2.2-2.2c-0.3-0.3-0.3-0.9,0-1.3s0.9-0.3,1.3,0
					l1.5,1.5L12,8.8c0.2-0.2,0.5-0.3,0.9-0.2c0.5,0.1,0.7,0.6,0.6,1.1C13.5,9.8,13.4,10,13.3,10.1L13.3,10.1z"/>
			</g>
		</g>
	</g>
</g>
</svg>
