<?xml version="1.0" encoding="utf-8"?>
<!-- Generator: Adobe Illustrator 24.0.0, SVG Export Plug-In . SVG Version: 6.00 Build 0)  -->
<svg version="1.1" id="图层_1" xmlns="http://www.w3.org/2000/svg" xmlns:xlink="http://www.w3.org/1999/xlink" x="0px" y="0px"
	 viewBox="0 0 40 40" style="enable-background:new 0 0 40 40;" xml:space="preserve">
<style type="text/css">
	.st0{fill-rule:evenodd;clip-rule:evenodd;}
	.st1{fill:#FFFFFF;}
</style>
<title>icon_product10备份</title>
<g id="数据看板高保真">
	<g id="切图" transform="translate(-603.000000, -44.000000)">
		<g id="icon_product10" transform="translate(603.000000, 44.000000)">
			<circle id="椭圆形" class="st0" cx="20" cy="20" r="20"/>
			<g id="采购" transform="translate(10.000000, 10.833333)">
				<path id="形状" class="st1" d="M18.9,8.9h-0.5l-2.5,8c0,0.6-0.4,1-1,1H5c-0.6,0-1-0.4-1-1l-2.5-8H1c-0.6,0-1-0.4-1-1
					s0.4-1,1-1h17.9c0.6,0,1,0.4,1,1S19.5,8.9,18.9,8.9L18.9,8.9z M7.5,9.9c0-0.3-0.2-0.5-0.5-0.5c-0.3,0-0.5,0.2-0.5,0.5v5.5
					c0,0.3,0.2,0.5,0.5,0.5c0.3,0,0.5-0.2,0.5-0.5V9.9L7.5,9.9z M10.5,9.9c0-0.3-0.2-0.5-0.5-0.5c-0.3,0-0.5,0.2-0.5,0.5v5.5
					c0,0.3,0.2,0.5,0.5,0.5c0.3,0,0.5-0.2,0.5-0.5V9.9z M13.4,9.9c0-0.3-0.2-0.5-0.5-0.5c-0.3,0-0.5,0.2-0.5,0.5v5.5
					c0,0.3,0.2,0.5,0.5,0.5c0.3,0,0.5-0.2,0.5-0.5V9.9z M15.4,6.2c-0.2,0.1-0.5,0.2-0.8,0.1c-0.3-0.1-0.5-0.2-0.6-0.5l-2.5-4.3
					c-0.2-0.3-0.2-0.7,0-1S12.1,0,12.4,0c0.4,0,0.7,0.2,0.9,0.5l2.5,4.3C15.9,5,16,5.3,15.9,5.6C15.8,5.8,15.7,6,15.4,6.2L15.4,6.2z
					 M5.8,5.8C5.6,6.3,5,6.4,4.5,6.2S3.8,5.3,4.1,4.8l2.5-4.3C6.9,0,7.5-0.1,8,0.2S8.6,1,8.3,1.5L5.8,5.8z"/>
			</g>
		</g>
	</g>
</g>
</svg>
