<?xml version="1.0" encoding="utf-8"?>
<!-- Generator: Adobe Illustrator 24.0.0, SVG Export Plug-In . SVG Version: 6.00 Build 0)  -->
<svg version="1.1" id="图层_1" xmlns="http://www.w3.org/2000/svg" xmlns:xlink="http://www.w3.org/1999/xlink" x="0px" y="0px"
	 viewBox="0 0 40 40" style="enable-background:new 0 0 40 40;" xml:space="preserve">
<style type="text/css">
	.st0{fill-rule:evenodd;clip-rule:evenodd;}
	.st1{fill:#FFFFFF;}
</style>
<title>icon_list01备份</title>
<g id="数据看板高保真">
	<g id="切图" transform="translate(-378.000000, -130.000000)">
		<g id="icon_list01" transform="translate(378.000000, 130.000000)">
			<path id="矩形" class="st0" d="M20,0L20,0c11,0,20,9,20,20l0,0c0,11-9,20-20,20l0,0C9,40,0,31,0,20l0,0C0,9,9,0,20,0z"/>
			<g id="订-单" transform="translate(11.666667, 10.000000)">
				<path id="形状" class="st1" d="M15.4,1.9h-3c-0.1-0.6-0.7-1.1-1.4-1.1H9.6C9.4,0.3,8.9,0,8.4,0c-0.5,0-1,0.3-1.2,0.8H5.8
					c-0.7,0-1.2,0.5-1.4,1.1h-3C0.6,1.9,0,2.5,0,3.3v15.3C0,19.3,0.6,20,1.4,20h14c0.8,0,1.4-0.6,1.4-1.4V3.3
					C16.9,2.5,16.2,1.9,15.4,1.9L15.4,1.9z M8.4,2.6c0.6,0,1.1,0.5,1.1,1.1c0,0.6-0.5,1.1-1.1,1.1c-0.6,0-1.1-0.5-1.1-1.1
					S7.8,2.6,8.4,2.6z M12.8,14.3c0,0.3-0.2,0.5-0.5,0.5H4.6c-0.3,0-0.5-0.2-0.5-0.5v-0.5c0-0.3,0.2-0.5,0.5-0.5h7.6
					c0.3,0,0.5,0.2,0.5,0.5V14.3L12.8,14.3z M12.8,9.5c0,0.3-0.2,0.5-0.5,0.5H4.6c-0.3,0-0.5-0.2-0.5-0.5V9c0-0.3,0.2-0.5,0.5-0.5
					h7.6c0.3,0,0.5,0.2,0.5,0.5V9.5L12.8,9.5z"/>
			</g>
		</g>
	</g>
</g>
</svg>
