<?xml version="1.0" encoding="utf-8"?>
<!-- Generator: Adobe Illustrator 24.0.0, SVG Export Plug-In . SVG Version: 6.00 Build 0)  -->
<svg version="1.1" id="图层_1" xmlns="http://www.w3.org/2000/svg" xmlns:xlink="http://www.w3.org/1999/xlink" x="0px" y="0px"
	 viewBox="0 0 40 40" style="enable-background:new 0 0 40 40;" xml:space="preserve">
<style type="text/css">
	.st0{fill-rule:evenodd;clip-rule:evenodd;}
	.st1{fill:#FFFFFF;}
</style>
<title>icon_business01备份</title>
<g id="数据看板高保真">
	<g id="切图" transform="translate(-603.000000, -130.000000)">
		<g id="icon_business01" transform="translate(603.000000, 130.000000)">
			<circle id="椭圆形" class="st0" cx="20" cy="20" r="20"/>
			<g id="商户" transform="translate(10.000000, 11.000000)">
				<path id="路径" class="st1" d="M18.5,4.3l-1.6-3.4C16.6,0.4,16.1,0,15.5,0H4C3.4,0,2.9,0.4,2.6,0.9L1.1,4.4L0.3,6.2
					c-0.3,0.7-0.4,1.6,0,2.3c0.6,1.2,1.8,2,3.2,2c1.2,0,2.2-0.6,2.9-1.5c0.2-0.2,0.5-0.2,0.7,0c0.6,0.9,1.7,1.5,2.9,1.5
					S12,10,12.7,9.1c0.2-0.2,0.5-0.2,0.7,0c0.6,0.9,1.7,1.5,2.9,1.5c1.4,0,2.6-0.8,3.2-2c0.3-0.7,0.3-1.6,0-2.3L18.5,4.3z"/>
				<path id="路径_1_" d="M13,10.1C13,10.1,13,10.1,13,10.1C13,10.1,13,10.1,13,10.1z"/>
				<path id="路径_2_" d="M13,10.1C13,10.1,13,10.1,13,10.1C13,10.1,13,10.1,13,10.1z"/>
				<path id="形状" class="st1" d="M16,11.7c-1.1,0-2-0.4-2.8-1c-0.2-0.1-0.4-0.1-0.6,0c-0.8,0.6-1.7,1-2.8,1s-2-0.4-2.8-1
					c-0.2-0.1-0.4-0.1-0.6,0c-0.8,0.6-1.7,1-2.8,1c-0.6,0-1.2-0.1-1.7-0.4v5.2c0,0.8,0.6,1.4,1.4,1.4h13c0.8,0,1.4-0.6,1.4-1.4v-5.2
					C17.2,11.5,16.6,11.7,16,11.7z M6.9,16.7c0,0.2-0.2,0.4-0.4,0.4H5.6c-0.2,0-0.4-0.2-0.4-0.4v-3.6c0-0.2,0.2-0.4,0.4-0.4h0.9
					c0.2,0,0.4,0.2,0.4,0.4V16.7L6.9,16.7z"/>
			</g>
		</g>
	</g>
</g>
</svg>
