<?xml version="1.0" encoding="utf-8"?>
<!-- Generator: Adobe Illustrator 24.0.0, SVG Export Plug-In . SVG Version: 6.00 Build 0)  -->
<svg version="1.1" id="图层_1" xmlns="http://www.w3.org/2000/svg" xmlns:xlink="http://www.w3.org/1999/xlink" x="0px" y="0px"
	 viewBox="0 0 40 40" style="enable-background:new 0 0 40 40;" xml:space="preserve">
<style type="text/css">
	.st0{fill-rule:evenodd;clip-rule:evenodd;}
</style>
<title>形状结合</title>
<g id="数据看板高保真">
	<g id="切图" transform="translate(-453.000000, -44.000000)">
		<g id="icon_product01" transform="translate(453.000000, 44.000000)">
			<path id="形状结合" class="st0" d="M20,0c11,0,20,9,20,20s-9,20-20,20S0,31,0,20S9,0,20,0z M12.5,13.2
				c-0.9,0-1.7,0.7-1.7,1.6v12.8c0,0.9,0.7,1.6,1.7,1.6h15c0.9,0,1.7-0.7,1.7-1.6V14.8c0-0.9-0.7-1.6-1.7-1.6h-3.3
				c0-2.2-1.9-4-4.2-4c-2.3,0-4.2,1.8-4.2,4H12.5z M15.8,21.9c0.3,0,0.6,0.2,0.7,0.4c0.7,1.2,2.1,2,3.6,2c1.5,0,2.9-0.8,3.6-2
				c0.2-0.3,0.4-0.4,0.7-0.4c0.3,0,0.6,0.1,0.7,0.4c0.1,0.2,0.1,0.6,0,0.8h0c-1,1.7-3,2.8-5.1,2.8c-2.1,0-4-1.1-5.1-2.8
				c-0.2-0.2-0.2-0.6,0-0.8C15.3,22.1,15.5,21.9,15.8,21.9z M20,10.8L20,10.8c1.4,0,2.5,1.1,2.5,2.4h-5C17.5,11.8,18.6,10.8,20,10.8
				z"/>
		</g>
	</g>
</g>
</svg>
