<?xml version="1.0" encoding="utf-8"?>
<!-- Generator: Adobe Illustrator 24.0.0, SVG Export Plug-In . SVG Version: 6.00 Build 0)  -->
<svg version="1.1" id="图层_1" xmlns="http://www.w3.org/2000/svg" xmlns:xlink="http://www.w3.org/1999/xlink" x="0px" y="0px"
	 viewBox="0 0 40 40" style="enable-background:new 0 0 40 40;" xml:space="preserve">
<style type="text/css">
	.st0{fill-rule:evenodd;clip-rule:evenodd;}
	.st1{fill:#FFFFFF;}
</style>
<title>icon_message01备份</title>
<g id="数据看板高保真">
	<g id="切图" transform="translate(-753.000000, -44.000000)">
		<g id="icon_message01备份" transform="translate(753.000000, 44.000000)">
			<g id="椭圆形-2">
				<circle id="椭圆形" class="st0" cx="20" cy="20" r="20"/>
			</g>
			<g id="形状-2" transform="translate(12.005008, 10.022536)">
				<path id="形状" class="st1" d="M10.1,1.8c0-1-0.8-1.8-1.8-1.8c-1,0-1.8,0.8-1.8,1.8c0,0.1,0,0.2,0,0.3
					C3.9,2.9,1.8,5.5,1.8,8.6v2.4c0,0,0,3.5-0.9,3.5C0.4,14.6,0,15,0,15.5s0.4,0.9,0.9,0.9h14.6c0.5,0,0.9-0.4,0.9-0.9
					c0-0.5-0.4-0.9-0.9-0.9c-0.9,0-0.9-3.5-0.9-3.5V8.6c0-3.1-1.9-5.7-4.6-6.6C10.1,2,10.1,1.9,10.1,1.8L10.1,1.8z M11,17.3
					c0,1.5-1.2,2.7-2.7,2.7c-1.5,0-2.7-1.2-2.7-2.7"/>
			</g>
		</g>
	</g>
</g>
</svg>
