<?xml version="1.0" encoding="utf-8"?>
<!-- Generator: Adobe Illustrator 24.0.0, SVG Export Plug-In . SVG Version: 6.00 Build 0)  -->
<svg version="1.1" id="图层_1" xmlns="http://www.w3.org/2000/svg" xmlns:xlink="http://www.w3.org/1999/xlink" x="0px" y="0px"
	 viewBox="0 0 40 40" style="enable-background:new 0 0 40 40;" xml:space="preserve">
<style type="text/css">
	.st0{fill-rule:evenodd;clip-rule:evenodd;}
	.st1{fill:#FFFFFF;}
</style>
<title>icon_message10备份</title>
<g id="数据看板高保真">
	<g id="切图" transform="translate(-678.000000, -44.000000)">
		<g id="icon_message10" transform="translate(678.000000, 44.000000)">
			<circle id="椭圆形" class="st0" cx="20" cy="20" r="20"/>
			<g id="信息-短信-私信-对话" transform="translate(10.000000, 10.000000)">
				<path id="形状" class="st1" d="M19.4,6.6C18,2.6,14.3-0.1,10.1,0C4.6-0.1,0.1,4.2,0,9.8C-0.1,15.3,4.2,19.9,9.7,20h5.8
					c0.5-0.1,0.9-0.4,0.9-0.9v-1.4C19.6,15,20.8,10.6,19.4,6.6z M5.4,11.7c-0.3,0.3-0.7,0.4-1.1,0.4c-0.4,0-0.8-0.2-1.1-0.4
					C3,11.4,2.8,11,2.8,10.6c0-0.8,0.7-1.5,1.5-1.5s1.5,0.7,1.5,1.5C5.8,11,5.7,11.4,5.4,11.7z M11.4,11.7c-0.3,0.3-0.7,0.4-1.1,0.4
					c-0.4,0-0.8-0.2-1.1-0.4C9,11.4,8.8,11,8.8,10.6c0-0.8,0.7-1.5,1.5-1.5c0.8,0,1.5,0.7,1.5,1.5C11.8,11,11.7,11.4,11.4,11.7z
					 M17.4,11.7c-0.3,0.3-0.7,0.4-1.1,0.4c-0.4,0-0.8-0.2-1.1-0.4c-0.3-0.3-0.4-0.7-0.4-1.1c0-0.8,0.7-1.5,1.5-1.5s1.5,0.7,1.5,1.5
					C17.8,11,17.7,11.4,17.4,11.7L17.4,11.7z"/>
			</g>
		</g>
	</g>
</g>
</svg>
