<svg id="图层_1" data-name="图层 1" xmlns="http://www.w3.org/2000/svg" viewBox="0 0 18 18"><title>数据-导航svg</title><g id="页面-1"><g id="分组-10"><path id="Fill-1" d="M5,10.71,8.5,6.84l3.41,3.74a.46.46,0,0,0,.08.13.68.68,0,0,0,1,0l3.91-4.3.13-.1a.88.88,0,0,0,0-1.14.7.7,0,0,0-1,0,.56.56,0,0,1-.05.08L12.51,9,9,5.21s0,0,0,0a.7.7,0,0,0-1,0l0,.08L4,9.6a.84.84,0,0,0,0,1.11A.68.68,0,0,0,5,10.71Zm12.39,4.18H1.29V2.59A.65.65,0,1,0,0,2.59v13a.65.65,0,0,0,.64.65H17.36a.65.65,0,0,0,0-1.3Z" fill-rule="evenodd"/></g></g></svg>