<?xml version="1.0" standalone="no"?><!DOCTYPE svg PUBLIC "-//W3C//DTD SVG 1.1//EN" "http://www.w3.org/Graphics/SVG/1.1/DTD/svg11.dtd">
<svg t="1577176619891" class="icon" viewBox="0 0 1024 1024" version="1.1" 
  xmlns="http://www.w3.org/2000/svg" p-id="1305" 
  xmlns:xlink="http://www.w3.org/1999/xlink" width="200" height="200">
  <defs>
    <style type="text/css"></style>
  </defs>
  <path d="M204.383 204.163v615.674c0 24.17 19.555 43.725 43.681 43.725h527.872a43.77 43.77 0 0 0 43.681-43.725V204.163a43.682 43.682 0 0 0-43.681-43.725H248.064a43.77 43.77 0 0 0-43.681 43.725z m-43.946 0c0-48.427 39.332-87.67 87.628-87.67h527.872c48.382 0 87.625 39.243 87.625 87.67v615.674a87.715 87.715 0 0 1-87.626 87.67H248.064a87.627 87.627 0 0 1-87.626-87.67V204.163z m175.782 110.083c0 11.777 9.845 21.972 21.973 21.972h307.616c11.865 0 21.973-9.843 21.973-21.972 0-11.777-9.845-21.972-21.973-21.972H358.192c-11.865 0-21.973 9.843-21.973 21.972z m0 175.782c0 11.777 9.845 21.972 21.973 21.972h307.616c11.865 0 21.973-9.844 21.973-21.972 0-11.778-9.845-21.973-21.973-21.973H358.192c-11.865 0-21.973 9.843-21.973 21.973z m0 175.78c0 11.778 9.845 21.974 21.973 21.974h307.616c11.865 0 21.973-9.845 21.973-21.973 0-11.778-9.845-21.973-21.973-21.973H358.192c-11.865 0-21.973 9.844-21.973 21.973z" p-id="1306"></path>
</svg>