<?xml version="1.0" encoding="utf-8"?>
<!-- Generator: Adobe Illustrator 23.0.1, SVG Export Plug-In . SVG Version: 6.00 Build 0)  -->
<svg version="1.1" id="图层_1" xmlns="http://www.w3.org/2000/svg" xmlns:xlink="http://www.w3.org/1999/xlink" x="0px" y="0px"
	 viewBox="0 0 10 10" enable-background="new 0 0 10 10" xml:space="preserve">
<g>
	<g>
		<path d="M0.6,5.7c0.1,0,0.2,0,0.3,0.1C1,5.9,1,6,1,6.1V8c0,0.2,0.2,0.4,0.4,0.4h7c0.2,0,0.4-0.2,0.4-0.4V6.1
			c0-0.2,0.1-0.3,0.2-0.4c0.1-0.1,0.3-0.1,0.4,0c0.1,0.1,0.2,0.2,0.2,0.4V8c0,0.7-0.6,1.3-1.3,1.3h-7C0.8,9.3,0.2,8.7,0.2,8V6.1
			C0.2,5.8,0.4,5.7,0.6,5.7L0.6,5.7z M0.6,5.7"/>
	</g>
	<path d="M3.2,1.1c0-0.2,0.2-0.4,0.4-0.4h2.6c0.1,0,0.2,0,0.3,0.1C6.7,0.9,6.7,1,6.7,1.1v2.5H8
		c0.2,0,0.3,0.1,0.4,0.3c0.1,0.2,0,0.4-0.1,0.5L5.3,7.1c-0.2,0.1-0.4,0.1-0.6,0l-3-2.7C1.5,4.3,1.5,4.1,1.5,3.9
		c0.1-0.2,0.2-0.3,0.4-0.3h1.3L3.2,1.1L3.2,1.1z M4.1,1.6v2.5c0,0.1,0,0.2-0.1,0.3C3.9,4.5,3.8,4.5,3.7,4.5H3.1L5,6.2l1.9-1.7H6.3
		c-0.1,0-0.2,0-0.3-0.1C5.9,4.3,5.9,4.2,5.9,4.1V1.6H4.1L4.1,1.6z M4.1,1.6"/>
</g>
</svg>
