<?xml version="1.0" encoding="utf-8"?>
<!-- Generator: Adobe Illustrator 23.0.1, SVG Export Plug-In . SVG Version: 6.00 Build 0)  -->
<svg version="1.1" id="图层_1" xmlns="http://www.w3.org/2000/svg" xmlns:xlink="http://www.w3.org/1999/xlink" x="0px" y="0px"
	 viewBox="0 0 26 26" enable-background="new 0 0 26 26" xml:space="preserve">
<g>
	<path d="M25.2,12.2l-3.1-3.8c-0.4-0.5-1.1-0.9-1.8-0.9L17,7.4l0-0.8l0,0c-0.1-1.2-1.1-2.1-2.3-2.1h-12C1.3,4.5,0.2,5.6,0.1,7
		l0,10.4c0,0.6,0.2,1.2,0.7,1.6c0.4,0.4,1,0.7,1.6,0.7h3.6c0.4,1.1,1.4,1.8,2.6,1.8c1.2,0,2.2-0.8,2.6-1.8h6.5
		c0.4,1.1,1.4,1.8,2.6,1.8c1.2,0,2.2-0.8,2.6-1.8h0.6c1.3,0,2.3-1,2.3-2.3v-3.2C25.9,13.4,25.6,12.7,25.2,12.2z M8.7,19.7
		c-0.6,0-1-0.5-1-1c0-0.6,0.5-1,1-1v0c0.6,0,1,0.5,1,1C9.7,19.3,9.2,19.7,8.7,19.7z M8.7,15.9c-1.3,0-2.3,0.8-2.7,2H2.4
		c-0.2,0-0.3-0.1-0.4-0.2c-0.1-0.1-0.2-0.3-0.2-0.4L1.9,7c0-0.4,0.3-0.7,0.7-0.7h12c0.3,0,0.5,0.2,0.6,0.5l0.1,1.1h0v10.1h-3.9
		C11,16.8,9.9,15.9,8.7,15.9z M20.4,19.7c-0.6,0-1-0.5-1-1c0-0.6,0.5-1,1-1v0c0.6,0,1,0.5,1,1C21.4,19.3,21,19.7,20.4,19.7z
		 M24.1,17.4c0,0.2-0.1,0.3-0.2,0.4c-0.1,0.1-0.3,0.2-0.4,0.2h-0.5c-0.3-1.1-1.4-2-2.7-2c-1.3,0-2.3,0.8-2.7,2H17V9.1l3.2,0.2
		c0.2,0,0.4,0.1,0.5,0.3l3.1,3.8c0.2,0.2,0.3,0.5,0.3,0.9V17.4z"/>
	<path d="M21.5,12.8h-1.7l-0.1-2.2c0-0.5-0.4-0.9-0.9-0.8c-0.5,0-0.9,0.4-0.8,0.9l0.1,2.4c0,0.8,0.7,1.5,1.5,1.5h1.9v0
		c0.5,0,0.9-0.4,0.9-0.9C22.4,13.2,22,12.8,21.5,12.8z"/>
</g>
</svg>
