<?xml version="1.0" standalone="no"?><!DOCTYPE svg PUBLIC "-//W3C//DTD SVG 1.1//EN" "http://www.w3.org/Graphics/SVG/1.1/DTD/svg11.dtd"><svg t="1569467548942" class="icon" viewBox="0 0 1024 1024" version="1.1" xmlns="http://www.w3.org/2000/svg" p-id="1868" xmlns:xlink="http://www.w3.org/1999/xlink" width="200" height="200"><defs><style type="text/css"></style></defs><path d="M511.995904 35.520512c-227.889152 0-412.63104 185.8048-412.63104 415.107072 0 114.59584 46.211072 218.345472 120.84224 293.500928l291.790848 236.156928 291.790848-236.156928a415.035392 415.035392 0 0 0 120.846336-293.500928c0-229.300224-184.745984-415.107072-412.639232-415.107072z m-146.495488 483.936256c33.951744-2.781184 63.455232-5.494784 88.502272-8.1408-1.114112 8.630272-1.66912 16.003072-1.66912 22.126592-49.54112 3.06176-86.624256 6.334464-111.255552 9.80992l-8.974336-22.542336c7.79264-5.009408 15.23712-12.107776 22.33344-21.291008 9.73824-12.382208 26.78784-36.528128 51.140608-72.429568-35.62496 0.557056-60.39552 1.878016-74.309632 3.966976l-6.887424-21.917696c6.262784-4.452352 12.869632-12.52352 19.828736-24.213504 22.960128-37.988352 45.01504-77.367296 66.168832-118.142976l24.004608 8.976384c-33.120256 55.803904-60.532736 100.263936-82.241536 133.380096 29.360128-0.835584 51.48672-1.529856 66.377728-2.086912 11.272192-17.534976 20.66432-32.630784 28.178432-45.295616l22.751232 10.645504c-31.307776 46.895104-65.957888 95.946752-103.948288 147.154944z m-40.28416 100.401152c46.475264-6.121472 90.517504-12.941312 132.128768-20.455424-0.557056 8.347648-0.835584 15.58528-0.835584 21.7088-46.20288 7.09632-88.225792 14.262272-126.07488 21.499904l-5.218304-22.75328z m161.767424-200.384512c-7.09632-6.957056-12.52352-11.966464-16.2816-15.028224 34.5088-42.440704 61.157376-88.08448 79.945728-136.92928l21.291008 6.053888c-7.51616 17.115136-13.780992 30.547968-18.788352 40.286208h148.82816v20.873216c-21.291008 41.05216-48.22016 75.143168-80.779264 102.279168 29.915136 21.571584 66.236416 37.781504 108.955648 48.635904-3.336192 5.844992-7.028736 13.221888-11.0592 22.126592-47.872-16.418816-86.208512-35.622912-115.011584-57.61024-33.95584 25.04704-78.000128 46.688256-132.128768 64.917504-2.086912-4.452352-5.707776-11.200512-10.8544-20.248576a18.50368 18.50368 0 0 0-1.04448-1.878016c47.450112-12.244992 89.614336-31.238144 126.490624-56.983552-23.375872-20.455424-43.487232-44.947456-60.32384-73.474048-11.411456 18.2272-24.492032 37.2224-39.23968 56.979456z m6.678528 190.574592l9.392128-20.455424c65.67936 18.925568 128.44032 37.707776 188.276736 56.358912l-10.016768 22.751232c-66.51904-22.409216-129.071104-41.957376-187.652096-58.65472z m185.145344-276.154368H542.9248c-0.69632 0.974848-1.599488 2.576384-2.711552 4.800512a112.431104 112.431104 0 0 1-1.671168 2.922496c17.256448 32.284672 38.9632 59.488256 65.124352 81.614848 31.444992-25.46688 56.49408-55.242752 75.14112-89.337856z m-137.551872 199.548928l8.976384-20.037632c43.276288 12.52352 85.159936 25.673728 125.65504 39.450624l-9.811968 21.7088c-40.214528-14.473216-81.823744-28.18048-124.819456-41.121792z" fill="#CE1D1C" p-id="1869"></path></svg>