<?xml version="1.0" encoding="utf-8"?>
<!-- Generator: Adobe Illustrator 23.0.1, SVG Export Plug-In . SVG Version: 6.00 Build 0)  -->
<svg version="1.1" id="图层_1" xmlns="http://www.w3.org/2000/svg" xmlns:xlink="http://www.w3.org/1999/xlink" x="0px" y="0px"
	 viewBox="0 0 18 18" enable-background="new 0 0 18 18" xml:space="preserve">
<g>
	<path d="M9,17.5c-0.3,0-0.7-0.1-0.9-0.4L6,15.1H2.4c-0.7,0-1.3-0.2-1.7-0.7C0.3,14,0,13.3,0,12.7V3
		c0-0.7,0.2-1.3,0.7-1.8c0.4-0.5,1.1-0.7,1.7-0.7h13.1c0.7,0,1.3,0.3,1.7,0.7C17.7,1.7,18,2.3,18,3v9.6c0,0.7-0.2,1.3-0.7,1.7
		c-0.4,0.4-1.1,0.7-1.7,0.7H12l-2.1,2C9.7,17.4,9.4,17.5,9,17.5L9,17.5z M2.4,1.8C1.8,1.8,1.3,2.3,1.3,3v9.6c0,0.7,0.4,1.2,1.2,1.2
		h3.8c0.2,0,0.3,0.1,0.4,0.2L9,16.2c0,0,0,0,0,0h0c0,0,0,0,0,0l2.3-2.2c0.1-0.1,0.3-0.2,0.4-0.2h3.8c0.7,0,1.2-0.4,1.2-1.2V3
		c0-0.8-0.5-1.3-1.2-1.3H2.4z M4.9,7C4.3,7,3.8,7.4,3.8,8.1c0,0.6,0.5,1.1,1.1,1.1C5.5,9.2,6,8.7,6,8.1C6,7.4,5.5,7,4.9,7L4.9,7z
		 M8.8,7C8.2,7,7.7,7.4,7.7,8.1c0,0.6,0.5,1.1,1.1,1.1c0.6,0,1.1-0.5,1.1-1.1C9.9,7.4,9.4,7,8.8,7L8.8,7z M7.7,8.1v0.3V8.1z
		 M12.7,6.9c-0.6,0-1.1,0.5-1.1,1.1c0,0.6,0.5,1.1,1.1,1.1c0.6,0,1.1-0.5,1.1-1.1C13.8,7.4,13.3,6.9,12.7,6.9L12.7,6.9z M12.7,6.9"
		/>
</g>
</svg>
