<?xml version="1.0" encoding="utf-8"?>
<!-- Generator: Adobe Illustrator 23.0.1, SVG Export Plug-In . SVG Version: 6.00 Build 0)  -->
<svg version="1.1" id="图层_1" xmlns="http://www.w3.org/2000/svg" xmlns:xlink="http://www.w3.org/1999/xlink" x="0px" y="0px"
	 viewBox="0 0 14 14" style="enable-background:new 0 0 14 14;" xml:space="preserve">
<g id="页面-1">
	<g id="导入功能-copy-53" transform="translate(-162.000000, -201.000000)">
		<g id="分组" transform="translate(162.000000, 201.000000)">
			<defs>
				<filter id="Adobe_OpacityMaskFilter" filterUnits="userSpaceOnUse" x="0" y="0" width="11" height="11">
					<feColorMatrix  type="matrix" values="1 0 0 0 0  0 1 0 0 0  0 0 1 0 0  0 0 0 1 0"/>
				</filter>
			</defs>
			<mask maskUnits="userSpaceOnUse" x="0" y="0" width="11" height="11" id="mask-2_1_">
				<g class="st0">
					<polygon id="path-1_1_" class="st1" points="0,0 11,0 11,11 0,11 					"/>
				</g>
			</mask>
			<path id="Fill-1" class="st2" d="M6.5,5.5l4.3-4.3c0.3-0.3,0.3-0.7,0-1c-0.3-0.3-0.7-0.3-1,0L5.5,4.5L1.2,0.2
				c-0.3-0.3-0.7-0.3-1,0s-0.3,0.7,0,1l4.3,4.3L0.2,9.8c-0.3,0.3-0.3,0.7,0,1c0.3,0.3,0.7,0.3,1,0l4.3-4.3l4.3,4.3
				c0.3,0.3,0.7,0.3,1,0c0.3-0.3,0.3-0.7,0-1L6.5,5.5z"/>
		</g>
	</g>
</g>
</svg>
