<?xml version="1.0" encoding="utf-8"?>
<!-- Generator: Adobe Illustrator 23.0.1, SVG Export Plug-In . SVG Version: 6.00 Build 0)  -->
<svg version="1.1" id="图层_1" xmlns="http://www.w3.org/2000/svg" xmlns:xlink="http://www.w3.org/1999/xlink" x="0px" y="0px"
	 viewBox="0 0 20 20" style="enable-background:new 0 0 20 20;" xml:space="preserve">
<style type="text/css">
	.st0{fill:#56A3F2;}
</style>
<g>
	<path class="st0" d="M17.4,1.9h-4.3c-0.8,0-1.4,0.6-1.4,1.4v13.4c0,0.8,0.6,1.4,1.4,1.4h4.3c0.8,0,1.4-0.6,1.4-1.4V3.3
		C18.8,2.5,18.2,1.9,17.4,1.9z M17.4,15.9c0,0.4-0.3,0.7-0.7,0.7h-2.8c-0.4,0-0.7-0.3-0.7-0.7V4.1c0-0.4,0.3-0.7,0.7-0.7h2.8
		c0.4,0,0.7,0.3,0.7,0.7V15.9z"/>
	<path class="st0" d="M8.3,3.3c0-0.8-0.6-1.4-1.4-1.4H2.6c-0.8,0-1.4,0.6-1.4,1.4v13.4c0,0.8,0.6,1.4,1.4,1.4h4.3
		c0.8,0,1.4-0.6,1.4-1.4V3.3z M6.8,15.9c0,0.4-0.3,0.7-0.7,0.7H3.3c-0.4,0-0.7-0.3-0.7-0.7V4.1c0-0.2,0.1-0.4,0.2-0.5
		s0.3-0.2,0.5-0.2h2.8c0.4,0,0.7,0.3,0.7,0.7V15.9z"/>
	<path class="st0" d="M11.1,18.4h-0.3V1.6h0.3c0.5,0,0.7-0.2,0.7-0.7c0-0.5-0.2-0.7-0.7-0.7h-0.3H9.3H9c-0.5,0-0.7,0.2-0.7,0.7
		c0,0.5,0.2,0.7,0.7,0.7h0.2v16.8H9c-0.5,0-0.7,0.2-0.7,0.7c0,0.5,0.2,0.7,0.7,0.7h0.2h1.5h0.3c0.5,0,0.7-0.2,0.7-0.7
		C11.8,18.6,11.6,18.4,11.1,18.4z"/>
</g>
</svg>
