<?xml version="1.0" standalone="no"?><!DOCTYPE svg PUBLIC "-//W3C//DTD SVG 1.1//EN" "http://www.w3.org/Graphics/SVG/1.1/DTD/svg11.dtd"><svg t="1588044072887" class="icon" viewBox="0 0 1024 1024" version="1.1" xmlns="http://www.w3.org/2000/svg" p-id="1460" xmlns:xlink="http://www.w3.org/1999/xlink" width="200" height="200"><defs><style type="text/css"></style></defs><path d="M512 512m-512 0a512 512 0 1 0 1024 0 512 512 0 1 0-1024 0Z" fill="#FFFFFF" p-id="1461"></path><path d="M115.2 835.84C43.52 747.52 0 634.88 0 512 0 229.12 229.12 0 512 0s512 229.12 512 512c0 124.16-43.52 236.8-116.48 325.12-70.4-93.44-171.52-160-286.72-185.6 88.32-40.96 149.76-130.56 149.76-231.68 0-139.52-115.2-256-256-256s-256 115.2-256 256c0 101.12 60.16 189.44 147.2 230.4-116.48 24.32-218.88 90.88-290.56 185.6z" fill="#F2F2F6" p-id="1462"></path><path d="M515.84 355.84c26.88 0 49.92 7.68 66.56 21.76 16.64 14.08 25.6 34.56 25.6 60.16 0 20.48-5.12 38.4-15.36 51.2-3.84 3.84-15.36 15.36-35.84 33.28-7.68 6.4-12.8 12.8-16.64 20.48-3.84 8.96-6.4 16.64-6.4 26.88v6.4h-48.64v-6.4c0-15.36 2.56-29.44 8.96-40.96 5.12-11.52 21.76-29.44 48.64-53.76l5.12-6.4c7.68-8.96 11.52-19.2 11.52-29.44 0-14.08-3.84-24.32-11.52-33.28-7.68-7.68-19.2-11.52-33.28-11.52-17.92 0-32 5.12-39.68 16.64-7.68 10.24-10.24 23.04-10.24 40.96h-47.36c0-30.72 8.96-55.04 26.88-72.96 16.64-14.08 40.96-23.04 71.68-23.04z m-7.68 241.92c8.96 0 16.64 2.56 23.04 8.96 6.4 6.4 8.96 12.8 8.96 23.04 0 8.96-3.84 16.64-10.24 23.04s-14.08 8.96-23.04 8.96-16.64-3.84-23.04-8.96-8.96-12.8-8.96-23.04c0-8.96 2.56-16.64 8.96-23.04 7.68-5.12 15.36-8.96 24.32-8.96zM512 1024v-12.8c21.76 0 42.24-1.28 62.72-3.84l1.28 12.8c-20.48 2.56-42.24 3.84-64 3.84z m128-16.64l-3.84-12.8c20.48-5.12 40.96-11.52 60.16-19.2l5.12 11.52c-19.2 8.96-39.68 15.36-61.44 20.48z m120.32-47.36l-5.12-11.52c17.92-10.24 35.84-21.76 53.76-34.56l7.68 10.24c-19.2 12.8-37.12 24.32-56.32 35.84z m104.96-76.8l-8.96-8.96c15.36-14.08 29.44-29.44 43.52-46.08l10.24 7.68c-15.36 16.64-29.44 32-44.8 47.36z m81.92-101.12l-10.24-6.4a384 384 0 0 0 29.44-55.04l11.52 5.12c-8.96 19.2-19.2 38.4-30.72 56.32z m53.76-117.76l-12.8-3.84c6.4-20.48 11.52-40.96 15.36-61.44l12.8 2.56c-3.84 21.76-8.96 42.24-15.36 62.72zM1024 537.6h-12.8v-24.32c0-12.8 0-25.6-1.28-38.4l12.8-1.28c1.28 12.8 1.28 25.6 1.28 39.68V537.6z m-10.24-129.28l-12.8 2.56c-3.84-20.48-10.24-40.96-16.64-61.44l11.52-3.84c7.68 20.48 12.8 40.96 17.92 62.72z m-42.24-122.88l-11.52 6.4c-8.96-19.2-20.48-37.12-32-55.04l10.24-7.68c12.8 17.92 23.04 37.12 33.28 56.32z m-71.68-107.52l-10.24 8.96c-14.08-15.36-28.16-30.72-44.8-44.8l8.96-8.96c16.64 12.8 32 28.16 46.08 44.8z m-96-87.04l-7.68 10.24C778.24 89.6 760.32 78.08 742.4 69.12l6.4-11.52c17.92 10.24 37.12 20.48 55.04 33.28z m-115.2-60.16l-3.84 11.52c-19.2-7.68-39.68-12.8-60.16-17.92l2.56-12.8c19.2 6.4 40.96 11.52 61.44 19.2zM563.2 2.56l-1.28 12.8C545.28 14.08 528.64 12.8 512 12.8h-14.08V0H512c16.64 0 34.56 1.28 51.2 2.56zM433.92 6.4l2.56 12.8c-20.48 3.84-40.96 7.68-61.44 14.08l-3.84-12.8c19.2-6.4 40.96-11.52 62.72-14.08z m-125.44 35.84l5.12 11.52c-19.2 8.96-38.4 17.92-56.32 28.16l-6.4-11.52c19.2-10.24 38.4-20.48 57.6-28.16z m-111.36 65.28l7.68 10.24c-16.64 12.8-32 26.88-47.36 42.24l-8.96-8.96c15.36-15.36 32-29.44 48.64-43.52z m-90.88 92.16l10.24 7.68c-12.8 16.64-24.32 34.56-35.84 52.48l-11.52-6.4c11.52-17.92 24.32-35.84 37.12-53.76z m-66.56 112.64l11.52 5.12c-7.68 19.2-15.36 39.68-20.48 60.16l-12.8-3.84c6.4-20.48 14.08-40.96 21.76-61.44zM5.12 436.48l12.8 1.28c-2.56 20.48-5.12 42.24-5.12 62.72H0c0-21.76 2.56-43.52 5.12-64zM2.56 565.76l12.8-1.28c2.56 20.48 5.12 42.24 10.24 62.72l-12.8 2.56c-3.84-21.76-7.68-42.24-10.24-64zM32 691.2l11.52-5.12c7.68 19.2 16.64 38.4 25.6 57.6l-11.52 6.4c-8.96-17.92-17.92-38.4-25.6-58.88z m61.44 115.2l10.24-7.68c11.52 16.64 25.6 33.28 39.68 49.92l-8.96 8.96c-15.36-16.64-29.44-33.28-40.96-51.2z m87.04 96l7.68-10.24c16.64 14.08 33.28 26.88 51.2 38.4l-6.4 10.24c-19.2-11.52-35.84-24.32-52.48-38.4z m108.8 70.4l5.12-11.52c19.2 8.96 38.4 16.64 58.88 24.32l-3.84 11.52c-20.48-6.4-40.96-14.08-60.16-24.32z m121.6 40.96l2.56-12.8c20.48 3.84 40.96 6.4 62.72 8.96l-1.28 12.8c-21.76-1.28-43.52-3.84-64-8.96z" fill="#DDDCE2" p-id="1463"></path></svg>