<?xml version="1.0" encoding="utf-8"?>
<!-- Generator: Adobe Illustrator 18.1.1, SVG Export Plug-In . SVG Version: 6.00 Build 0)  -->
<svg version="1.1" id="图层_1" xmlns="http://www.w3.org/2000/svg" xmlns:xlink="http://www.w3.org/1999/xlink" x="0px" y="0px"
	 viewBox="0 0 841.9 595.3" enable-background="new 0 0 841.9 595.3" xml:space="preserve">
<g>
	<path fill="#FFDE59" d="M148.8,316l87.5-102.9l128.3,78.7l-70,99.9L148.8,316z M148.8,316"/>
	<path fill="#FFDE59" d="M236.3,213.1l35,145.3l61.2-84.8L236.3,213.1z M236.3,213.1"/>
	<path fill="#FFDE59" d="M81.1,254.9l104.4,287.3c4.9,13.4,16.1,22.1,28.6,22.1h207.4V138.9c0-5.4-3-10.1-7.4-11.6
		c-4.4-1.5-9.1,0.5-11.6,5L281.8,348.9c-3,5.4-9,7.1-13.8,3.9L95.7,239.6c-3.9-2.5-8.7-1.9-12,1.5C80.5,244.6,79.4,250.1,81.1,254.9
		L81.1,254.9z M81.1,254.9"/>
	<path fill="#FFDE59" d="M720.4,316l-87.5-102.9l-128.3,78.7l70,99.9L720.4,316z M720.4,316"/>
	<path fill="#FFDE59" d="M632.9,213.1l-35,145.3l-61.2-84.8L632.9,213.1z M632.9,213.1"/>
	<path fill="#FFF192" d="M762.1,254.9L657.6,542.2c-4.9,13.4-16.1,22.1-28.6,22.1H421.6V138.9c0-5.4,3-10.1,7.4-11.6
		c4.4-1.5,9.1,0.5,11.6,5l120.7,216.7c3,5.4,9,7.1,13.8,3.9l172.3-113.3c3.9-2.5,8.7-1.9,12,1.5
		C762.7,244.6,763.8,250.1,762.1,254.9L762.1,254.9z M762.1,254.9"/>
	<path fill="#FCCF3E" d="M421.6,425l210,139.3h-420L421.6,425z M421.6,425"/>
	<path fill="#FFFFFF" d="M417.9,533.2L254.3,303.9h96.8l-7.7,21.6l74.4,106.3l74.4-105.8l-7.7-21.6h96.8L417.9,533.2z M417.9,533.2"
		/>
	<path fill="#FFDE59" d="M80.2,278.9c-18.8,0-36.1-10.4-45.5-27.2c-9.4-16.9-9.4-37.6,0-54.5c9.4-16.9,26.7-27.2,45.5-27.2
		c29,0,52.5,24.4,52.5,54.5C132.7,254.5,109.2,278.8,80.2,278.9L80.2,278.9z"/>
	<path fill="#FFDE59" d="M761.7,273.7c-18.8,0-36.1-10.4-45.5-27.2c-9.4-16.9-9.4-37.6,0-54.5c9.4-16.9,26.7-27.2,45.5-27.2
		c29,0,52.5,24.4,52.5,54.5S790.7,273.7,761.7,273.7L761.7,273.7z"/>
	<path fill="#FFDE59" d="M421.6,140.4c-18.8,0-36.1-10.4-45.5-27.2c-9.4-16.9-9.4-37.6,0-54.5c9.4-16.9,26.7-27.2,45.5-27.2
		c29,0,52.5,24.4,52.5,54.5C474.1,116,450.6,140.4,421.6,140.4L421.6,140.4z"/>
	<path fill="#FFDE59" d="M417.6,140.4"/>
</g>
</svg>
