<?xml version="1.0" encoding="utf-8"?>
<!-- Generator: Adobe Illustrator 23.0.1, SVG Export Plug-In . SVG Version: 6.00 Build 0)  -->
<svg version="1.1" id="图层_1" xmlns="http://www.w3.org/2000/svg" xmlns:xlink="http://www.w3.org/1999/xlink" x="0px" y="0px"
	 viewBox="0 0 16 16.6" style="enable-background:new 0 0 16 16.6;" xml:space="preserve">
<style type="text/css">
	.st0{fill:#4D5972;}
	.st1{opacity:0.7;fill:#4D5972;}
	.st2{opacity:0.3;fill:#4D5972;}
	.st3{opacity:0.5;fill:#4D5972;}
	.st4{opacity:0.4;fill:#4D5972;}
	.st5{opacity:0.8;fill:#4D5972;}
	.st6{opacity:0.6;fill:#4D5972;}
	.st7{opacity:0.2;fill:#4D5972;}
</style>
<g>
	<g>
		<path class="st0" d="M8,0.5c0.7,0,1,0.3,1,1v2.9c0,0.7-0.3,1-1,1c-0.7,0-1-0.3-1-1V1.5C7.1,0.8,7.4,0.5,8,0.5L8,0.5z M8,0.5"/>
		<path class="st1" d="M1.2,7.3h2.9c0.7,0,1,0.3,1,1c0,0.7-0.3,1-1,1H1.2c-0.7,0-1-0.3-1-1C0.2,7.7,0.5,7.3,1.2,7.3L1.2,7.3z
			 M1.2,7.3"/>
	</g>
	<path class="st2" d="M12,7.3h2.9c0.7,0,1,0.3,1,1c0,0.7-0.3,1-1,1H12c-0.7,0-1-0.3-1-1C11,7.7,11.3,7.3,12,7.3L12,7.3z M12,7.3"/>
	<path class="st3" d="M8,11.3c0.7,0,1,0.3,1,1v2.9c0,0.7-0.3,1-1,1c-0.7,0-1-0.3-1-1v-2.9C7.1,11.6,7.4,11.3,8,11.3L8,11.3z M8,11.3
		"/>
	<path class="st4" d="M10.7,11c0.4-0.4,1-0.4,1.4,0l2.1,2.1c0.4,0.4,0.4,1,0,1.4c-0.4,0.4-1,0.4-1.4,0l-2.1-2.1
		C10.3,12,10.3,11.3,10.7,11L10.7,11z M10.7,11"/>
	<path class="st5" d="M1.9,2.2c0.4-0.4,1-0.4,1.4,0l2.1,2.1c0.4,0.4,0.4,1,0,1.4C5,6,4.3,6,4,5.6L1.9,3.5C1.5,3.2,1.5,2.5,1.9,2.2
		L1.9,2.2z M1.9,2.2"/>
	<path class="st6" d="M5.3,11c0.4,0.4,0.4,1,0,1.4l-2.1,2.1c-0.2,0.3-0.6,0.4-1,0.3C2,14.6,1.7,14.3,1.6,14c-0.1-0.3,0-0.7,0.3-1
		L4,11C4.3,10.6,5,10.6,5.3,11L5.3,11z M5.3,11"/>
	<path class="st7" d="M14.3,2.2c-0.4-0.4-1-0.4-1.4,0l-2.1,2.1c-0.4,0.4-0.4,1,0,1.4c0.4,0.4,1,0.4,1.4,0l2.1-2.1
		C14.6,3.2,14.6,2.6,14.3,2.2L14.3,2.2z M14.3,2.2"/>
</g>
</svg>
