<?xml version="1.0" encoding="utf-8"?>
<!-- Generator: Adobe Illustrator 23.0.1, SVG Export Plug-In . SVG Version: 6.00 Build 0)  -->
<svg version="1.1" id="图层_1" xmlns="http://www.w3.org/2000/svg" xmlns:xlink="http://www.w3.org/1999/xlink" x="0px" y="0px"
	 viewBox="0 0 28 28" enable-background="new 0 0 28 28" xml:space="preserve">
<g>
	<g>
		<defs>
			<rect id="SVGID_1_" x="1.9" y="0.2" width="24.2" height="27.6"/>
		</defs>
		<clipPath id="SVGID_2_">
			<use xlink:href="#SVGID_1_"  overflow="visible"/>
		</clipPath>
		<path clip-path="url(#SVGID_2_)" fill="#FFFFFF" d="M14,2l10.4,6v12L14,26L3.6,20V8L14,2 M14,0.2c-0.2,0-0.4,0.1-0.6,0.2L2.5,6.7
			C2.1,6.9,1.9,7.3,1.9,7.8v12.5c0,0.5,0.2,0.9,0.6,1.1l10.8,6.2c0.4,0.2,0.9,0.2,1.3,0l10.8-6.2c0.4-0.2,0.6-0.6,0.6-1.1V7.8
			c0-0.5-0.2-0.9-0.6-1.1L14.6,0.4C14.4,0.3,14.2,0.2,14,0.2L14,0.2z M14,0.2"/>
	</g>
	<path fill="#FFFFFF" d="M21.8,9.7L15,14.9v7.4c0,0.5-0.4,1-1,1c-0.5,0-1-0.4-1-1v-7.3l-6.8-4.5C5.8,10,5.7,9.5,5.9,9
		c0.3-0.4,0.9-0.6,1.3-0.3l6.7,4.4l6.7-5c0.3-0.2,0.7-0.3,1-0.1c0.3,0.1,0.6,0.4,0.6,0.8C22.3,9.2,22.1,9.5,21.8,9.7L21.8,9.7z
		 M21.8,9.7"/>
</g>
</svg>
