<?xml version="1.0" encoding="utf-8"?>
<!-- Generator: Adobe Illustrator 23.0.1, SVG Export Plug-In . SVG Version: 6.00 Build 0)  -->
<svg version="1.1" id="图层_1" xmlns="http://www.w3.org/2000/svg" xmlns:xlink="http://www.w3.org/1999/xlink" x="0px" y="0px"
	 viewBox="0 0 16 16" style="enable-background:new 0 0 16 16;" xml:space="preserve">
<path class="st0" d="M15.7,5.4L12,1.6l0,0L11.3,1l-0.8-0.8L9.7,0.9l0.7,0.7L6.9,5.2c0,0-0.1,0-0.1,0L1.4,6L0.7,6.8l3.6,3.6
	c0.1,0.1,0.1,0.2,0,0.2l-3.6,3.6L1.4,15l3.6-3.6c0.1-0.1,0.2-0.1,0.2,0L8.9,15l0.7-0.7l-3.7-3.7l0,0L5.2,9.8l0,0L2.6,7.2
	c-0.1-0.1,0-0.2,0.1-0.3l4.8-0.8c0,0,0.1,0,0.1,0l3.6-3.6c0.1-0.1,0.2-0.1,0.2,0l2,2c0.1,0.1,0.1,0.2,0,0.2L9.8,8.3c0,0,0,0.1,0,0.1
	l-0.9,4.9c0,0.1,0,0.1,0,0.1l0.8,0.8l0.8-5.1c0,0,0-0.1,0-0.1l3.7-3.7L15,6.1L15.7,5.4z"/>
</svg>
