<?xml version="1.0" encoding="utf-8"?>
<!-- Generator: Adobe Illustrator 18.1.1, SVG Export Plug-In . SVG Version: 6.00 Build 0)  -->
<svg version="1.1" id="图层_1" xmlns="http://www.w3.org/2000/svg" xmlns:xlink="http://www.w3.org/1999/xlink" x="0px" y="0px"
	 viewBox="0 0 180.7 148.6" enable-background="new 0 0 180.7 148.6" xml:space="preserve">
<g>
	<linearGradient id="SVGID_1_" gradientUnits="userSpaceOnUse" x1="119.3154" y1="103.8082" x2="119.3154" y2="103.8082">
		<stop  offset="0" style="stop-color:#F1BA1D"/>
		<stop  offset="1" style="stop-color:#F59722"/>
	</linearGradient>
	<path fill="url(#SVGID_1_)" d="M119.3,103.8"/>
	<linearGradient id="SVGID_2_" gradientUnits="userSpaceOnUse" x1="85.6544" y1="74.2882" x2="180.6956" y2="74.2882">
		<stop  offset="0" style="stop-color:#F1BA1D"/>
		<stop  offset="1" style="stop-color:#F59722"/>
	</linearGradient>
	<path fill="url(#SVGID_2_)" d="M176,74.3l-62.9-62.9C106.8,5.1,94.5,0,85.7,0l81.9,81.9c2.1,2.1,2.1,5.5,0,7.6l-57.3,57.3
		c6.1,3.2,13.8,2.3,18.9-2.8L176,97C182.3,90.8,182.3,80.5,176,74.3L176,74.3z M176,74.3"/>
	<linearGradient id="SVGID_3_" gradientUnits="userSpaceOnUse" x1="-7.617320e-006" y1="74.2878" x2="148.5756" y2="74.2878">
		<stop  offset="0" style="stop-color:#F1BA1D"/>
		<stop  offset="1" style="stop-color:#F59722"/>
	</linearGradient>
	<path fill="url(#SVGID_3_)" d="M143.9,74.3L80.9,11.4C74.7,5.1,62.4,0,53.5,0H16.1C7.2,0,0,7.2,0,16.1v37.5
		c0,8.8,5.1,21.2,11.4,27.4l62.9,62.9c6.2,6.2,16.5,6.2,22.7,0L143.9,97C150.1,90.8,150.1,80.5,143.9,74.3L143.9,74.3z M28.1,40.8
		c-7.5,0-13.6-6.1-13.6-13.6c0-7.5,6.1-13.6,13.6-13.6c7.5,0,13.6,6.1,13.6,13.6C41.7,34.7,35.6,40.8,28.1,40.8L28.1,40.8z
		 M48.4,63.5c0-4.2,1.1-7.5,3.4-10c2.2-2.5,5.3-3.7,9.1-3.7c3.6,0,6.5,1.1,8.5,3.4c2,2.3,3.1,5.5,3.1,9.5c0,4-1.1,7.3-3.4,9.9
		c-2.3,2.5-5.3,3.8-9,3.8c-3.5,0-6.4-1.2-8.5-3.5C49.4,70.5,48.4,67.4,48.4,63.5z M53.5,63.2c0,2.9,0.6,5.1,1.9,6.6
		c1.2,1.5,2.9,2.3,5.1,2.3c2.2,0,3.9-0.8,5.1-2.4c1.2-1.6,1.8-3.9,1.8-6.8c0-2.9-0.6-5.1-1.8-6.6c-1.2-1.6-2.8-2.3-5-2.3
		c-2.2,0-3.9,0.8-5.2,2.4C54.1,58,53.5,60.3,53.5,63.2z M94.8,50.5l-33,51.7h-5.5l33-51.7H94.8z M79.2,89.9c0-4.2,1.1-7.6,3.4-10.1
		c2.2-2.5,5.3-3.8,9-3.8c3.6,0,6.5,1.1,8.5,3.4c2.1,2.3,3.1,5.5,3.1,9.7c0,4-1.1,7.3-3.4,9.8c-2.3,2.5-5.3,3.8-8.9,3.8
		c-3.6,0-6.4-1.2-8.5-3.6C80.2,96.8,79.2,93.7,79.2,89.9z M84.2,89.6c0,2.8,0.6,5,1.9,6.5c1.2,1.6,2.9,2.3,5.1,2.3
		c2.2,0,3.9-0.8,5.1-2.4c1.2-1.6,1.8-3.9,1.8-6.8c0-2.9-0.6-5.1-1.8-6.6c-1.2-1.5-2.9-2.3-5-2.3c-2.3,0-4,0.8-5.2,2.4
		C84.9,84.4,84.2,86.7,84.2,89.6z"/>
</g>
</svg>
