<?xml version="1.0" encoding="utf-8"?>
<!-- Generator: Adobe Illustrator 23.0.1, SVG Export Plug-In . SVG Version: 6.00 Build 0)  -->
<svg version="1.1" id="图层_1" xmlns="http://www.w3.org/2000/svg" xmlns:xlink="http://www.w3.org/1999/xlink" x="0px" y="0px"
	 viewBox="0 0 26 26" style="enable-background:new 0 0 26 26;" xml:space="preserve">
<g>
	<g>
		<path d="M25.2,8.9l-5-6.2c-0.5-0.6-1.3-1-2.1-1H8c-0.8,0-1.6,0.4-2.1,1l-5,6.2C0,9.9,0.1,11.5,1,12.5l10.1,10.7l0.1,0.1
			c0.5,0.5,1.2,0.7,1.9,0.7h0.1c0.7,0,1.4-0.3,1.9-0.9L25,12.5C26,11.5,26,9.9,25.2,8.9L25.2,8.9z M23.7,11.3l-9.9,10.7
			c-0.2,0.2-0.4,0.3-0.6,0.3c-0.2,0-0.5-0.1-0.6-0.2L2.4,11.2C2,10.9,2,10.4,2.3,10l5-6.2C7.4,3.6,7.7,3.4,8,3.4h10.1
			c0.3,0,0.5,0.1,0.7,0.4l5,6.2C24,10.4,24,10.9,23.7,11.3L23.7,11.3z M23.7,11.3"/>
	</g>
	<path d="M17.9,10.8l-4.7,5l-4.9-5.1c-0.4-0.4-0.9-0.4-1.3,0c-0.4,0.3-0.4,0.9,0,1.3l4.9,5.2l0.1,0.1c0.7,0.7,1.9,0.6,2.6-0.1
		l4.7-5.1c0.3-0.4,0.3-1,0-1.3C18.8,10.3,18.2,10.4,17.9,10.8L17.9,10.8z M17.9,10.8"/>
</g>
</svg>
