<?xml version="1.0" encoding="utf-8"?>
<!-- Generator: Adobe Illustrator 18.1.1, SVG Export Plug-In . SVG Version: 6.00 Build 0)  -->
<svg version="1.1" id="图层_1" xmlns="http://www.w3.org/2000/svg" xmlns:xlink="http://www.w3.org/1999/xlink" x="0px" y="0px"
	 viewBox="0 0 180.7 148.6" enable-background="new 0 0 180.7 148.6" xml:space="preserve">
<path d="M110.9,97.7"/>
<g>
	<g>
		<linearGradient id="SVGID_1_" gradientUnits="userSpaceOnUse" x1="116.6185" y1="81.8049" x2="180.3481" y2="81.8049">
			<stop  offset="0" style="stop-color:#438AC9"/>
			<stop  offset="1" style="stop-color:#2772B2"/>
		</linearGradient>
		<path fill="url(#SVGID_1_)" d="M179.2,89.2c-0.9-5.8-2.4-11.8-4.5-17.9c-2.2-6.2-5.5-12-9.7-17.2c-2.4-3-5.4-5.7-8.9-7.7
			c-3.5-2.2-7.3-3.9-11.2-5.3c-4-1.3-8-2.3-12.1-2.9c-4.1-0.6-8-0.7-11.7-0.4c-1.3,0.1-2.3,0.9-3.2,2.4c-0.8,1.5-1.3,2.8-1.3,4v74.7
			c0,1.8,0.8,3.6,2.2,4.8c1.5,1.4,3.2,2,5.3,2h1.2c1,0,1.9-0.7,2-1.6c0.2-2,0.7-3.9,1.5-5.7c2.1-4.6,6.1-8.3,11-10.3
			c2.5-1,5.2-1.5,8.1-1.5c2.9,0,5.7,0.4,8.4,1.1c2.6,0.7,4.9,1.8,7,3.4c2,1.5,3.6,3.6,4.8,6.1c1,2.1,1.6,4.5,1.8,7.3
			c0.1,1,0.9,1.7,1.9,1.7h5.1c0.7,0,1.2-0.3,1.6-0.9c0.4-0.6,0.8-1.4,1-2.2c0.3-0.9,0.5-1.8,0.6-2.6c0.1-0.9,0.2-1.6,0.2-2.2
			c0-3.2,0-7.4,0.1-12.4C180.4,100.5,180,95,179.2,89.2z M165.8,87.3c-1,0-2.2,0.1-3.6,0.1h-31.3c-0.8,0-1.6-0.3-2.4-1.1
			c-0.8-0.7-1.2-1.4-1.2-1.9v-0.2c-0.1-5.1-0.2-9.7-0.2-13.8V56.4c0-1.1,0.5-2.2,1.5-3.2c1-1,2.3-1.5,3.8-1.5l2.6-0.2
			c2-0.1,3.9,0,5.9,0.2c2.5,0.3,5,0.9,7.4,1.7c2.6,0.9,5,2.3,7.3,4.2c3.5,3.4,6.1,7.5,7.5,12c1.5,4.8,2.9,9.7,4.1,14.7
			c0,0.2,0,0.3,0.1,0.4c0.1,0.1,0.1,0.3,0.1,0.5C167.3,86.6,166.8,87.3,165.8,87.3z"/>
		<linearGradient id="SVGID_2_" gradientUnits="userSpaceOnUse" x1="20.8196" y1="126.081" x2="42.6104" y2="126.081">
			<stop  offset="0" style="stop-color:#438AC9"/>
			<stop  offset="1" style="stop-color:#2772B2"/>
		</linearGradient>
		<path fill="url(#SVGID_2_)" d="M31.7,116.1c-2.9-0.1-5.7,1-7.8,2.9c-2.1,2-3.2,4.4-3.2,7.1c0,2.6,1.1,5.1,3.2,7
			c2,1.9,4.8,3,7.8,2.9c3,0,5.6-1,7.7-2.9c2.1-2,3.2-4.3,3.2-7c0-2.8-1-5.2-3.2-7.1C37.4,117.1,34.8,116.1,31.7,116.1z"/>
		<linearGradient id="SVGID_3_" gradientUnits="userSpaceOnUse" x1="-9.729004e-002" y1="72.3548" x2="106.0803" y2="72.3548">
			<stop  offset="0" style="stop-color:#438AC9"/>
			<stop  offset="1" style="stop-color:#2772B2"/>
		</linearGradient>
		<path fill="url(#SVGID_3_)" d="M103.8,18.8H20.5c-2.8,0-5.6,0.6-8.1,1.8c-2.5,1.2-4.7,2.8-6.6,4.7c-1.8,1.9-3.3,4.1-4.3,6.5
			c-1,2.4-1.5,4.8-1.5,7.3v80.6c0,2,0.6,3.5,1.9,4.5c1.3,1,2.8,1.6,4.8,1.6h2c1,0,1.9-0.8,2-1.7c0.3-5.8,2.1-10.1,5.5-13.1
			c3.7-3.3,9-4.9,15.9-4.9c7.2,0,12.6,1.8,16,5.3c3.1,3.2,4.8,7.4,5.1,12.7c0.1,1,0.9,1.7,2,1.7h44.5c1.7,0,3.4-0.6,4.7-1.7v0
			c1.3-1.1,2-2.6,2-4.3l-0.3-99.2C105.7,19.7,104.9,18.8,103.8,18.8z M24.8,40h-9.6c-0.3,0-0.7-0.2-0.8-0.6c-0.1-0.3,0-0.7,0.3-0.9
			c0.2-0.1,0.3-0.2,0.5-0.2c1.6,0.1,3.1,0.1,4.7,0.1h4.7c0.4,0,0.7,0.3,0.8,0.7C25.5,39.5,25.2,39.9,24.8,40z M28.4,30
			c-0.2,0.6-0.5,0.8-1.1,0.8c0,0.1-0.1,0.1-0.1,0.2c-0.6,2-1.2,4-1.7,6c-0.1,0.3-0.2,0.3-0.4,0.3H14.9c-0.3,0-0.4-0.1-0.4-0.3
			c-0.4-1.6-1-3.3-1.4-4.9c-0.1-0.4-0.3-0.9-0.4-1.3c-0.4,0-0.8-0.2-1-0.6c-0.1,0-0.1-0.1-0.1-0.2v-0.3l0.1-0.2
			c0.1-0.4,0.5-0.7,1-0.7c0.4-0.1,0.8,0.2,1,0.6c0.2,0.4,0.1,0.8-0.2,1.2l-0.1,0.1c0.8,0.5,1.6,1,2.4,1.4c0.3,0.2,0.6,0.3,0.9,0.6
			c0.2,0.1,0.3,0.1,0.4-0.1l2.7-4.9c-0.4-0.2-0.6-0.5-0.7-1c0-0.3,0.1-0.6,0.3-0.8c0.4-0.4,1.2-0.4,1.6,0.1c0.4,0.6,0.3,1.2-0.4,1.7
			c0.2,0.4,0.4,0.8,0.7,1.3c0.7,1.2,1.3,2.4,1.9,3.5c0.2,0.3,0.2,0.3,0.5,0.1c1-0.6,2-1.2,3-1.9c0.1-0.1,0.1-0.1,0.2-0.1
			c-0.2-0.2-0.3-0.4-0.3-0.7c-0.1-0.6,0.3-1,0.8-1.1c0.6-0.1,1.1,0.2,1.2,0.7c0,0.1,0.1,0.1,0.1,0.1V30z M72.3,50.5l-9.9,16.9
			c-0.7,1.2,0.2,2.7,1.7,2.7h3.4c1.1,0,2,0.8,2,1.8v0.6c0,1-0.9,1.8-2,1.8h-9.2l-0.1,0.1v3.5c0,1,0.9,1.8,2,1.8h7.3
			c1.1,0,2,0.8,2,1.8v0.6c0,1-0.9,1.8-2,1.8h-7.3c-1.1,0-2,0.8-2,1.8v6c0,1-0.9,1.8-2,1.8h-4.6c-1.1,0-2-0.8-2-1.8v-6
			c0-1-0.9-1.8-2-1.8h-7.3c-1.1,0-2-0.8-2-1.8v-0.6c0-1,0.9-1.8,2-1.8h7.3c1.1,0,2-0.8,2-1.8v-3.5l-0.1-0.1h-9.1c-1.1,0-2-0.8-2-1.8
			v-0.6c0-1,0.9-1.8,2-1.8h3.4c1.5,0,2.4-1.5,1.7-2.7l-9.9-16.9c-0.7-1.2,0.2-2.7,1.7-2.7h5.1c0.7,0,1.4,0.4,1.8,1l7.9,14.9
			c0.7,1.4,2.8,1.3,3.5,0l7.9-14.9c0.3-0.6,1-1,1.8-1h5.1C72.1,47.8,73,49.3,72.3,50.5z"/>
		<linearGradient id="SVGID_4_" gradientUnits="userSpaceOnUse" x1="137.8812" y1="126.2366" x2="159.6734" y2="126.2366">
			<stop  offset="0" style="stop-color:#438AC9"/>
			<stop  offset="1" style="stop-color:#2772B2"/>
		</linearGradient>
		<path fill="url(#SVGID_4_)" d="M156.4,119.2c-2.1-2-4.7-2.9-7.7-2.9c-3,0-5.6,1-7.7,2.9c-2.1,2-3.2,4.3-3.2,7
			c-0.1,2.7,1.1,5.3,3.2,7.1c2.1,2,4.7,2.9,7.7,2.9c3,0,5.5-1,7.7-2.9c2.1-2,3.2-4.3,3.2-7.1C159.7,123.5,158.6,121.1,156.4,119.2z"
			/>
	</g>
</g>
</svg>
