<?xml version="1.0" encoding="utf-8"?>
<!-- Generator: Adobe Illustrator 18.1.1, SVG Export Plug-In . SVG Version: 6.00 Build 0)  -->
<svg version="1.1" id="图层_1" xmlns="http://www.w3.org/2000/svg" xmlns:xlink="http://www.w3.org/1999/xlink" x="0px" y="0px"
	 viewBox="0 0 180.7 148.6" enable-background="new 0 0 180.7 148.6" xml:space="preserve">
<g>
	<linearGradient id="SVGID_1_" gradientUnits="userSpaceOnUse" x1="1.0006" y1="98.0247" x2="27.6537" y2="98.0247">
		<stop  offset="0" style="stop-color:#EB5850"/>
		<stop  offset="1" style="stop-color:#D5413B"/>
	</linearGradient>
	<path fill="url(#SVGID_1_)" d="M1.5,53.6c1.1-2.4,3.5-4,6.1-4h20v96.9h-20c-1.7,0-3.4-0.6-4.6-1.9c-1.3-1.2-2-2.8-2-4.5v-24.4
		c1.9,0,3.7-0.4,5.4-1.1c1.7-0.8,3.1-1.8,4.3-3c1.2-1.2,2.2-2.7,2.9-4.4c0.7-1.7,1-3.5,1-5.3c0-3.9-1.3-7.1-3.9-9.8
		c-2.6-2.7-5.9-4.1-9.7-4.2V56.2C1,55.2,1.2,54.4,1.5,53.6L1.5,53.6z"/>
	<linearGradient id="SVGID_2_" gradientUnits="userSpaceOnUse" x1="48.4874" y1="42.2951" x2="180.177" y2="42.2951">
		<stop  offset="0" style="stop-color:#EB5850"/>
		<stop  offset="1" style="stop-color:#D5413B"/>
	</linearGradient>
	<path fill="url(#SVGID_2_)" d="M180.1,75.3c-0.2,1.6-1.2,3-2.7,3.7c-0.9,0.5-2,0.8-3,1l-8.9,2.7v-9.4c3.2-0.7,4.5-2.2,3.8-4.5
		l-8.6-27.7L145.4,46h-49l60-18.6l-3.8-12.2c-0.2-0.9-0.9-1.7-1.7-2.1c-0.8-0.4-1.8-0.6-2.8-0.3L61.8,39.7c-0.9,0.2-1.7,0.9-2.1,1.7
		c-0.5,0.8-0.6,1.8-0.3,2.8l0.7,1.9h-9.5l-1.9-6.2c-0.5-1.3-0.3-2.8,0.3-4c0.7-1.3,1.9-2.3,3.3-2.7L152.4,2c0.9-0.2,1.8-0.3,2.7-0.1
		c0.9,0.2,1.8,0.6,2.5,1.3c0.7,0.6,1.2,1.5,1.5,2.4l20.8,67.6C180.2,73.9,180.2,74.6,180.1,75.3L180.1,75.3z"/>
	<linearGradient id="SVGID_3_" gradientUnits="userSpaceOnUse" x1="36.1283" y1="98.0072" x2="159.7213" y2="98.0072">
		<stop  offset="0" style="stop-color:#EB5850"/>
		<stop  offset="1" style="stop-color:#D5413B"/>
	</linearGradient>
	<path fill="url(#SVGID_3_)" d="M157.9,51.5c1.2,1.2,1.9,2.9,1.9,4.7v6.4c-0.3-0.1-0.7-0.2-1-0.2c-1.8,0-3.6,0.7-5,2
		c-1.3,1.2-2.1,2.9-2.1,4.6c0,1.8,0.8,3.5,2.1,4.6c1.3,1.3,3.1,2,5,2h1v6h-1c-1.9,0-3.6,0.7-5,2c-1.3,1.2-2.1,2.9-2.1,4.7
		c0,1.2,0.3,2.3,0.9,3.3c1.4,2.1,3.6,3.3,6.1,3.3h1v6h-1c-1.2,0-2.5,0.3-3.5,0.9c-1,0.6-1.9,1.4-2.6,2.4c-0.6,1-0.9,2.1-0.9,3.3
		c0,1.8,0.7,3.3,2.1,4.6c1.4,1.3,3,2,5,2h1v6h-1c-1.9,0-3.6,0.7-5,2c-1.3,1.2-2.1,2.9-2.1,4.6c0,1.8,0.7,3.3,2.1,4.6
		c1.3,1.3,3.1,2,5,2h1v6.8c0,1.1-0.3,2.2-0.8,3.2c-0.5,1-1.4,1.8-2.4,2.4c-1,0.5-2.1,0.8-3.2,0.8H36.1V49.6h117.2
		C155.1,49.6,156.6,50.2,157.9,51.5L157.9,51.5z M110.9,97.7l10.8-25.4H108L99,98.8l-8.9-26.5H76.2L87,97.7H76.2l0.2,8.9h13.4
		l1.7,3.1v2.7H76.2v8.7h15.3v12h13.2v-12h14.9v-8.7h-14.9v-2.7l1.7-3.1h13.2v-8.9L110.9,97.7L110.9,97.7z"/>
</g>
<path d="M110.9,97.7"/>
</svg>
