<?xml version="1.0" encoding="utf-8"?>
<!-- Generator: Adobe Illustrator 23.0.1, SVG Export Plug-In . SVG Version: 6.00 Build 0)  -->
<svg version="1.1" id="图层_1" xmlns="http://www.w3.org/2000/svg" xmlns:xlink="http://www.w3.org/1999/xlink" x="0px" y="0px"
	 viewBox="0 0 28 28" enable-background="new 0 0 28 28" xml:space="preserve">
<g>
	<g>
		<path d="M21.4,27.9H6.6c-1.6,0-3.1-1.2-3.4-2.8L1.1,12.2C1,11.4,1.2,10.5,1.7,9.9C2.2,9.3,3,9,3.8,9h20.4
			c0.8,0,1.6,0.3,2.1,0.9c0.5,0.6,0.7,1.4,0.6,2.2l-2.1,12.9C24.5,26.7,23,27.9,21.4,27.9L21.4,27.9z M3.8,11
			c-0.2,0-0.4,0.1-0.6,0.2c-0.1,0.2-0.2,0.4-0.1,0.6l2.1,12.9c0.1,0.6,0.8,1.2,1.4,1.2h14.8c0.6,0,1.3-0.6,1.4-1.2l2.1-12.9
			c0-0.2,0-0.5-0.1-0.6c-0.1-0.2-0.3-0.2-0.6-0.2H3.8z M8,17c-1.1,0-2-0.9-2-2c0-1.1,0.9-2,2-2c1.1,0,2,0.9,2,2C10,16.1,9.1,17,8,17
			L8,17z M8,15C8,15,8,15,8,15l0,1L8,15z M20,17c-1.1,0-2-0.9-2-2c0-1.1,0.9-2,2-2c1.1,0,2,0.9,2,2C22,16.1,21.1,17,20,17L20,17z
			 M20,15L20,15l0,1L20,15z M21,8c-0.5,0-1-0.4-1-1c0-2.8-3.2-5-6-5C11,2.1,8,3.9,8,7c0,0.5-0.4,1-1,1S6,7.6,6,7
			c0-4.3,4-6.9,7.9-6.9c3.8,0,8,2.9,8,7C22,7.6,21.5,8,21,8L21,8z M21,8"/>
	</g>
</g>
</svg>
