<?xml version="1.0" encoding="utf-8"?>
<!-- Generator: Adobe Illustrator 23.0.1, SVG Export Plug-In . SVG Version: 6.00 Build 0)  -->
<svg version="1.1" id="图层_1" xmlns="http://www.w3.org/2000/svg" xmlns:xlink="http://www.w3.org/1999/xlink" x="0px" y="0px"
	 viewBox="0 0 26 26" style="enable-background:new 0 0 26 26;" xml:space="preserve">
<g id="页面-1">
	<g id="选中二级导航-触碰其他选项卡-copy-7" transform="translate(-21.000000, -149.000000)">
		<g id="分组" transform="translate(21.000000, 149.000000)">
			<g>
				<defs>
					<filter id="Adobe_OpacityMaskFilter" filterUnits="userSpaceOnUse" x="2" y="0" width="22.4" height="26">
						<feColorMatrix  type="matrix" values="1 0 0 0 0  0 1 0 0 0  0 0 1 0 0  0 0 0 1 0"/>
					</filter>
				</defs>
				<mask maskUnits="userSpaceOnUse" x="2" y="0" width="22.4" height="26" id="mask-2_2_">
					<g class="st0">
						<polygon id="path-1_2_" class="st1" points="2,0 24.4,0 24.4,26 2,26 						"/>
					</g>
				</mask>
				<path id="Fill-1" class="st2" d="M6.6,1.9c-1.5,0-2.7,1.2-2.7,2.6v16.9c0,0.7,0.3,1.4,0.8,1.9c0.5,0.5,1.2,0.8,1.9,0.8h13.3
					c1.5,0,2.7-1.2,2.7-2.6V4.6c0-0.7-0.3-1.4-0.8-1.9c-0.5-0.5-1.2-0.8-1.9-0.8H6.6z M6.6,0h13.3c1.2,0,2.4,0.5,3.2,1.3
					c0.9,0.9,1.3,2,1.3,3.2v16.9c0,1.2-0.5,2.4-1.3,3.2c-0.9,0.9-2,1.3-3.2,1.3H6.6c-1.2,0-2.4-0.5-3.2-1.3c-0.9-0.9-1.3-2-1.3-3.2
					V4.6c0-1.2,0.5-2.4,1.3-3.2C4.2,0.5,5.4,0,6.6,0L6.6,0z"/>
			</g>
			<path id="Fill-3" class="st3" d="M7.5,14.6h6.4c0.4,0,0.7-0.2,0.9-0.5c0.2-0.3,0.2-0.7,0-1c-0.2-0.3-0.5-0.5-0.9-0.5H7.5
				c-0.4,0-0.7,0.2-0.9,0.5c-0.2,0.3-0.2,0.7,0,1C6.8,14.4,7.1,14.6,7.5,14.6 M7.5,8.6h11.4c0.6,0,1-0.4,1-1c0-0.5-0.5-1-1-1H7.5
				c-0.6,0-1,0.4-1,1C6.5,8.2,6.9,8.6,7.5,8.6"/>
		</g>
	</g>
</g>
</svg>
