<?xml version="1.0" encoding="utf-8"?>
<!-- Generator: Adobe Illustrator 23.0.1, SVG Export Plug-In . SVG Version: 6.00 Build 0)  -->
<svg version="1.1" id="图层_1" xmlns="http://www.w3.org/2000/svg" xmlns:xlink="http://www.w3.org/1999/xlink" x="0px" y="0px"
	 viewBox="0 0 26 26" style="enable-background:new 0 0 26 26;" xml:space="preserve">
<g id="页面-1_1_" class="st0">
	<g id="选中二级导航-触碰其他选项卡-copy-7_1_" transform="translate(-18.000000, -361.000000)">
		<g id="分组_1_" transform="translate(18.000000, 361.000000)">
			<path id="Fill-1_1_" class="st1" d="M7.4,9.5c0-1.2,1-2.1,2.1-2.1s2.1,1,2.1,2.1s-1,2.1-2.1,2.1S7.4,10.7,7.4,9.5L7.4,9.5z
				 M3.4,14.4l9.4,9.4l11-11l-9.4-9.4L2.3,2.3L3.4,14.4z M12.8,25.5c-0.7,0-1.3-0.3-1.8-0.8l-8.9-8.9c-0.2-0.2-0.4-0.5-0.4-0.9
				L0.5,2c0-0.4,0.1-0.9,0.4-1.2S1.6,0.5,2,0.5l13,1.3c0.3,0,0.6,0.2,0.9,0.4l8.9,8.9c1,1,1,2.6,0,3.6L14.6,24.7
				C14.2,25.2,13.5,25.5,12.8,25.5L12.8,25.5z"/>
		</g>
	</g>
</g>
</svg>
