<?xml version="1.0" standalone="no"?><!DOCTYPE svg PUBLIC "-//W3C//DTD SVG 1.1//EN" "http://www.w3.org/Graphics/SVG/1.1/DTD/svg11.dtd"><svg t="1572432816825" class="icon" viewBox="0 0 1024 1024" version="1.1" xmlns="http://www.w3.org/2000/svg" p-id="5112" xmlns:xlink="http://www.w3.org/1999/xlink" width="32" height="32"><defs><style type="text/css"></style></defs><path d="M971.940832 109.449761c-3.622504-19.937075-16.300244-30.804586-38.051641-30.804586L116.557134 78.645175c-1.812275 0-5.434779 0-9.057283 1.796926C87.5638 84.065628 78.508563 96.757694 78.508563 118.519324l0 492.905106c5.432733 19.937075 18.111496 34.453696 38.048571 39.874149l462.129172 0 0 163.113985c5.434779 21.729907 18.139126 34.424021 39.874149 39.871079 10.881838-1.824555 20.665669-4.7727 28.991288-14.488992l161.301709-188.496072L933.890214 651.29858c1.812275 0 5.447059 0 9.069563-1.797949 19.936051-3.622504 30.80561-16.313547 30.80561-38.0762L973.765387 118.519324C973.765387 116.694769 973.765387 113.072265 971.940832 109.449761zM606.947977 500.782517c-4.386914 2.209318-8.773827 2.209318-10.967796 2.209318l0 0.002047L253.639233 502.993882c-24.143886-6.596232-39.512922-24.142863-46.094828-48.285726 0-26.317389 10.967796-41.688471 35.110659-46.075385 4.402263-2.208295 8.788154-2.208295 10.983145-2.208295l342.345042 0c26.354228 0 41.704844 13.19144 46.090734 37.299511 2.210341 4.386914 2.210341 8.771781 2.210341 10.983145C644.284327 481.060337 631.10926 496.395604 606.947977 500.782517zM606.947977 302.644855c-4.386914 2.211365-8.773827 2.211365-10.967796 2.211365L253.639233 304.856219c-24.143886-6.596232-39.512922-24.176632-46.094828-48.28675 0-26.352181 10.967796-41.72224 35.110659-46.109154 4.402263-2.173502 8.788154-2.173502 10.983145-2.173502l342.345042 0c26.354228 0 41.704844 13.156648 46.090734 37.300534 2.210341 4.386914 2.210341 8.773827 2.210341 10.982122C644.284327 282.888905 631.10926 298.258964 606.947977 302.644855zM769.36509 500.785587c-4.40431 2.209318-8.791224 2.209318-10.982122 2.209318-26.338878 0-41.689495-13.160741-46.089711-37.305651-2.196015-4.383844-2.196015-8.80555-2.196015-10.981099 0-26.317389 13.181207-41.688471 37.31793-46.075385 4.386914-2.210341 8.774851-2.210341 10.968819-2.210341 26.336832 0 41.704844 13.193487 46.091758 37.300534 2.193968 4.386914 2.193968 8.771781 2.193968 10.983145C806.666648 481.060337 793.51 496.395604 769.36509 500.785587zM769.36509 302.643831c-4.40431 2.211365-8.791224 2.211365-10.982122 2.211365-26.338878 0-41.689495-13.192464-46.089711-37.335327-2.196015-4.386914-2.196015-8.772804-2.196015-10.9504 0-26.352181 13.181207-41.72224 37.31793-46.109154 4.386914-2.173502 8.774851-2.173502 10.968819-2.173502 26.336832 0 41.704844 13.156648 46.091758 37.300534 2.193968 4.386914 2.193968 8.773827 2.193968 10.982122C806.666648 282.888905 793.51 298.259988 769.36509 302.643831z" fill="#FA7D3C" p-id="5113"></path></svg>