<?xml version="1.0" encoding="utf-8"?>
<!-- Generator: Adobe Illustrator 23.0.1, SVG Export Plug-In . SVG Version: 6.00 Build 0)  -->
<svg version="1.1" id="图层_1" xmlns="http://www.w3.org/2000/svg" xmlns:xlink="http://www.w3.org/1999/xlink" x="0px" y="0px"
	 viewBox="0 0 26 26" enable-background="new 0 0 26 26" xml:space="preserve">
<g>
	<path d="M24,11.1L24,11.1c-0.3,0-0.6,0.1-0.8,0.3c-0.2,0.2-0.3,0.5-0.3,0.8v9.4c0,0.6-0.5,1.2-1.1,1.2H4.3c-0.6,0-1.1-0.5-1.1-1.2
		V4.2c0-0.6,0.5-1.2,1.1-1.2h14.9c0.3,0,0.6-0.1,0.8-0.3c0.2-0.2,0.3-0.5,0.3-0.8c0-0.3-0.1-0.6-0.3-0.8c-0.2-0.2-0.5-0.3-0.8-0.3
		H4.3c-1.9,0-3.5,1.6-3.5,3.5v17.5c0,1.9,1.6,3.5,3.5,3.5h17.4c1.9,0,3.5-1.6,3.5-3.5v-9.4C25.2,11.7,24.6,11.2,24,11.1z"/>
	<path d="M7.7,12.1c-0.4-0.4-1.2-0.4-1.6,0c-0.4,0.4-0.4,1.1,0,1.6l4.5,4.6c0.2,0.2,0.5,0.3,0.8,0.3c0.3,0,0.6-0.1,0.8-0.3l12.6-13
		c0.4-0.4,0.4-1.2,0-1.6c-0.2-0.2-0.5-0.3-0.8-0.3c-0.3,0-0.6,0.1-0.8,0.3L11.4,15.8L7.7,12.1z"/>
</g>
</svg>
