<?xml version="1.0" standalone="no"?><!DOCTYPE svg PUBLIC "-//W3C//DTD SVG 1.1//EN" "http://www.w3.org/Graphics/SVG/1.1/DTD/svg11.dtd"><svg t="1568018259165" class="icon" viewBox="0 0 1024 1024" version="1.1" xmlns="http://www.w3.org/2000/svg" p-id="30254" xmlns:xlink="http://www.w3.org/1999/xlink" width="500" height="500"><defs><style type="text/css"></style></defs><path d="M329.1 438.9c40.4 0 73.1-32.7 73.1-73.1 0-40.4-32.7-73.1-73.1-73.1-40.4 0-73.1 32.7-73.1 73.1 0 40.3 32.8 73.1 73.1 73.1z m329.2-45.8L441.5 698.8l-112.4-156-182.8 261.8h731.4L658.3 393.1zM950.9 91.4H73.1c-20.2 0-36.6 16.4-36.6 36.6v768c0 20.2 16.4 36.6 36.6 36.6h877.7c20.2 0 36.6-16.4 36.6-36.6V128c0-20.2-16.3-36.6-36.5-36.6z m-36.6 768H109.7V164.6h804.6v694.8z" p-id="30255"></path></svg>