<?xml version="1.0" encoding="utf-8"?>
<!-- Generator: Adobe Illustrator 23.0.1, SVG Export Plug-In . SVG Version: 6.00 Build 0)  -->
<svg version="1.1" id="图层_1" xmlns="http://www.w3.org/2000/svg" xmlns:xlink="http://www.w3.org/1999/xlink" x="0px" y="0px"
	 viewBox="0 0 16 16" enable-background="new 0 0 16 16" xml:space="preserve">
<g>
	<path d="M14.8,3.5H13V1.3C13,0.6,12.4,0,11.7,0H4.3C3.6,0,3,0.6,3,1.3v2.2H1.2C0.6,3.5,0,4.1,0,4.7v5.5
		c0,0.7,0.6,1.2,1.2,1.2h1.8v3c0,0.8,0.7,1.5,1.5,1.5h6.9c0.8,0,1.5-0.7,1.5-1.6v-2.9h1.7c0.7,0,1.2-0.6,1.2-1.2V4.7
		C16,4.1,15.4,3.5,14.8,3.5z M4.3,1.3h7.3v2.2H4.3V1.3z M11.7,14.4c0,0.1-0.1,0.2-0.2,0.2H4.6c-0.1,0-0.2-0.1-0.2-0.2V9.2
		C4.4,9.1,4.5,9,4.6,9h6.9c0.1,0,0.2,0.1,0.2,0.2V14.4z M14.7,10.2H13v-1c0-0.8-0.7-1.5-1.5-1.5H4.6c-0.8,0-1.5,0.7-1.5,1.5v1H1.3
		V4.8h13.3V10.2z"/>
	<path d="M5.8,11.2h3.1c0.2,0,0.4-0.2,0.4-0.4v-0.1c0-0.2-0.2-0.4-0.4-0.4H5.8c-0.2,0-0.4,0.2-0.4,0.4v0.1
		C5.3,11,5.5,11.2,5.8,11.2z"/>
	<path d="M10.2,12.5H5.8c-0.3,0-0.5,0.2-0.5,0.5c0,0.3,0.2,0.5,0.5,0.5h4.3c0.3,0,0.5-0.2,0.5-0.5
		C10.7,12.7,10.4,12.5,10.2,12.5z"/>
</g>
</svg>
