<?xml version="1.0" standalone="no"?><!DOCTYPE svg PUBLIC "-//W3C//DTD SVG 1.1//EN" "http://www.w3.org/Graphics/SVG/1.1/DTD/svg11.dtd"><svg t="1568714645322" class="icon" viewBox="0 0 1024 1024" version="1.1" xmlns="http://www.w3.org/2000/svg" p-id="9930" xmlns:xlink="http://www.w3.org/1999/xlink" width="200" height="200"><defs><style type="text/css"></style></defs><path d="M512 0a512 512 0 1 0 512 512A512 512 0 0 0 512 0z m226.377143 180.297143A823.588571 823.588571 0 0 1 804.571429 277.211429l-84.114286 45.714285a736.914286 736.914286 0 0 0-55.954286-86.674285 103.131429 103.131429 0 0 0-6.217143-12.8zM804.571429 781.165714a98.377143 98.377143 0 0 1-86.674286 30.72q-140.068571 10.24-124.708572-91.794285v-203.702858a783.36 783.36 0 0 1-146.285714 287.817143l-61.074286-40.594285v48.274285H256v-275.382857a116.662857 116.662857 0 0 1-28.16 36.571429l-39.131429-148.48A822.125714 822.125714 0 0 0 303.177143 182.857143l132.388571 17.92q-43.154286 124.708571-50.834285 142.628571V658.285714a670.354286 670.354286 0 0 0 106.788571-206.262857h-91.428571V329.142857h109.714285q2.56-32.914286 5.12-71.314286t5.12-63.634285l127.268572 5.12A1024 1024 0 0 1 634.148571 329.142857h175.542858v124.708572H713.142857v219.428571c0 20.48 5.12 29.622857 15.36 28.16q15.36 15.36 17.92-78.994286l86.674286 30.72a265.142857 265.142857 0 0 1-28.525714 128z" p-id="9931"></path></svg>
