<?xml version="1.0" encoding="utf-8"?>
<!-- Generator: Adobe Illustrator 23.0.1, SVG Export Plug-In . SVG Version: 6.00 Build 0)  -->
<svg version="1.1" id="图层_1" xmlns="http://www.w3.org/2000/svg" xmlns:xlink="http://www.w3.org/1999/xlink" x="0px" y="0px"
	 viewBox="0 0 26 26" enable-background="new 0 0 26 26" xml:space="preserve">
<g>
	<g>
		<path d="M20.9,16c0.5,0,0.8-0.4,1-0.7l3.5-8.2c0.1-0.2,0.1-0.4,0.1-0.6c0-0.7-0.6-1.3-1.1-1.3H6.9l-0.7-2
			C6.1,2.8,5.7,2.5,5.1,2.5H1.6C1,2.5,0.4,3.1,0.4,3.8c0,0.7,0.6,1.3,1.1,1.3h2.7l4.6,13.5H6.7c-1.3,0-2.4,1-2.4,2.4
			s1.1,2.4,2.4,2.4s2.4-1,2.4-2.4h11c0,1.4,1,2.4,2.4,2.4c1.4,0,2.4-1,2.4-2.4s-1-2.4-2.4-2.4H11.3l-0.6-1.8L20.9,16z M9.9,14.4
			L7.7,7.9h14.8l-2.5,5.8L9.9,14.4z M9.9,14.4"/>
	</g>
</g>
</svg>
