<?xml version="1.0" encoding="utf-8"?>
<!-- Generator: Adobe Illustrator 23.0.1, SVG Export Plug-In . SVG Version: 6.00 Build 0)  -->
<svg version="1.1" id="图层_1" xmlns="http://www.w3.org/2000/svg" xmlns:xlink="http://www.w3.org/1999/xlink" x="0px" y="0px"
	 viewBox="0 0 13 13" style="enable-background:new 0 0 13 13;" xml:space="preserve">
<style type="text/css">
	.st0{fill-rule:evenodd;clip-rule:evenodd;}
</style>
<g id="页面-1">
	<g id="导入功能-copy-15" transform="translate(-631.000000, -451.000000)">
		<path id="Fill-1" class="st0" d="M638,457h6v-6h-6V457z M639,456h4v-4h-4V456z M631,457h6v-6h-6V457z M632,456h4v-4h-4V456z
			 M640,455h2v-2h-2V455z M633,455h2v-2h-2V455z M643,459h1v-1h-1V459z M638,459h1v-1h-1V459z M631,464h6v-6h-6V464z M632,463h4v-4
			h-4V463z M639.5,460v2.7H638v1.3h1.5v-1.3h1.5v1.3h3v-2.7h-1.5v1.3H641V460H639.5z M633,462h2v-2h-2V462z"/>
	</g>
</g>
</svg>
