<?xml version="1.0" standalone="no"?><!DOCTYPE svg PUBLIC "-//W3C//DTD SVG 1.1//EN" "http://www.w3.org/Graphics/SVG/1.1/DTD/svg11.dtd"><svg t="1596108928082" class="icon" viewBox="0 0 1024 1024" version="1.1" xmlns="http://www.w3.org/2000/svg" p-id="1979" xmlns:xlink="http://www.w3.org/1999/xlink" width="200" height="200"><defs><style type="text/css"></style></defs><path d="M237.303 377.216l113.152 106.027c16.585 16.763 33.652 43.934 17.067 60.693-16.597 16.76-39.228 16.76-55.816 0l-173.338-175.54c-13.163-13.26-14.123-34.49-0.96-47.752L311.71 142.366c16.589-16.76 39.223-16.76 55.812 0s-0.478 43.934-17.067 60.689l-111.68 110.161h380.882C772.868 313.216 896 446.097 896 598.955 896 751.808 772.864 897.8 619.657 897.8h-406.2c-23.317 0-42.88-10.825-42.88-34.134 0-23.313 19.563-29.87 42.88-29.87h402.816c102.763 0 215.714-132.323 215.714-234.847S719.036 377.225 616.273 377.225h-378.97z" p-id="1980"></path></svg>