<?xml version="1.0" encoding="utf-8"?>
<!-- Generator: Adobe Illustrator 23.0.1, SVG Export Plug-In . SVG Version: 6.00 Build 0)  -->
<svg version="1.1" id="图层_1" xmlns="http://www.w3.org/2000/svg" xmlns:xlink="http://www.w3.org/1999/xlink" x="0px" y="0px"
	 viewBox="0 0 16 16" enable-background="new 0 0 16 16" xml:space="preserve">
<g>
	<g>
		<path d="M14.3,7.6c-0.1,0.2-0.3,0.3-0.4,0.3h0c0,0-0.1,0-0.1,0h0c-0.1,0-0.1,0-0.2,0c0,0,0,0-0.1,0
			c0,0-0.1,0-0.1-0.1l-2.5-1.4c-0.3-0.2-0.4-0.6-0.3-1c0.2-0.3,0.6-0.5,1-0.3l1.1,0.6C12,4,10.2,2.7,8.2,2.6c-2-0.1-3.9,1-4.7,2.9
			c0,0-0.4,0.6-0.7,0.7C2.5,6.3,2.2,6.1,2,5.8C1.8,5.6,1.9,5.2,2.1,5c1.1-2.4,3.5-3.8,6.1-3.8c2.6,0.1,4.9,1.7,5.8,4.1l0.5-0.9
			c0.1-0.2,0.4-0.4,0.6-0.4c0.3,0,0.5,0.1,0.6,0.4c0.1,0.2,0.1,0.5,0,0.7l0,0l-1.3,2.3 M1.7,8.4C1.8,8.2,1.9,8.1,2.1,8h0
			c0,0,0.1,0,0.1,0h0c0.1,0,0.1,0,0.2,0c0,0,0,0,0.1,0c0,0,0.1,0,0.1,0.1l2.5,1.4c0.3,0.2,0.4,0.6,0.3,1c-0.2,0.3-0.6,0.5-1,0.3
			l-1.1-0.6C4,12,5.8,13.3,7.8,13.4c2,0.1,3.9-1,4.7-2.9c0,0,0.4-0.6,0.7-0.7c0.3-0.1,0.7,0.1,0.8,0.4c0.2,0.3,0.1,0.6-0.1,0.9l0,0
			c-1.1,2.4-3.5,3.8-6.1,3.8c-2.6-0.1-4.9-1.7-5.8-4.1l-0.5,0.9c-0.1,0.2-0.4,0.4-0.6,0.4c-0.3,0-0.5-0.1-0.6-0.4
			c-0.1-0.2-0.1-0.5,0-0.7l1.3-2.3 M13.9,11"/>
	</g>
</g>
</svg>
