<?xml version="1.0" encoding="utf-8"?>
<!-- Generator: Adobe Illustrator 23.0.1, SVG Export Plug-In . SVG Version: 6.00 Build 0)  -->
<svg version="1.1" id="图层_1" xmlns="http://www.w3.org/2000/svg" xmlns:xlink="http://www.w3.org/1999/xlink" x="0px" y="0px"
	 viewBox="0 0 16 16" style="enable-background:new 0 0 16 16;" xml:space="preserve">
<style type="text/css">
	.st0{fill:#535F77;}
</style>
<g>
	<g>
		<path class="st0" d="M14.3,15.5H2.2c-0.3,0-0.6-0.3-0.6-0.6s0.3-0.6,0.6-0.6h12.1c0.3,0,0.6,0.3,0.6,0.6S14.6,15.5,14.3,15.5
			L14.3,15.5z M14.3,13.2h-12c-0.1,0-0.3-0.1-0.4-0.2c-0.1-0.1-0.2-0.2-0.2-0.4v-2c0-1,0.8-1.8,1.8-1.8h2.3c0-0.6-0.2-1.2-0.4-1.8
			c-0.6-0.8-0.9-1.7-1-2.6c0-2.2,1.7-3.9,3.9-3.9c2.2,0,3.9,1.7,3.9,3.9c0,1-0.4,1.9-1,2.6c-0.3,0.6-0.4,1.2-0.4,1.8h2.3
			c1,0,1.8,0.8,1.8,1.8v2c0,0.2-0.1,0.3-0.2,0.4C14.6,13.2,14.4,13.2,14.3,13.2L14.3,13.2z M2.8,12.1h10.9v-1.5
			c0-0.4-0.3-0.7-0.7-0.7h-2.7c-0.2,0-0.4-0.1-0.5-0.2C9.8,9.5,9.7,9.3,9.7,9c0,0,0,0,0-0.1c0-0.4,0.2-1.9,0.7-2.5
			C10.8,5.8,11,5.1,11,4.4c0-0.7-0.3-1.4-0.8-1.8C9.7,2.1,9,1.9,8.3,1.9c0,0-0.1,0-0.1,0C7.5,1.9,6.8,2.1,6.3,2.6
			C5.8,3.1,5.5,3.8,5.5,4.5c0,0.7,0.3,1.4,0.7,1.9C6.7,7,6.9,8.6,6.9,8.9c0,0,0,0,0,0.1c0,0.3-0.1,0.5-0.3,0.8
			C6.5,9.9,6.3,10,6.1,10H3.5c-0.4,0-0.7,0.3-0.7,0.7L2.8,12.1L2.8,12.1z M2.8,12.1"/>
	</g>
</g>
</svg>
