<?xml version="1.0" encoding="utf-8"?>
<!-- Generator: Adobe Illustrator 23.0.1, SVG Export Plug-In . SVG Version: 6.00 Build 0)  -->
<svg version="1.1" id="图层_1" xmlns="http://www.w3.org/2000/svg" xmlns:xlink="http://www.w3.org/1999/xlink" x="0px" y="0px"
	 viewBox="0 0 26 26" style="enable-background:new 0 0 26 26;" xml:space="preserve">
<g>
	<g>
		<path d="M6.7,14.4L11.9,9l5,5.3c0,0.1,0.1,0.1,0.1,0.2c0.4,0.4,1.1,0.4,1.5,0l5.8-6c0.1,0,0.1-0.1,0.2-0.2c0.4-0.4,0.4-1.2,0-1.6
			c-0.4-0.4-1.1-0.4-1.5,0c0,0,0,0.1-0.1,0.1l-5.1,5.3l-5.1-5.4c0,0,0,0,0,0c-0.4-0.4-1.1-0.4-1.5,0c0,0,0,0.1-0.1,0.1l-5.8,6.1
			c-0.4,0.4-0.4,1.1,0,1.6C5.6,14.9,6.3,14.9,6.7,14.4L6.7,14.4z M25,21.5h-23v-18C1.9,3,1.5,2.6,1,2.6C0.5,2.6,0.1,3,0.1,3.5v18.9
			c0,0.5,0.4,0.9,0.9,0.9h24c0.5,0,0.9-0.4,0.9-0.9C25.9,22,25.5,21.5,25,21.5L25,21.5z M25,21.5"/>
	</g>
</g>
</svg>
