<?xml version="1.0" encoding="utf-8"?>
<!-- Generator: Adobe Illustrator 23.0.1, SVG Export Plug-In . SVG Version: 6.00 Build 0)  -->
<svg version="1.1" id="图层_1" xmlns="http://www.w3.org/2000/svg" xmlns:xlink="http://www.w3.org/1999/xlink" x="0px" y="0px"
	 viewBox="0 0 26 26" style="enable-background:new 0 0 26 26;" xml:space="preserve">
<g>
	<g>
		<g>
			<path d="M19.5,20.2c-0.3,0-0.6,0.1-0.8,0.2c-0.3,0.1-0.5,0.3-0.7,0.5c-0.2,0.2-0.3,0.4-0.5,0.7c-0.1,0.3-0.2,0.5-0.2,0.8
				s0.1,0.6,0.2,0.8c0.1,0.3,0.3,0.5,0.5,0.7c0.2,0.2,0.4,0.3,0.7,0.5c0.5,0.2,1.1,0.2,1.7,0c0.3-0.1,0.5-0.3,0.7-0.5
				s0.3-0.4,0.5-0.7c0.1-0.3,0.2-0.5,0.2-0.8s-0.1-0.6-0.2-0.8c-0.1-0.3-0.3-0.5-0.5-0.7c-0.2-0.2-0.4-0.3-0.7-0.4
				C20.1,20.3,19.8,20.2,19.5,20.2z M8.7,20.2c-0.3,0-0.6,0.1-0.9,0.2c-0.3,0.1-0.5,0.3-0.7,0.5C7,21,6.9,21.2,6.7,21.5
				c-0.1,0.3-0.2,0.5-0.2,0.8s0.1,0.6,0.2,0.8c0.1,0.3,0.3,0.5,0.5,0.7c0.2,0.2,0.4,0.3,0.7,0.5c0.5,0.2,1.1,0.2,1.7,0
				c0.3-0.1,0.5-0.3,0.7-0.5c0.2-0.2,0.3-0.4,0.5-0.7c0.1-0.3,0.2-0.5,0.2-0.8s-0.1-0.6-0.2-0.8c-0.1-0.3-0.3-0.5-0.5-0.7
				c-0.2-0.2-0.4-0.3-0.7-0.5C9.3,20.3,9,20.2,8.7,20.2z M1.4,1.8C1.1,1.8,0.9,1.8,0.7,2C0.5,2.2,0.4,2.4,0.4,2.7
				c0,0.2,0,0.3,0.1,0.5c0,0.2,0.1,0.3,0.2,0.5C0.8,3.9,0.9,4,1.1,4.1c0.1,0.1,0.3,0.1,0.5,0.1h2.1l0,0.2c0.4,2.1,0.8,4.1,1.1,5.8
				l0.8,4.2c0.1,0.6,0.2,1.1,0.3,1.5c0.1,0.4,0.1,0.7,0.1,0.8c0,0.2,0.1,0.5,0.2,0.8c0.1,0.3,0.2,0.5,0.3,0.8
				c0.1,0.2,0.3,0.4,0.5,0.5C7.3,18.9,7.6,19,7.9,19h13.6c0.4,0,0.6-0.1,0.8-0.2c0.1-0.2,0.2-0.5,0.2-0.8c0-0.4-0.1-0.8-1-0.8H8.1
				l-0.4-2.8h13.9c0.4,0,0.8-0.1,1.1-0.3c0.3-0.2,0.6-0.7,0.8-1.3c0.1-0.3,0.3-0.8,0.5-1.4l0.6-1.7C24.7,9,24.9,8.5,25,8
				c0.2-0.5,0.3-0.8,0.3-1c0-0.1,0.1-0.3,0.1-0.5c0-0.2,0-0.3-0.1-0.5c-0.1-0.1-0.2-0.3-0.5-0.4c-0.2-0.1-0.6-0.2-1-0.2H5.9l0-0.2
				C5.9,5,5.8,4.7,5.8,4.4L5.7,3.6c0-0.2-0.1-0.4-0.1-0.6c0-0.1-0.1-0.3-0.1-0.4c0-0.1-0.1-0.3-0.2-0.4C5.1,2.1,5,2,4.8,1.9
				C4.6,1.8,4.4,1.8,4.1,1.8L1.4,1.8C1.4,1.8,1.4,1.8,1.4,1.8z M21.3,12.5l-13.9,0l-1-5.2l16.9,0.1L21.3,12.5z"/>
		</g>
	</g>
</g>
</svg>
