<?xml version="1.0" encoding="utf-8"?>
<!-- Generator: Adobe Illustrator 23.0.1, SVG Export Plug-In . SVG Version: 6.00 Build 0)  -->
<svg version="1.1" id="图层_1" xmlns="http://www.w3.org/2000/svg" xmlns:xlink="http://www.w3.org/1999/xlink" x="0px" y="0px"
	 viewBox="0 0 16 16" style="enable-background:new 0 0 16 16;" xml:space="preserve">
<style type="text/css">
	.st0{fill:#535F77;}
</style>
<path class="st0" d="M15.9,8.2c-0.2-0.6-0.8-1-1.4-0.9l-4.7,1c0.2-1.4-1.7-2.1-2.7-2.5l0,0C7,5.8,6.9,5.7,6.8,5.7
	c-1-0.4-2.6-1-4-0.5c-1.5,0.4-2.5,1-2.5,1.1C0,6.4-0.1,6.7,0.1,6.9c0.1,0.1,0.2,0.2,0.3,0.2s0.3,0,0.4-0.1c0,0,0.9-0.5,2.2-0.9
	c1.2-0.3,2.5,0.1,3.3,0.5c0.1,0,0.2,0.1,0.3,0.1c0.7,0.3,2.1,0.8,2,1.5c0,0.1-0.1,0.2-0.2,0.3c0,0,0,0-0.1,0l-0.1,0
	c-0.1,0-0.1,0-0.2,0L6.5,8.1c-0.1,0-0.3,0-0.4,0C6,8.2,5.9,8.3,5.8,8.4c0,0.1,0,0.3,0,0.4C5.9,8.9,6,9,6.2,9.1l1.6,0.5
	c0.3,0.1,0.6,0.1,0.9,0l6.1-1.2h0c0.1,0,0.2,0,0.2,0.1c0,0.1,0,0.2-0.1,0.2l-4.8,2.5c-0.8,0.4-1.7,0.5-2.6,0.3
	c-1.3-0.3-3-0.8-3.8-0.9c-1.7-0.3-3.2-0.1-3.2-0.1c-0.3,0-0.5,0.3-0.5,0.6c0,0.3,0.3,0.5,0.6,0.5c0,0,1.4-0.2,2.9,0.1
	c0.8,0.1,2.4,0.5,3.7,0.9c0.4,0.1,0.8,0.2,1.2,0.2c0.8,0,1.5-0.2,2.2-0.5l4.8-2.5C15.9,9.4,16.1,8.8,15.9,8.2L15.9,8.2z M6.5,4.9
	h7.6c0.9,0,1.6-0.7,1.6-1.6s-0.7-1.6-1.6-1.6H6.5c-0.9,0-1.6,0.7-1.6,1.6S5.6,4.9,6.5,4.9L6.5,4.9z M14.1,3.8H6.5
	c-0.2,0-0.4-0.2-0.4-0.4S6.3,3,6.5,3h7.6c0.2,0,0.4,0.2,0.4,0.4S14.3,3.8,14.1,3.8z"/>
</svg>
