<?xml version="1.0" encoding="utf-8"?>
<!-- Generator: Adobe Illustrator 23.0.1, SVG Export Plug-In . SVG Version: 6.00 Build 0)  -->
<svg version="1.1" id="图层_1" xmlns="http://www.w3.org/2000/svg" xmlns:xlink="http://www.w3.org/1999/xlink" x="0px" y="0px"
	 viewBox="0 0 28 28" enable-background="new 0 0 28 28" xml:space="preserve">
<g>
	<g>
		<path d="M26.8,19c0.7-1.6,1.1-3.2,1.1-4.9c0-1.7-0.4-3.4-1.1-5c-0.6-1.4-1.5-2.6-2.5-3.6c0.1-0.3,0.1-0.6,0.1-0.9
			c0-2.4-1.9-4.3-4.3-4.3c-1.4,0-2.7,0.7-3.5,1.8c-0.3,0-0.6,0-0.8,0c-1.4,0-2.7,0.2-4,0.7c-1.3,0.4-2.4,1.1-3.5,1.9
			c-1,0.8-1.9,1.8-2.6,2.9c-0.6,1-1.1,2-1.5,3.1c-2.2,0.2-3.9,2-3.9,4.3c0,2.4,1.9,4.3,4.3,4.3c0.1,0,0.2,0,0.3,0
			c0.9,2,2.3,3.6,4.1,4.8c2,1.4,4.4,2.1,6.8,2.1c0.3,0,0.6,0,0.9,0c0.8,1,2,1.7,3.4,1.7c2.4,0,4.3-1.9,4.3-4.3c0-0.3,0-0.6-0.1-0.9
			C25.3,21.6,26.1,20.3,26.8,19L26.8,19z M20,1.9c1.4,0,2.6,1.1,2.6,2.6c0,1.4-1.1,2.6-2.6,2.6c-1.4,0-2.6-1.1-2.6-2.6
			C17.5,3.1,18.6,1.9,20,1.9L20,1.9z M1.9,14.9c0-1.4,1.1-2.6,2.6-2.6c1.4,0,2.6,1.1,2.6,2.6c0,1.4-1.1,2.6-2.6,2.6
			C3.1,17.4,1.9,16.3,1.9,14.9L1.9,14.9z M20,26.1c-1.4,0-2.6-1.1-2.6-2.6c0-1.4,1.1-2.6,2.6-2.6c1.4,0,2.6,1.1,2.6,2.6
			C22.6,24.9,21.4,26.1,20,26.1L20,26.1z M20,19.2c-2.4,0-4.3,1.9-4.3,4.3c0,0.3,0,0.6,0.1,0.9h-0.1c-4,0-7.5-2.2-9.3-5.7
			c1.4-0.7,2.3-2.1,2.3-3.8c0-1.9-1.2-3.5-2.9-4.1c1.4-4.2,5.3-7.1,9.8-7.1h0.1c-0.1,0.3-0.1,0.6-0.1,0.8c0,2.4,1.9,4.3,4.3,4.3
			c1.4,0,2.6-0.7,3.4-1.7c1.7,1.9,2.7,4.4,2.7,6.9c0,2.5-0.9,5-2.6,6.9C22.7,19.9,21.4,19.2,20,19.2L20,19.2z M20,19.2"/>
	</g>
</g>
</svg>
