<?xml version="1.0" encoding="utf-8"?>
<!-- Generator: Adobe Illustrator 23.0.1, SVG Export Plug-In . SVG Version: 6.00 Build 0)  -->
<svg version="1.1" id="图层_1" xmlns="http://www.w3.org/2000/svg" xmlns:xlink="http://www.w3.org/1999/xlink" x="0px" y="0px"
	 viewBox="0 0 16 16" enable-background="new 0 0 16 16" xml:space="preserve">
<g>
	<g>
		<path d="M2.2,10.4c0.1-0.1,0.3-0.2,0.5-0.1c0.2,0,0.4,0.1,0.5,0.3l1.8,2.3V1.1c0-0.3,0.1-0.5,0.3-0.7c0.2-0.1,0.5-0.1,0.7,0
			c0.2,0.1,0.4,0.4,0.3,0.7v13.7c0,0.3-0.2,0.6-0.5,0.7c-0.1,0-0.2,0-0.2,0c-0.2,0-0.4-0.1-0.6-0.3l-3.1-4C2,11.2,1.9,11,2,10.8
			C2,10.6,2.1,10.5,2.2,10.4L2.2,10.4z M10,0.5c0.3-0.1,0.6,0,0.8,0.2l3.1,4c0.2,0.2,0.2,0.5,0.1,0.7c-0.1,0.2-0.3,0.4-0.6,0.4
			c-0.3,0-0.5-0.1-0.7-0.3l-1.8-2.3v11.7c0,0.3-0.1,0.5-0.3,0.7s-0.5,0.1-0.7,0s-0.4-0.4-0.3-0.7V1.1C9.5,0.8,9.7,0.6,10,0.5L10,0.5
			z M10,0.5"/>
	</g>
</g>
</svg>
