<?xml version="1.0" encoding="utf-8"?>
<!-- Generator: Adobe Illustrator 23.0.1, SVG Export Plug-In . SVG Version: 6.00 Build 0)  -->
<svg version="1.1" id="图层_1" xmlns="http://www.w3.org/2000/svg" xmlns:xlink="http://www.w3.org/1999/xlink" x="0px" y="0px"
	 viewBox="0 0 26 26" enable-background="new 0 0 26 26" xml:space="preserve">
<g>
	<g>
		<path stroke-width="0.5" stroke-miterlimit="10" d="M24.4,17.4c0.6-1.4,1-2.9,1-4.4s-0.4-3.1-1-4.5
			c-0.5-1.3-1.3-2.3-2.2-3.2c0.1-0.3,0.1-0.5,0.1-0.8c0-2.2-1.7-3.9-3.9-3.9c-1.3,0-2.4,0.6-3.1,1.6c-0.3,0-0.5,0-0.7,0
			c-1.3,0-2.4,0.2-3.6,0.6c-1.2,0.4-2.2,1-3.1,1.7C6.9,5.3,6.1,6.2,5.5,7.2C4.9,8.1,4.5,9,4.1,9.9c-2,0.2-3.5,1.8-3.5,3.9
			c0,2.2,1.7,3.9,3.9,3.9c0.1,0,0.2,0,0.3,0c0.8,1.8,2.1,3.2,3.7,4.3c1.8,1.3,4,1.9,6.1,1.9c0.3,0,0.5,0,0.8,0
			c0.7,0.9,1.8,1.5,3.1,1.5c2.2,0,3.9-1.7,3.9-3.9c0-0.3,0-0.5-0.1-0.8C23.1,19.7,23.8,18.6,24.4,17.4L24.4,17.4z M18.3,2
			c1.3,0,2.3,1,2.3,2.3c0,1.3-1,2.3-2.3,2.3c-1.3,0-2.3-1-2.3-2.3C16.1,3.1,17,2,18.3,2L18.3,2z M2,13.7c0-1.3,1-2.3,2.3-2.3
			c1.3,0,2.3,1,2.3,2.3c0,1.3-1,2.3-2.3,2.3C3.1,16,2,15,2,13.7L2,13.7z M18.3,23.8c-1.3,0-2.3-1-2.3-2.3c0-1.3,1-2.3,2.3-2.3
			c1.3,0,2.3,1,2.3,2.3C20.6,22.7,19.6,23.8,18.3,23.8L18.3,23.8z M18.3,17.6c-2.2,0-3.9,1.7-3.9,3.9c0,0.3,0,0.5,0.1,0.8h-0.1
			c-3.6,0-6.7-2-8.4-5.1c1.3-0.6,2.1-1.9,2.1-3.4c0-1.7-1.1-3.1-2.6-3.7c1.3-3.8,4.8-6.4,8.8-6.4h0.1c-0.1,0.3-0.1,0.5-0.1,0.7
			c0,2.2,1.7,3.9,3.9,3.9c1.3,0,2.3-0.6,3.1-1.5c1.5,1.7,2.4,4,2.4,6.2s-0.8,4.5-2.3,6.2C20.7,18.2,19.6,17.6,18.3,17.6L18.3,17.6z"
			/>
	</g>
</g>
</svg>
