<?xml version="1.0" encoding="UTF-8"?>
<svg width="15px" height="16px" viewBox="0 0 15 16" version="1.1" xmlns="http://www.w3.org/2000/svg" xmlns:xlink="http://www.w3.org/1999/xlink">
    <!-- Generator: Sketch 53.2 (72643) - https://sketchapp.com -->
    <title>分组</title>
    <desc>Created with Sketch.</desc>
    <defs>
        <polygon id="path-1" points="0.00264705882 0.113827451 3.71823529 0.113827451 3.71823529 3.91378824 0.00264705882 3.91378824"></polygon>
        <polygon id="path-3" points="0.00264705882 0.0242352941 3.71823529 0.0242352941 3.71823529 3.82509804 0.00264705882 3.82509804"></polygon>
    </defs>
    <g id="页面-1" stroke="none" stroke-width="1" fill="none" fill-rule="evenodd">
        <g id="分拣进度-原型稿-copy-13" transform="translate(-1733.000000, -244.000000)">
            <g id="分组" transform="translate(1733.000000, 244.000000)">
                <g>
                    <path d="M1.85876471,2.4886 L1.85876471,12.9396196 C1.85876471,13.2020902 2.067,13.414051 2.32288235,13.414051 L12.5467059,13.414051 C12.8034706,13.414051 13.0125882,13.2020902 13.0125882,12.9396196 L13.0125882,2.4886 C13.0125882,2.22612941 12.8034706,2.01416863 12.5467059,2.01416863 L2.32288235,2.01416863 C2.067,2.01416863 1.85876471,2.22612941 1.85876471,2.4886" id="Fill-1" fill="#FFE6A1"></path>
                    <g>
                        <mask id="mask-2" fill="white">
                            <use xlink:href="#path-1"></use>
                        </mask>
                        <g id="Clip-4"></g>
                        <path d="M0.465,3.91378824 C0.721764706,3.91378824 0.929117647,3.70092549 0.929117647,3.43935686 L0.929117647,1.06359216 L3.25323529,1.06359216 C3.50911765,1.06359216 3.71823529,0.875082353 3.71823529,0.613513725 C3.71823529,0.351043137 3.50911765,0.113827451 3.25323529,0.113827451 L0.465,0.113827451 C0.208235294,0.113827451 0,0.325788235 0,0.588258824 L0,3.43935686 C0,3.70092549 0.208235294,3.91378824 0.465,3.91378824" id="Fill-3" fill="#FFE6A1" mask="url(#mask-2)"></path>
                    </g>
                    <path d="M14.4055588,3.91378824 C14.6623235,3.91378824 14.8705588,3.70092549 14.8705588,3.43935686 L14.8705588,0.588258824 C14.8705588,0.325788235 14.6623235,0.113827451 14.4055588,0.113827451 L11.6182059,0.113827451 C11.3614412,0.113827451 11.1523235,0.351043137 11.1523235,0.613513725 C11.1523235,0.875082353 11.3614412,1.06359216 11.6182059,1.06359216 L13.9414412,1.06359216 L13.9414412,3.43935686 C13.9414412,3.70092549 14.1496765,3.91378824 14.4055588,3.91378824" id="Fill-5" fill="#FFE6A1"></path>
                    <g transform="translate(0.000000, 11.490196)">
                        <mask id="mask-4" fill="white">
                            <use xlink:href="#path-3"></use>
                        </mask>
                        <g id="Clip-8"></g>
                        <path d="M0.465,0.0242352941 C0.208235294,0.0242352941 0,0.237098039 0,0.498666667 L0,3.34976471 C0,3.61223529 0.208235294,3.82509804 0.465,3.82509804 L3.25323529,3.82509804 C3.50911765,3.82509804 3.71823529,3.58698039 3.71823529,3.3245098 C3.71823529,3.06294118 3.50911765,2.87443137 3.25323529,2.87443137 L0.929117647,2.87443137 L0.929117647,0.498666667 C0.929117647,0.237098039 0.721764706,0.0242352941 0.465,0.0242352941" id="Fill-7" fill="#FFE6A1" mask="url(#mask-4)"></path>
                    </g>
                </g>
                <path d="M14.4997627,11 C14.2244898,11 14.0004746,11.2240152 14.0004746,11.4992881 L14.0004746,13.9995254 L11.5011865,13.9995254 C11.2249644,13.9995254 11,14.1979117 11,14.4731846 C11,14.7494067 11.2249644,15 11.5011865,15 L14.4997627,15 C14.7759848,15 15,14.7759848 15,14.4997627 L15,11.4992881 C15,11.2240152 14.7759848,11 14.4997627,11" id="Fill-9" fill="#FFE6A1"></path>
            </g>
        </g>
    </g>
</svg>