<?xml version="1.0" encoding="utf-8"?>
<!-- Generator: Adobe Illustrator 23.0.1, SVG Export Plug-In . SVG Version: 6.00 Build 0)  -->
<svg version="1.1" id="图层_1" xmlns="http://www.w3.org/2000/svg" xmlns:xlink="http://www.w3.org/1999/xlink" x="0px" y="0px"
	 viewBox="0 0 22 22" enable-background="new 0 0 22 22" xml:space="preserve">
<g>
	<g>
		<path d="M17.8,11.5H4.2c-0.3,0-0.5-0.2-0.5-0.5c0-0.3,0.2-0.5,0.5-0.5h13.6c0.3,0,0.5,0.2,0.5,0.5
			C18.3,11.3,18.1,11.5,17.8,11.5 M16.2,17.8h-2.9c-0.3,0-0.5-0.2-0.5-0.5s0.2-0.5,0.5-0.5h2.9c0.3,0,0.5-0.2,0.5-0.5v-2.6
			c0-0.3,0.2-0.5,0.5-0.5c0.3,0,0.5,0.2,0.5,0.5v2.6C17.8,17.1,17.1,17.8,16.2,17.8 M8.7,17.8h-3c-0.9,0-1.6-0.7-1.6-1.6v-2.6
			c0-0.3,0.2-0.5,0.5-0.5c0.3,0,0.5,0.2,0.5,0.5v2.6c0,0.3,0.2,0.5,0.5,0.5h3c0.3,0,0.5,0.2,0.5,0.5C9.3,17.6,9,17.8,8.7,17.8
			 M4.7,8.9c-0.3,0-0.5-0.2-0.5-0.5V5.8c0-0.9,0.7-1.6,1.6-1.6h3c0.3,0,0.5,0.2,0.5,0.5C9.3,5,9,5.2,8.7,5.2h-3
			c-0.3,0-0.5,0.2-0.5,0.5v2.6C5.2,8.7,5,8.9,4.7,8.9 M17.3,8.9c-0.3,0-0.5-0.2-0.5-0.5V5.8c0-0.3-0.2-0.5-0.5-0.5h-2.9
			c-0.3,0-0.5-0.2-0.5-0.5c0-0.3,0.2-0.5,0.5-0.5h2.9c0.9,0,1.6,0.7,1.6,1.6v2.6C17.8,8.7,17.6,8.9,17.3,8.9"/>
	</g>
</g>
</svg>
