<?xml version="1.0" standalone="no"?><!DOCTYPE svg PUBLIC "-//W3C//DTD SVG 1.1//EN" "http://www.w3.org/Graphics/SVG/1.1/DTD/svg11.dtd"><svg t="1569467529754" class="icon" viewBox="0 0 1024 1024" version="1.1" xmlns="http://www.w3.org/2000/svg" p-id="1101" xmlns:xlink="http://www.w3.org/1999/xlink" width="200" height="200"><defs><style type="text/css"></style></defs><path d="M511.995904 35.520512c-227.889152 0-412.63104 185.8048-412.63104 415.107072 0 114.59584 46.211072 218.345472 120.84224 293.500928l291.790848 236.156928 291.790848-236.156928a415.035392 415.035392 0 0 0 120.846336-293.500928c0-229.300224-184.745984-415.107072-412.639232-415.107072z m-99.530752 234.2912h22.335488v61.159424h68.673536v20.037632h-68.673536v70.135808h80.779264v20.037632h-68.46464v73.89184H510.3616v20.246528h-63.246336v84.537344c19.757056 9.73824 49.956864 14.88896 90.591232 15.446016 32.559104 0.417792 64.5632 0.626688 96.016384 0.626688 31.588352 0 62.619648-0.208896 93.095936-0.626688-4.315136 8.76544-7.032832 16.279552-8.144896 22.542336-94.343168 0-157.247488-0.555008-188.69248-1.667072-80.017408 1.112064-132.128768-27.346944-156.342272-85.372928-4.315136 32.284672-16.003072 65.3312-35.067904 99.147776-3.620864-3.897344-9.601024-8.491008-17.95072-13.776896 15.16544-27.275264 25.184256-53.22752 30.056448-77.858816 5.146624-24.213504 7.651328-59.348992 7.514112-105.41056h20.873216c0 24.076288-0.698368 45.295616-2.086912 63.66208 15.028224 33.261568 31.029248 56.639488 48.007168 70.135808V441.18016H325.632v-20.037632h86.833152V351.00672h-71.804928v-20.037632h71.804928v-61.157376z m152.1664 257.368064c-0.139264 11.552768 2.433024 19.484672 7.723008 23.795712 5.00736 4.4544 14.403584 6.610944 28.18048 6.469632h50.511872c24.768512 1.251328 38.752256-7.860224 41.955328-27.344896 3.059712-12.941312 5.771264-28.596224 8.1408-46.964736 5.148672 2.367488 12.107776 4.941824 20.871168 7.723008-1.531904 13.776896-3.964928 28.387328-7.303168 43.833344-4.732928 30.337024-25.120768 44.740608-61.159424 43.208704h-55.523328c-38.268928 1.11616-56.772608-14.262272-55.519232-46.129152v-121.899008h130.248704v-94.347264h-137.555968v-20.455424H695.0912v135.467008h-130.459648v96.643072z" fill="#56B43C" p-id="1102"></path></svg>