<?xml version="1.0" encoding="utf-8"?>
<!-- Generator: Adobe Illustrator 23.0.1, SVG Export Plug-In . SVG Version: 6.00 Build 0)  -->
<svg version="1.1" id="图层_1" xmlns="http://www.w3.org/2000/svg" xmlns:xlink="http://www.w3.org/1999/xlink" x="0px" y="0px"
	 viewBox="0 0 26 26" enable-background="new 0 0 26 26" xml:space="preserve">
<g>
	<path d="M12.2,4.1L12.2,4.1c0.2-0.2,0.5-0.3,0.8-0.3h0c0.3,0,0.5,0.1,0.7,0.3l3.7,4.4c0.4,0.4,0.4,1.1,0,1.4
		c-0.2,0.2-0.5,0.3-0.7,0.3c-0.3,0-0.5-0.1-0.7-0.3L14,7.7v10.5c0,0.6-0.5,1-1,1c-0.6,0-1-0.5-1-1V7.6L10,10l0,0
		c-0.2,0.2-0.5,0.3-0.7,0.3c-0.3,0-0.5-0.1-0.7-0.3c-0.4-0.4-0.4-1,0-1.4L12.2,4.1z M5.3,21.2c0-0.6,0.5-1,1-1h13.4c0.6,0,1,0.5,1,1
		c0,0.6-0.5,1-1,1H6.3C5.8,22.2,5.3,21.7,5.3,21.2L5.3,21.2z M5.3,21.2"/>
	<path d="M21.9,0.8H4.1c-1.8,0-3.3,1.5-3.3,3.3v17.8c0,1.8,1.5,3.3,3.3,3.3h17.8c1.8,0,3.3-1.5,3.3-3.3V4.1
		C25.1,2.3,23.7,0.8,21.9,0.8L21.9,0.8z M2.9,4.1c0-0.7,0.5-1.2,1.2-1.2h17.8c0.7,0,1.2,0.5,1.2,1.2v17.8c0,0.7-0.5,1.2-1.2,1.2H4.1
		c-0.7,0-1.2-0.5-1.2-1.2L2.9,4.1L2.9,4.1z M2.9,4.1"/>
</g>
</svg>
