<?xml version="1.0" encoding="utf-8"?>
<!-- Generator: Adobe Illustrator 23.0.1, SVG Export Plug-In . SVG Version: 6.00 Build 0)  -->
<svg version="1.1" id="图层_1" xmlns="http://www.w3.org/2000/svg" xmlns:xlink="http://www.w3.org/1999/xlink" x="0px" y="0px"
	 viewBox="0 0 28 28" enable-background="new 0 0 28 28" xml:space="preserve">
<rect display="none" width="28" height="28"/>
<g>
	<g>
		<path d="M27.4,9.5C27.4,9.4,27.4,9.4,27.4,9.5l-6.9-7.8C20.2,1.2,19.7,1,19.2,1h0c-0.5,0-1,0.2-1.3,0.6
			c-0.3,0.3-0.5,0.8-0.5,1.3v3.3h-2.6c-0.5,0-0.9,0.4-0.9,0.9s0.4,0.9,0.9,0.9h3.5c0.5,0,0.9-0.4,0.9-0.9V2.9c0-0.1,0-0.1,0-0.1
			l6.8,7.8c0.1,0.1,0.1,0.3,0,0.3l-6.8,7.8c0,0,0-0.1,0-0.1v-4.5c0-0.5-0.4-0.9-0.9-0.9h-7.8V9.5c0-1.1-0.8-1.9-1.8-1.9
			c-0.5,0-1,0.2-1.3,0.6l-6.8,7.8l0,0c-0.6,0.7-0.6,1.9,0,2.6c0,0,0,0,0,0l6.8,7.7C7.8,26.8,8.2,27,8.7,27h0c0.5,0,1-0.2,1.3-0.6
			c0.3-0.3,0.5-0.8,0.5-1.3v-3.3h2.7c0.5,0,0.9-0.4,0.9-0.9s-0.4-0.9-0.9-0.9H9.6c-0.5,0-0.9,0.4-0.9,0.9v4.1c0,0.1,0,0.1,0,0.1
			l-6.8-7.7c-0.1-0.1-0.1-0.3,0-0.3l6.8-7.8c0,0,0,0.1,0,0.1v4.5c0,0.5,0.4,0.9,0.9,0.9h7.8v3.7c0,1.1,0.8,1.9,1.8,1.9
			c0.5,0,1-0.2,1.3-0.6l6.8-7.8c0,0,0,0,0,0C28,11.3,28,10.2,27.4,9.5L27.4,9.5z M27.4,9.5"/>
	</g>
</g>
</svg>
