<?xml version="1.0" encoding="utf-8"?>
<!-- Generator: Adobe Illustrator 23.0.1, SVG Export Plug-In . SVG Version: 6.00 Build 0)  -->
<svg version="1.1" id="图层_1" xmlns="http://www.w3.org/2000/svg" xmlns:xlink="http://www.w3.org/1999/xlink" x="0px" y="0px"
	 viewBox="0 0 28 28" enable-background="new 0 0 28 28" xml:space="preserve">
<g>
	<path fill="#FFFFFF" d="M14.8,27.8h-1.2c-0.7,0-1.4-0.3-1.9-0.7c-0.5-0.5-0.9-1.1-1-1.8c0,0,0,0-0.1-0.1c-0.4-0.2-0.8-0.4-1.2-0.6
		l-0.4-0.2c0,0-0.1,0-0.1,0c0,0,0,0-0.1,0C7.5,25.1,5.9,25,4.9,24l-0.9-0.9C3,22,2.8,20.5,3.6,19.3c0,0,0-0.1,0-0.1l-0.2-0.3l0,0
		C3.2,18.4,3,18,2.8,17.6c0,0,0-0.1-0.1-0.1l0,0c-1.2-0.3-2.6-1.4-2.6-3v-1.2c0-1.5,1.3-2.7,2.6-3l0,0c0,0,0,0,0.1-0.1
		c0.1-0.4,0.3-0.8,0.6-1.1l0,0c0-0.1,0.1-0.1,0.1-0.2c0-0.1,0.1-0.2,0.2-0.3c0,0,0-0.1,0-0.1l0,0l0,0C3.3,8,3.2,7.4,3.2,6.9
		C3.2,6,3.5,5.3,4,4.7L5,3.8c1.1-1,2.7-1.1,3.8-0.4c0,0,0.1,0,0.1,0c0.6-0.3,1.1-0.6,1.6-0.7c0,0,0.1,0,0.1-0.1
		c0.3-1.4,1.6-2.4,3-2.4h1.2c1.4,0,2.7,1,3,2.4c0,0,0,0,0.1,0.1c0.5,0.1,1,0.4,1.6,0.7c0.1,0,0.1,0,0.1,0c1.1-0.8,2.7-0.6,3.7,0.4
		l1,0.9l0,0c1,1.1,1.1,2.6,0.4,3.8c0,0,0,0.1,0,0.1c0.3,0.5,0.5,1.1,0.7,1.6c0,0.1,0.1,0.1,0.1,0.1c1.4,0.3,2.4,1.6,2.4,3v1.3
		c0,1.4-1,2.7-2.4,3c0,0,0,0-0.1,0.1c-0.1,0.3-0.2,0.6-0.4,0.9c-0.1,0.2-0.2,0.4-0.2,0.5l0,0.1l-0.1,0.2c0,0,0,0.1,0,0.1l0,0l0,0
		c0.3,0.5,0.5,1.1,0.5,1.6c0,0.8-0.3,1.6-0.9,2.2L23.3,24c-0.9,1-2.6,1.2-3.8,0.5c0,0-0.1,0-0.1,0c-0.5,0.3-1.1,0.5-1.6,0.7
		c0,0-0.1,0-0.1,0.1c-0.1,0.7-0.5,1.3-1,1.8C16.1,27.5,15.4,27.8,14.8,27.8L14.8,27.8z M8.8,22.5c0.4,0,0.8,0.2,0.9,0.2l0.4,0.2
		c0.4,0.2,0.8,0.4,1.1,0.5c0.7,0.3,1.1,0.8,1.3,1.4c0.1,0.6,0.6,1,1.1,1h1.2c0.5,0,1-0.4,1.1-1c0.1-0.6,0.6-1.2,1.3-1.4l0,0l0,0
		c0.4-0.1,0.9-0.4,1.4-0.6l0,0l0,0c0.6-0.3,1.3-0.2,1.9,0.1l0,0l0,0c0.3,0.2,1,0.2,1.3-0.2l0,0l0.9-0.9c0.2-0.2,0.3-0.5,0.3-0.8
		c0-0.2-0.1-0.4-0.2-0.6c-0.4-0.5-0.4-1.2-0.2-1.9l0-0.1l0.1-0.2c0.1-0.2,0.2-0.4,0.2-0.5c0.1-0.3,0.2-0.5,0.3-0.7l0-0.1
		c0.3-0.7,0.8-1.1,1.4-1.3c0.5-0.1,0.9-0.6,0.9-1.1v-1.3c0-0.5-0.4-1-0.9-1.1c-0.6-0.1-1.2-0.6-1.4-1.3l0,0c-0.2-0.5-0.4-1-0.6-1.4
		l0-0.1l0-0.1c-0.3-0.6-0.2-1.3,0.1-1.9l0,0c0.3-0.4,0.2-1-0.2-1.5l-0.9-0.9c-0.4-0.4-1-0.4-1.3-0.2l0,0l0,0
		c-0.6,0.3-1.2,0.4-1.9,0.1l-0.1,0l-0.1,0c-0.3-0.2-0.8-0.5-1.3-0.6l-0.1,0l-0.1,0c-0.7-0.3-1.1-0.8-1.3-1.4
		c-0.1-0.5-0.6-0.9-1.1-0.9h-1.2c-0.5,0-1,0.4-1.1,0.9c-0.1,0.6-0.6,1.2-1.3,1.4l0,0l0,0c-0.4,0.1-0.8,0.3-1.4,0.6l-0.1,0l-0.1,0
		C9,5.4,8.3,5.4,7.8,5l0,0l0,0c-0.4-0.3-1-0.2-1.4,0.2L5.4,6C5.2,6.2,5.1,6.5,5.1,6.9c0,0.2,0.1,0.4,0.2,0.6C5.6,8,5.7,8.7,5.4,9.4
		l0,0.1L5.3,9.5c0,0.1-0.1,0.1-0.1,0.2C5.2,9.9,5.1,10,5,10.1c-0.1,0.2-0.3,0.5-0.4,0.7l0,0.1l0,0.1c-0.3,0.7-0.8,1.1-1.4,1.3
		c-0.5,0.1-1.1,0.6-1.1,1.1v1.2c0,0.5,0.6,1,1.1,1.1c0.6,0.1,1.2,0.6,1.4,1.3l0,0.1c0.1,0.3,0.3,0.7,0.5,1.1l0.2,0.4l0,0.1
		c0.3,0.6,0.2,1.3-0.1,1.9l0,0c-0.3,0.4-0.2,1,0.2,1.5l0.9,0.9c0.4,0.4,1,0.4,1.5,0.2l0,0l0.1,0C8,22.7,8.4,22.5,8.8,22.5L8.8,22.5z
		 M8.8,22.5"/>
	<path d="M14.1,19.4c-3.1,0-5.6-2.5-5.6-5.6c0-3.1,2.5-5.6,5.6-5.6c3.1,0,5.6,2.5,5.6,5.6
		C19.8,16.9,17.2,19.4,14.1,19.4L14.1,19.4z M14.1,10.1c-2.1,0-3.7,1.7-3.7,3.7c0,2.1,1.7,3.7,3.7,3.7c2.1,0,3.7-1.7,3.7-3.7
		C17.9,11.8,16.2,10.1,14.1,10.1L14.1,10.1z M14.1,10.1"/>
</g>
</svg>
