<?xml version="1.0" encoding="UTF-8"?>
<svg width="138px" height="113px" viewBox="0 0 138 113" version="1.1" xmlns="http://www.w3.org/2000/svg" xmlns:xlink="http://www.w3.org/1999/xlink">
    <title>形状结合</title>
    <g id="页面-1" stroke="none" stroke-width="1" fill="none" fill-rule="evenodd">
        <g id="icon" transform="translate(-1.000000, -14.000000)" fill="#208EFF">
            <path d="M104,14 L104,39 L139,39 L139,122 C139,124.761424 136.761424,127 134,127 C131.238576,127 129,124.761424 129,122 L129,50 L93,50 L93,25 L67,25 L67,93 L11,93 L11,122 C11,124.761424 8.76142375,127 6,127 C3.23857625,127 1,124.761424 1,122 L1,82 L56,82 L56,14 L104,14 Z M45,14.6794919 C47.3914631,16.0602038 48.2108389,19.1181558 46.830127,21.5096189 L36.154,39.9997841 L45.5,40 C47.9852814,40 50,42.0147186 50,44.5 C50,46.9852814 47.9852814,49 45.5,49 L32,48.9997841 L32,53.9997841 L45.5,54 C47.9852814,54 50,56.0147186 50,58.5 C50,60.9852814 47.9852814,63 45.5,63 L32,62.9997841 L32,69.5 C32,73.0898509 29.0898509,76 25.5,76 C21.9101491,76 19,73.0898509 19,69.5 L19,62.9997841 L5.5,63 C3.01471863,63 1,60.9852814 1,58.5 C1,56.0147186 3.01471863,54 5.5,54 L19,53.9997841 L19,48.9997841 L5.5,49 C3.01471863,49 1,46.9852814 1,44.5 C1,42.0147186 3.01471863,40 5.5,40 L15.345,39.9997841 L4.66987298,21.5096189 C3.32751421,19.1845854 4.0647136,16.2295758 6.30436396,14.7983835 L6.5,14.6794919 C8.82503359,13.3371332 11.7800432,14.0743325 13.2112354,16.3139829 L13.330127,16.5096189 L25.75,38.0207841 L38.169873,16.5096189 C39.5505849,14.1181558 42.6085369,13.29878 45,14.6794919 Z" id="形状结合"></path>
        </g>
    </g>
</svg>