<?xml version="1.0" encoding="UTF-8"?>
<svg width="22px" height="16px" viewBox="0 0 22 16" version="1.1" xmlns="http://www.w3.org/2000/svg" xmlns:xlink="http://www.w3.org/1999/xlink">
    <!-- Generator: Sketch 53.2 (72643) - https://sketchapp.com -->
    <title>分组</title>
    <desc>Created with Sketch.</desc>
    <defs>
        <polygon id="path-1" points="0 0.249047619 21.6913603 0.249047619 21.6913603 15.9999634 0 15.9999634"></polygon>
    </defs>
    <g id="页面-1" stroke="none" stroke-width="1" fill="none" fill-rule="evenodd">
        <g id="分拣进度-原型稿-copy-13" transform="translate(-1544.000000, -351.000000)">
            <g id="分组" transform="translate(1544.000000, 351.000000)">
                <g>
                    <mask id="mask-2" fill="white">
                        <use xlink:href="#path-1"></use>
                    </mask>
                    <g id="Clip-2"></g>
                    <path d="M17.1106222,14.6538095 C15.8884,14.8919048 14.6661778,14.5347619 13.6884,13.8204762 C12.7106222,13.1061905 12.2217333,11.9157143 12.2217333,10.7252381 C12.2217333,8.58238095 14.0550667,6.79666667 16.2562889,6.79666667 C18.4562889,6.79666667 20.2896222,8.58238095 20.2896222,10.7252381 C20.2896222,12.63 18.9439556,14.2966667 17.1106222,14.6538095 L17.1106222,14.6538095 Z M2.81062222,8.10619048 C1.95628889,8.10619048 1.46617778,7.51095238 1.46617778,6.79666667 C1.46617778,6.08238095 2.07728889,5.48714286 2.81062222,5.48714286 L6.84517778,5.48714286 C7.57728889,5.48714286 8.1884,6.08238095 8.1884,6.79666667 C8.1884,7.51095238 7.57728889,8.10619048 6.84517778,8.10619048 L2.81062222,8.10619048 Z M21.2661778,8.70142857 C20.7772889,7.63 20.0439556,6.79666667 19.0674,6.20142857 L19.0674,2.86809524 C19.0674,1.43952381 17.8451778,0.249047619 16.3772889,0.249047619 L5.37728889,0.249047619 C3.91062222,0.249047619 2.6884,1.43952381 2.6884,2.86809524 L2.6884,4.17761905 C1.22173333,4.17761905 -0.000488888889,5.36809524 -0.000488888889,6.79666667 C-0.000488888889,8.2252381 1.22173333,9.41571429 2.6884,9.41571429 L2.6884,12.0347619 C2.6884,13.4633333 3.91062222,14.6538095 5.37728889,14.6538095 L12.5896222,14.6538095 C14.5439556,16.3204762 17.3550667,16.4395238 19.3118444,15.0109524 C21.5118444,13.582381 22.2439556,10.9633333 21.2661778,8.70142857 L21.2661778,8.70142857 Z" id="Fill-1" fill="#E68FFF" mask="url(#mask-2)"></path>
                </g>
                <path d="M16.7336251,12 L16.2896668,12 C16.1120835,12 16.0232919,12.0917348 16.0232919,12.2724796 L16.0232919,12.7266122 C15.9353881,12.9082652 16.1120835,13 16.2896668,13 L16.7336251,13 C16.9112084,13 17,12.9082652 17,12.7266122 L17,12.2724796 C17,12.0917348 16.9112084,12 16.7336251,12" id="Fill-3" fill="#E68FFF"></path>
                <path d="M16.2727273,11 L16.7272727,11 C16.9090909,11 17,10.8622727 17,10.5909091 L17,8.40909091 C17,8.135 16.9090909,8 16.7272727,8 L16.2727273,8 C16.0909091,8 16,8.135 16,8.40909091 L16,10.5909091 C16,10.7272727 16.1809091,11 16.2727273,11" id="Fill-5" fill="#E68FFF"></path>
            </g>
        </g>
    </g>
</svg>