<?xml version="1.0" encoding="utf-8"?>
<!-- Generator: Adobe Illustrator 23.0.1, SVG Export Plug-In . SVG Version: 6.00 Build 0)  -->
<svg version="1.1" id="图层_1" xmlns="http://www.w3.org/2000/svg" xmlns:xlink="http://www.w3.org/1999/xlink" x="0px" y="0px"
	 viewBox="0 0 22 22" enable-background="new 0 0 22 22" xml:space="preserve">
<g>
	<g>
		<path d="M19.5,11.5c-0.4-0.9-1-1.6-1.8-2.1V6.6c0-1.2-1-2.2-2.2-2.2h-9c-1.2,0-2.2,1-2.2,2.2v1.1
			c-1.2,0-2.2,1-2.2,2.2v0c0,1.2,1,2.2,2.2,2.2v2.2c0,1.2,1,2.2,2.2,2.2h5.9c1.6,1.4,3.9,1.5,5.5,0.3C19.7,15.6,20.3,13.4,19.5,11.5
			L19.5,11.5z M4.4,11C4.3,11,4.3,11,4.4,11c-0.7,0-1.1-0.5-1.1-1.1v0c0-0.6,0.5-1.1,1.1-1.1h3.3c0.6,0,1.1,0.5,1.1,1.1v0
			c0,0.6-0.5,1.1-1.1,1.1H4.4z M6.5,15.4c-0.6,0-1.1-0.5-1.1-1.1v-2.2h2.3c1.2,0,2.2-1,2.2-2.2v0c0-1.2-1-2.2-2.2-2.2H5.4V6.6
			c0-0.6,0.5-1.1,1.1-1.1h9c0.6,0,1.1,0.5,1.1,1.1v2.3c-1.7-0.5-3.6,0.1-4.7,1.6c-1.1,1.4-1.2,3.4-0.3,5H6.5L6.5,15.4z M16.1,16.5
			c-1,0.2-2-0.1-2.8-0.7c-0.8-0.6-1.2-1.6-1.2-2.6c0-1.8,1.5-3.3,3.3-3.3c1.8,0,3.3,1.5,3.3,3.3C18.7,14.8,17.6,16.2,16.1,16.5
			L16.1,16.5z M16.1,16.5"/>
	</g>
	<path d="M15.3,15.4h0.5c0.2,0,0.3-0.1,0.3-0.3v-0.5c0-0.2-0.1-0.3-0.3-0.3h-0.5c-0.2,0-0.3,0.1-0.3,0.3v0.5
		C14.9,15.3,15.1,15.4,15.3,15.4z"/>
	<path d="M15.2,13.2h0.5c0.2,0,0.3-0.1,0.3-0.3v-1.6c0-0.2-0.1-0.3-0.3-0.3h-0.5c-0.2,0-0.3,0.1-0.3,0.3v1.6
		C14.9,13,15.1,13.2,15.2,13.2z"/>
</g>
</svg>
