<?xml version="1.0" encoding="utf-8"?>
<!-- Generator: Adobe Illustrator 23.0.1, SVG Export Plug-In . SVG Version: 6.00 Build 0)  -->
<svg version="1.1" id="图层_1" xmlns="http://www.w3.org/2000/svg" xmlns:xlink="http://www.w3.org/1999/xlink" x="0px" y="0px"
	 viewBox="0 0 18 15" style="enable-background:new 0 0 18 15;" xml:space="preserve">
<style type="text/css">
	.st0{fill-rule:evenodd;clip-rule:evenodd;fill:#505E74;}
</style>
<g id="页面-1">
	<g id="商品列表-首页-copy-133" transform="translate(-1584.000000, -20.000000)">
		<g id="分组" transform="translate(1584.000000, 20.000000)">
			<path id="Fill-1" class="st0" d="M9,1.2c0.5,0,1.2,0.2,1.6,0.7c0.4,0.5,0.6,1.3,0.6,2.4c0,0.4,0.2,0.7,0.3,0.8l0,0v0.1l0,0
				c-0.1,0.1-0.3,0.4-0.4,0.7l0,0c-0.1,0.5-0.2,0.6-0.3,0.7c0,0.1-0.1,0.1-0.2,0.2c-0.1,0.1-0.3,0.2-0.4,0.4
				C10.1,7.3,10,7.4,9.9,7.7C9.8,7.9,9.8,8.2,9.7,8.4c-0.1,0.7,0.1,1.3,0.6,1.8c0.5,0.6,1.4,1,2.1,1.2c0.4,0.1,0.8,0.2,1.1,0.3
				c0.8,0.2,1,0.3,1.1,0.4c0.1,0.1,0.2,0.4,0.2,0.7c0,0.1,0,0.2,0,0.3c-0.5,0.1-1.3,0.3-2.9,0.5c-1.4,0.1-2.7,0.2-2.9,0.2
				s-1.6-0.1-3.1-0.2c-1.6-0.1-2.4-0.3-2.8-0.4c0-0.1,0-0.2,0-0.3c0-0.2,0-0.6,0.2-0.8c0.1-0.1,0.5-0.2,0.9-0.3
				c0.8-0.2,1.7-0.4,3-1.1c0.4-0.2,0.6-0.4,0.8-0.8c0.1-0.2,0.2-0.5,0.3-0.6c0,0,0,0,0-0.1C8.5,9,8.5,8.7,8.5,8.4s-0.1-0.7-0.3-1
				C8,7,7.7,6.8,7.4,6.6c0,0-0.1,0-0.1-0.1V6.4c-0.1-0.3-0.2-0.7-0.5-1C6.7,5.3,6.6,5.3,6.6,5.2c0-0.1,0.1-0.3,0.2-0.5
				c0-0.2,0-0.4,0-0.5c0,0,0,0,0-0.1c0-0.9,0.2-1.8,0.6-2.3c0.2-0.2,0.4-0.4,0.7-0.5C8.4,1.2,8.7,1.2,9,1.2 M9,0C8,0,7,0.4,6.4,1.2
				s-0.9,1.9-0.9,3c0,0.1,0,0.2,0,0.4c0,0.3-0.2,0.4-0.2,0.7c0,0.3,0.1,0.6,0.5,0.9C6.1,6.5,6.1,7,6.3,7.3C6.5,7.5,6.9,7.7,7,8
				c0.2,0.3,0.2,0.6,0.1,1C7,9.3,7,9.6,6.6,9.8c-1.1,0.6-1.9,0.8-2.5,0.9c-0.5,0.1-1.4,0.4-1.7,0.8c-0.7,1-0.3,2.4-0.2,2.6
				C2.5,14.6,8.6,15,9.1,15c0.4,0,5.2-0.1,6.7-0.9c0.1,0,0.5-1.6-0.3-2.6c-0.5-0.6-1.2-0.7-2.7-1.2c-0.5-0.2-1.2-0.5-1.4-0.8
				c-0.6-0.7-0.2-1.6-0.1-1.6c0.2-0.2,0.4-0.3,0.6-0.6c0.3-0.4,0.4-0.7,0.5-1.2c0.1-0.3,0.4-0.4,0.5-1s-0.3-0.6-0.3-0.9
				c0-1.2-0.2-2.3-0.9-3.1C11,0.4,10,0,9,0"/>
			<g transform="translate(0.000000, 1.000000)">
				<path id="Fill-3" class="st0" d="M17.2,13c-0.2,0-0.4-0.1-0.5-0.3s-0.1-0.4-0.1-0.6c0.1-0.2,0.2-1.1-0.1-1.6
					c-0.1-0.2-0.3-0.3-0.9-0.5c-0.2-0.1-0.4-0.2-0.7-0.3s-1-0.4-1.3-0.9c-0.2-0.4-0.3-0.8-0.3-1.3c0-0.2,0.1-0.6,0.2-0.8
					c0.1-0.1,0.2-0.2,0.2-0.3c0.1-0.1,0.1-0.1,0.2-0.2C14,6,14.1,5.9,14.2,5.4l0,0c0-0.2,0.1-0.4,0.2-0.5C14.5,5,14.5,5,14.5,4.8
					s0-0.2,0-0.2c0-0.1-0.1-0.3-0.1-0.5c0-1-0.2-1.8-0.5-2.2c-0.2-0.3-0.6-0.5-1-0.6s-0.6-0.4-0.5-0.7s0.4-0.6,0.8-0.5
					c0.7,0.1,1.4,0.6,1.8,1.2c0.5,0.7,0.7,1.6,0.7,2.8c0.1,0.2,0.2,0.4,0.2,0.9s-0.2,0.7-0.3,0.9l0,0l0,0c-0.1,0.5-0.2,0.8-0.5,1.2
					c-0.1,0.1-0.2,0.3-0.3,0.3l-0.1,0.1c0,0.1-0.1,0.5,0.1,0.7c0.1,0.1,0.3,0.3,0.7,0.4c0.3,0.1,0.5,0.2,0.7,0.3
					c0.6,0.2,1.1,0.4,1.5,1c0.2,0.3,0.4,0.8,0.4,1.7c0,0.3,0,0.5-0.1,0.6c0,0.3-0.1,0.5-0.3,0.7C17.5,13,17.3,13,17.2,13 M0.8,13
					c-0.1,0-0.3,0-0.4-0.1c-0.2-0.2-0.3-0.4-0.3-0.7C0,12.1,0,11.9,0,11.6c0-0.5,0.1-1.2,0.4-1.7c0.4-0.6,0.9-0.7,1.5-1
					c0.2-0.1,0.4-0.1,0.7-0.3C3,8.5,3.2,8.3,3.3,8.2c0.1-0.2,0.1-0.5,0-0.7L3.2,7.4c0,0-0.1-0.1-0.2-0.3C2.7,6.7,2.6,6.3,2.5,5.9
					l0,0l0,0c-0.1-0.3-0.3-0.5-0.3-1S2.3,4.2,2.4,4c0-1.2,0.2-2.2,0.7-2.8c0.4-0.6,1-1,1.8-1.2c0.4-0.1,0.7,0.1,0.8,0.5
					c0.1,0.3-0.2,0.7-0.5,0.7c-0.4,0.1-0.7,0.3-1,0.6C3.8,2.3,3.7,3.1,3.7,4.1c0,0.2-0.1,0.4-0.1,0.5s0,0.1,0,0.2
					c0,0.2,0,0.2,0.1,0.3c0.1,0.1,0.2,0.2,0.2,0.5l0,0C4,6,4,6.2,4.2,6.4c0,0.1,0.1,0.1,0.2,0.2s0.2,0.2,0.2,0.3
					c0.1,0.2,0.2,0.6,0.2,0.8c0,0.5-0.1,0.9-0.3,1.3c-0.4,0.4-1,0.7-1.4,0.8C2.8,9.9,2.6,10,2.4,10.1c-0.6,0.2-0.7,0.3-0.9,0.5
					c-0.3,0.5-0.2,1.3-0.1,1.6c0.1,0.2,0.1,0.4-0.1,0.6C1.2,12.9,1,13,0.8,13"/>
			</g>
		</g>
	</g>
</g>
</svg>
