<?xml version="1.0" encoding="UTF-8"?>
<svg width="15px" height="17px" viewBox="0 0 15 17" version="1.1" xmlns="http://www.w3.org/2000/svg" xmlns:xlink="http://www.w3.org/1999/xlink">
    <!-- Generator: Sketch 53.2 (72643) - https://sketchapp.com -->
    <title>分组</title>
    <desc>Created with Sketch.</desc>
    <g id="页面-1" stroke="none" stroke-width="1" fill="none" fill-rule="evenodd">
        <g id="分拣进度-原型稿-copy-13" transform="translate(-1731.000000, -352.000000)" fill="#FF8585">
            <g id="分组" transform="translate(1731.000000, 352.000000)">
                <path d="M11.2521739,12.7581925 L11.2521739,11.6198689 C11.2521739,11.3104519 11.0434783,11 10.6250435,11 C10.3130435,11 10,11.2059331 10,11.6198689 L10,13.3801311 C10,13.4825802 10.1033043,13.6895481 10.2086957,13.7930321 C10.3130435,13.8975509 10.4173913,14 10.6250435,14 L12.4,14 C12.6086957,14 12.8173913,13.8975509 12.9217391,13.6895481 C13.026087,13.4825802 13.026087,13.2756123 12.9217391,13.0696792 C12.8173913,12.8627113 12.6086957,12.7581925 12.4,12.7581925 L11.2521739,12.7581925 Z" id="Fill-1"></path>
                <path d="M10.9937461,15.8342648 C9.4698605,15.8342648 8.16258436,14.5157507 8.16258436,12.9751017 C8.16258436,11.4355524 9.4698605,10.1170384 10.9937461,10.1170384 C12.5165432,10.1170384 13.8238194,11.4355524 13.8238194,12.9751017 C13.7149704,14.5157507 12.5165432,15.8342648 10.9937461,15.8342648 M2.06813046,8.90629283 C2.17697943,8.68635721 2.39467737,8.5763894 2.61237531,8.5763894 L7.6183395,8.5763894 C7.83712593,8.5763894 7.94597491,8.68635721 8.05482388,8.7974247 C8.16258436,8.90629283 8.27252182,9.12622844 8.27252182,9.23619625 C8.27252182,9.45613187 8.16258436,9.56719936 8.05482388,9.67606749 C7.94597491,9.7860353 7.72827696,9.89710278 7.6183395,9.89710278 L2.61237531,9.89710278 C2.39467737,9.89710278 2.17697943,9.7860353 2.06813046,9.56719936 C1.95928148,9.34726374 1.95928148,9.12622844 2.06813046,8.90629283 M8.27252182,6.92687227 C8.27252182,7.3667435 7.94597491,7.58667912 7.6183395,7.58667912 L2.61237531,7.58667912 C2.2858284,7.58667912 2.06813046,7.3667435 2.06813046,7.03684008 C2.06813046,6.70693665 2.2858284,6.37703323 2.61237531,6.26706542 L7.6183395,6.26706542 C8.05482388,6.26706542 8.27252182,6.59806852 8.27252182,6.92687227 M10.9937461,4.7275161 C10.9937461,5.16738733 10.6671992,5.38732295 10.3395638,5.38732295 L2.61237531,5.38732295 C2.2858284,5.38732295 2.06813046,5.16738733 2.06813046,4.8374839 C2.06813046,4.50758048 2.2858284,4.17767705 2.61237531,4.06770924 L10.3395638,4.06770924 C10.7760482,4.06770924 10.9937461,4.39871235 10.9937461,4.7275161 M13.4972724,9.89710278 L13.4972724,3.5178702 C13.4972724,2.52815992 12.7353296,1.64951713 11.6468399,1.64951713 L10.1229543,1.64951713 C10.0141054,0.768674983 9.25107407,0 8.38137079,0 L5.22475062,0 C4.35395885,0 3.48316708,0.658707174 3.48316708,1.64951713 L1.85043251,1.64951713 C0.870791771,1.64951713 0,2.41819211 0,3.5178702 L0,14.9545223 C0,15.9453323 0.761942799,16.8239751 1.85043251,16.8239751 L9.68755845,16.8239751 C11.537991,17.3738141 13.4972724,16.6040394 14.4769132,14.9545223 C15.4565539,13.3050052 15.021158,11.105649 13.4972724,9.89710278" id="Fill-3"></path>
            </g>
        </g>
    </g>
</svg>