<?xml version="1.0" encoding="UTF-8"?>
<svg width="15px" height="18px" viewBox="0 0 15 18" version="1.1" xmlns="http://www.w3.org/2000/svg" xmlns:xlink="http://www.w3.org/1999/xlink">
    <!-- Generator: Sketch 53.2 (72643) - https://sketchapp.com -->
    <title>分组</title>
    <desc>Created with Sketch.</desc>
    <defs>
        <polygon id="path-1" points="0 0.144 14.999875 0.144 14.999875 18 0 18"></polygon>
    </defs>
    <g id="页面-1" stroke="none" stroke-width="1" fill="none" fill-rule="evenodd">
        <g id="分拣进度-原型稿-copy-13" transform="translate(-1547.000000, -240.000000)">
            <g id="分组" transform="translate(1547.000000, 240.000000)">
                <path d="M2.4965,17.1 C2.4965,17.03 2.5035,16.97 2.5035,16.9 L2.4965,16.9 L2.4965,17.1 Z" id="Fill-1" fill="#243351"></path>
                <g>
                    <mask id="mask-2" fill="white">
                        <use xlink:href="#path-1"></use>
                    </mask>
                    <g id="Clip-4"></g>
                    <path d="M2.999875,16.512 L2.999875,16.388 L3.008625,16.388 C3.008625,16.4314 2.999875,16.4686 2.999875,16.512 M6.749875,13.536 L8.249875,13.536 C8.749875,13.536 8.999875,13.784 8.999875,14.28 C8.999875,14.776 8.749875,15.024 8.249875,15.024 L6.749875,15.024 C6.249875,15.024 5.999875,14.776 5.999875,14.28 C5.999875,13.784 6.249875,13.536 6.749875,13.536 M14.249875,16.512 L13.499875,16.512 C13.499875,13.412 11.749875,11.676 10.499875,10.312 C9.999875,9.816 9.499875,9.444 9.499875,9.072 C9.499875,8.948 9.999875,8.576 10.249875,8.452 C11.499875,7.584 13.499875,5.972 13.499875,1.632 L14.249875,1.632 C14.624875,1.632 14.999875,1.384 14.999875,0.888 C14.999875,0.392 14.749875,0.144 14.249875,0.144 L0.749875,0.144 C0.374875,0.268 -0.000125000001,0.516 -0.000125000001,0.888 C-0.000125000001,1.384 0.374875,1.632 0.749875,1.632 L1.499875,1.632 C1.499875,5.972 3.624875,7.584 4.749875,8.452 C4.999875,8.576 5.499875,8.948 5.499875,9.072 C5.499875,9.32 4.874875,9.816 4.499875,10.436 C3.249875,11.676 1.499875,13.412 1.499875,16.512 L0.749875,16.512 C0.374875,16.512 -0.000125000001,16.76 -0.000125000001,17.256 C-0.000125000001,17.752 0.249875,18 0.749875,18 L14.124875,18 C14.624875,18 14.874875,17.752 14.874875,17.256 C14.999875,16.76 14.624875,16.512 14.249875,16.512" id="Fill-3" fill="#8FFFE6" mask="url(#mask-2)"></path>
                </g>
            </g>
        </g>
    </g>
</svg>