<?xml version="1.0" encoding="utf-8"?>
<!-- Generator: Adobe Illustrator 23.0.1, SVG Export Plug-In . SVG Version: 6.00 Build 0)  -->
<svg version="1.1" id="图层_1" xmlns="http://www.w3.org/2000/svg" xmlns:xlink="http://www.w3.org/1999/xlink" x="0px" y="0px"
	 viewBox="0 0 22 22" enable-background="new 0 0 22 22" xml:space="preserve">
<g>
	<g>
		<path d="M12.2,11.6c0-0.1-0.1-0.3-0.2-0.4c-0.1-0.1-0.2-0.2-0.4-0.2H7c-0.2,0-0.4,0.1-0.5,0.3
			c-0.1,0.2-0.1,0.4,0,0.6c0.1,0.2,0.3,0.3,0.5,0.3h4.6c0.1,0,0.3-0.1,0.4-0.2C12.1,11.9,12.2,11.8,12.2,11.6L12.2,11.6z M15.2,14.6
			v-1.1c0-0.3-0.2-0.6-0.6-0.6c-0.3,0-0.6,0.2-0.6,0.6v1.7c0,0.1,0.1,0.3,0.2,0.4c0.1,0.1,0.2,0.2,0.4,0.2h1.7
			c0.2,0,0.4-0.1,0.5-0.3c0.1-0.2,0.1-0.4,0-0.6c-0.1-0.2-0.3-0.3-0.5-0.3H15.2z M7,10.1h4.6c0.3,0,0.6-0.2,0.6-0.6
			c0-0.3-0.2-0.6-0.6-0.6H7C6.7,9,6.5,9.3,6.5,9.6C6.5,9.9,6.7,10.1,7,10.1L7,10.1z M7,8.1h7.1c0.3,0,0.6-0.2,0.6-0.6
			c0-0.3-0.2-0.6-0.6-0.6H7C6.7,7,6.5,7.3,6.5,7.6C6.5,7.9,6.7,8.1,7,8.1L7,8.1z M7,8.1"/>
		<path d="M17,12.2V6.4c0-0.9-0.7-1.7-1.7-1.7h-1.4c-0.1-0.8-0.8-1.5-1.6-1.5H9.4c-0.8,0-1.6,0.6-1.6,1.5H6.3
			c-0.9,0-1.7,0.7-1.7,1.7v10.4c0,0.9,0.7,1.7,1.7,1.7h7.2c1.7,0.5,3.5-0.2,4.4-1.7C18.8,15.3,18.4,13.3,17,12.2L17,12.2z M5.7,16.9
			V6.4c0-0.3,0.2-0.6,0.6-0.6h2c0.3,0,0.6-0.2,0.6-0.6V5c0-0.1,0.1-0.3,0.2-0.4c0.1-0.1,0.2-0.2,0.4-0.2h2.9c0.1,0,0.3,0.1,0.4,0.2
			c0.1,0.1,0.2,0.2,0.2,0.4v0.4c0,0.1,0.1,0.3,0.2,0.4c0.1,0.1,0.2,0.2,0.4,0.2h2c0.1,0,0.3,0.1,0.4,0.2c0.1,0.1,0.2,0.2,0.2,0.4
			v5.1c-1.6-0.6-3.3,0-4.3,1.4s-0.9,3.2,0.2,4.5H6.3c-0.1,0-0.3-0.1-0.4-0.2C5.8,17.1,5.7,17,5.7,16.9L5.7,16.9z M14.7,17.6
			c-1.4,0-2.6-1.2-2.6-2.6s1.2-2.6,2.6-2.6c1.4,0,2.6,1.2,2.6,2.6C17.2,16.4,16.1,17.6,14.7,17.6L14.7,17.6z M14.7,17.6"/>
	</g>
</g>
</svg>
