<?xml version="1.0" encoding="utf-8"?>
<!-- Generator: Adobe Illustrator 23.0.1, SVG Export Plug-In . SVG Version: 6.00 Build 0)  -->
<svg version="1.1" id="图层_1" xmlns="http://www.w3.org/2000/svg" xmlns:xlink="http://www.w3.org/1999/xlink" x="0px" y="0px"
	 viewBox="0 0 22 22" enable-background="new 0 0 22 22" xml:space="preserve">
<g>
	<path d="M11.6,14.6h-1.2c-0.4,0-0.6,0.2-0.6,0.6c0,0.4,0.2,0.6,0.6,0.6h1.2c0.4,0,0.6-0.2,0.6-0.6
		C12.2,14.8,12,14.6,11.6,14.6L11.6,14.6z M16.4,17h-0.6c0-2.5-1.4-3.9-2.4-5c-0.4-0.4-0.8-0.7-0.8-1c0-0.1,0.4-0.4,0.6-0.5
		c1-0.7,2.6-2,2.6-5.5h0.6C16.7,5,17,4.8,17,4.4c0-0.4-0.2-0.6-0.6-0.6H5.6C5.3,3.9,5,4.1,5,4.4C5,4.8,5.3,5,5.6,5h0.6
		c0,3.5,1.7,4.8,2.6,5.5c0.2,0.1,0.6,0.4,0.6,0.5c0,0.2-0.5,0.6-0.8,1.1c-1,1-2.4,2.4-2.4,4.9H5.6C5.3,17,5,17.2,5,17.6
		c0,0.4,0.2,0.6,0.6,0.6h10.7c0.4,0,0.6-0.2,0.6-0.6C17,17.2,16.7,17,16.4,17L16.4,17z M7.4,17c0-2,1.2-3.2,2-4.2
		c0.6-0.6,1.2-1.2,1.2-1.8c0-0.7-0.5-1.1-1.1-1.4C8.6,8.9,7.4,7.9,7.4,5h7.1c0,2.9-1.2,3.8-2.1,4.5c-0.6,0.4-1.1,0.7-1.1,1.4
		c0,0.7,0.6,1.2,1.2,1.8c0.8,1,2,2.1,2,4.2H7.4z M7.4,17"/>
</g>
</svg>
