<?xml version="1.0" standalone="no"?><!DOCTYPE svg PUBLIC "-//W3C//DTD SVG 1.1//EN" "http://www.w3.org/Graphics/SVG/1.1/DTD/svg11.dtd"><svg t="1572432763315" class="icon" viewBox="0 0 1024 1024" version="1.1" xmlns="http://www.w3.org/2000/svg" p-id="1994" xmlns:xlink="http://www.w3.org/1999/xlink" width="32" height="32"><defs><style type="text/css"></style></defs><path d="M 512.8 193.6 h 5.6 c 17.6 0 31.2 -13.6 31.2 -30.4 v -80 c 0 -16.8 -15.2 -31.2 -33.6 -31.2 c -18.4 0 -33.6 13.6 -33.6 31.2 v 80 c -1.6 16.8 12.8 30.4 30.4 30.4 Z m 340 196 c 8.8 14.4 28 20 43.2 11.2 l 72 -40.8 c 15.2 -8.8 20 -27.2 11.2 -42.4 c -8.8 -14.4 -28 -19.2 -42.4 -11.2 l -72 40.8 c -15.2 8.8 -20.8 27.2 -12 42.4 Z m 95.2 516 h -688 h 579.2 V 596.8 c 0 -172.8 -141.6 -313.6 -316.8 -316.8 C 340 276 192 425.6 192 604 v 301.6 H 80.8 c -8.8 0 -17.6 3.2 -24 9.6 c -9.6 9.6 -12.8 24.8 -6.4 37.6 c 5.6 12 19.2 19.2 32 19.2 h 867.2 c 20.8 0 37.6 -18.4 33.6 -40 c -3.2 -16 -18.4 -26.4 -35.2 -26.4 Z m -554.4 -264 l 103.2 -166.4 c 8.8 -14.4 32 -6.4 28.8 10.4 l -19.2 115.2 h 99.2 c 12 0 20 12.8 13.6 23.2 L 516.8 790.4 c -8.8 14.4 -32 6.4 -28.8 -10.4 l 19.2 -115.2 H 407.2 c -12.8 0 -20 -12.8 -13.6 -23.2 Z M 56 360 l 72 40.8 c 15.2 8.8 33.6 3.2 42.4 -11.2 c 8.8 -14.4 3.2 -33.6 -11.2 -42.4 l -72 -40.8 c -15.2 -8.8 -34.4 -3.2 -43.2 11.2 c -8 15.2 -3.2 33.6 12 42.4 Z m 658.4 -110.4 c 15.2 8 34.4 3.2 42.4 -12 l 40 -72 c 8 -15.2 2.4 -33.6 -12.8 -41.6 c -15.2 -8 -34.4 -2.4 -42.4 12 l -40 72 c -8 14.4 -2.4 33.6 12.8 41.6 Z m -440.8 -12 c 8 15.2 27.2 20 42.4 12 s 20.8 -27.2 12.8 -41.6 l -40 -72 c -8 -15.2 -27.2 -20 -42.4 -12 s -20.8 26.4 -12 41.6 l 39.2 72 Z" fill="#d81e06" p-id="1995"></path></svg>