<?xml version="1.0" encoding="utf-8"?>
<!-- Generator: Adobe Illustrator 23.0.1, SVG Export Plug-In . SVG Version: 6.00 Build 0)  -->
<svg version="1.1" id="图层_1" xmlns="http://www.w3.org/2000/svg" xmlns:xlink="http://www.w3.org/1999/xlink" x="0px" y="0px"
	 viewBox="0 0 20 20" enable-background="new 0 0 20 20" xml:space="preserve">
<g>
	<path fill="#FF1919" d="M19.1,18.2h-2.7v-7.4c0-3.5-2.9-6.4-6.4-6.4c-3.5,0-6.4,2.9-6.4,6.4v7.4H0.9c-0.3,0-0.6,0.3-0.6,0.6
		c0,0.3,0.3,0.6,0.6,0.6h18.1c0.3,0,0.6-0.3,0.6-0.6C19.7,18.5,19.4,18.2,19.1,18.2L19.1,18.2z M4.7,10.9c0-2.9,2.3-5.2,5.2-5.2
		c2.9,0,5.2,2.3,5.2,5.2v7.4H8.5v-7c0-0.3-0.3-0.6-0.6-0.6c-0.3,0-0.6,0.3-0.6,0.6v7H4.7V10.9z M4.7,10.9"/>
	<path fill="#FF1919" d="M16.7,10.2c0,0.3,0.3,0.6,0.6,0.6H19c0.3,0,0.6-0.3,0.6-0.6c0-0.3-0.3-0.6-0.6-0.6h-1.7
		C17,9.6,16.7,9.9,16.7,10.2L16.7,10.2z M15.2,5.6c0.1,0,0.3-0.1,0.4-0.2l1.2-1.2C17,4,17,3.6,16.8,3.4c-0.2-0.2-0.6-0.2-0.8,0
		l-1.2,1.2c-0.2,0.2-0.2,0.6,0,0.8C14.9,5.5,15,5.6,15.2,5.6L15.2,5.6z M10,3.4c0.3,0,0.6-0.3,0.6-0.6V1.2c0-0.3-0.3-0.6-0.6-0.6
		c-0.3,0-0.6,0.3-0.6,0.6v1.7C9.4,3.2,9.7,3.4,10,3.4L10,3.4z M4.4,5.4c0.1,0.1,0.3,0.2,0.4,0.2c0.1,0,0.3-0.1,0.4-0.2
		c0.2-0.2,0.2-0.6,0-0.8L4.1,3.3c-0.2-0.2-0.6-0.2-0.8,0C3,3.6,3,3.9,3.2,4.2L4.4,5.4z M0.9,10.7h1.7c0.3,0,0.6-0.3,0.6-0.6
		c0-0.3-0.3-0.6-0.6-0.6H0.9c-0.3,0-0.6,0.3-0.6,0.6C0.4,10.4,0.6,10.7,0.9,10.7L0.9,10.7z M0.9,10.7"/>
</g>
</svg>
