<?xml version="1.0" encoding="utf-8"?>
<!-- Generator: Adobe Illustrator 23.0.1, SVG Export Plug-In . SVG Version: 6.00 Build 0)  -->
<svg version="1.1" id="图层_1" xmlns="http://www.w3.org/2000/svg" xmlns:xlink="http://www.w3.org/1999/xlink" x="0px" y="0px"
	 viewBox="0 0 26 26" enable-background="new 0 0 26 26" xml:space="preserve">
<g>
	<g>
		<defs>
			<rect id="SVGID_1_" x="0.4" y="1.5" width="25.2" height="23"/>
		</defs>
		<clipPath id="SVGID_2_">
			<use xlink:href="#SVGID_1_"  overflow="visible"/>
		</clipPath>
		<path clip-path="url(#SVGID_2_)" d="M12.9,17.7c-0.7,0-1.3,0.6-1.3,1.3c0,0.7,0.6,1.3,1.3,1.3c0.7,0,1.3-0.6,1.3-1.3
			C14.2,18.3,13.6,17.7,12.9,17.7L12.9,17.7z M12.9,17.7"/>
		<path clip-path="url(#SVGID_2_)" d="M25,22.3c0.9-1.4,0.9-3,0-4.4l-8-14c-0.9-1.4-2.3-2.3-3.9-2.3c-1.6,0-3,0.9-3.9,2.3L1,17.8
			c-0.9,1.4-0.9,3.2,0,4.4c0.9,1.4,2.3,2.1,3.9,2.1h16.2C22.7,24.6,24.1,23.7,25,22.3L25,22.3z M23.1,21.3c-0.4,0.7-1.3,1.3-2.1,1.3
			H4.8c-0.9,0-1.7-0.4-2.1-1.1c-0.4-0.7-0.4-1.7,0-2.4l8.2-14c0.4-0.7,1.3-1.3,2.1-1.3c0.9,0,1.7,0.4,2.1,1.3l8,14
			C23.7,19.6,23.7,20.6,23.1,21.3L23.1,21.3z M23.1,21.3"/>
	</g>
	<path d="M12.6,8.7c-0.6,0.1-1,0.7-1,1.4c0,0.4,0,0.9,0.1,1.3c0.1,1.6,0.1,3,0.3,4.6c0,0.6,0.4,0.9,1,0.9s1-0.4,1-1v-1
		c0-1,0.1-2,0.1-3c0-0.7,0.1-1.3,0.1-2c0-0.3,0-0.4-0.1-0.7C13.9,8.8,13.2,8.5,12.6,8.7L12.6,8.7z M12.6,8.7"/>
</g>
</svg>
